%TF.GenerationSoftware,KiCad,Pcbnew,7.0.9*%
%TF.CreationDate,2024-04-08T09:31:46+08:00*%
%TF.ProjectId,kai_simple_v3,6b61695f-7369-46d7-906c-655f76332e6b,rev?*%
%TF.SameCoordinates,Original*%
%TF.FileFunction,Soldermask,Bot*%
%TF.FilePolarity,Negative*%
%FSLAX46Y46*%
G04 Gerber Fmt 4.6, Leading zero omitted, Abs format (unit mm)*
G04 Created by KiCad (PCBNEW 7.0.9) date 2024-04-08 09:31:46*
%MOMM*%
%LPD*%
G01*
G04 APERTURE LIST*
G04 Aperture macros list*
%AMRotRect*
0 Rectangle, with rotation*
0 The origin of the aperture is its center*
0 $1 length*
0 $2 width*
0 $3 Rotation angle, in degrees counterclockwise*
0 Add horizontal line*
21,1,$1,$2,0,0,$3*%
G04 Aperture macros list end*
%ADD10C,1.701800*%
%ADD11C,3.000000*%
%ADD12C,5.050000*%
%ADD13R,2.600000X2.600000*%
%ADD14C,2.032000*%
%ADD15RotRect,2.600000X2.600000X345.000000*%
%ADD16C,1.500000*%
%ADD17C,0.800000*%
%ADD18O,2.000000X1.600000*%
%ADD19RotRect,2.600000X2.600000X15.000000*%
%ADD20C,4.000000*%
%ADD21C,3.200000*%
%ADD22C,0.500000*%
%ADD23C,1.524000*%
%ADD24O,1.750000X1.200000*%
G04 APERTURE END LIST*
D10*
%TO.C,SW23*%
X173090571Y-92078791D03*
D11*
X178590571Y-86128791D03*
D12*
X178590571Y-92078791D03*
D11*
X183590571Y-88328791D03*
D10*
X184090571Y-92078791D03*
D13*
X175315571Y-86128791D03*
D14*
X178590571Y-97978791D03*
X173590571Y-95878791D03*
D13*
X186865571Y-88328791D03*
%TD*%
D10*
%TO.C,SW17*%
X120177693Y-131600725D03*
D11*
X127030258Y-127276971D03*
D12*
X125490285Y-133024230D03*
D11*
X131290486Y-130696103D03*
D10*
X130802877Y-134447735D03*
D15*
X123866851Y-126429339D03*
D14*
X123963253Y-138723192D03*
X119677143Y-135400653D03*
D15*
X134453893Y-131543736D03*
%TD*%
D10*
%TO.C,SW20*%
X209090571Y-63648791D03*
D11*
X214590571Y-57698791D03*
D12*
X214590571Y-63648791D03*
D11*
X219590571Y-59898791D03*
D10*
X220090571Y-63648791D03*
D13*
X211315571Y-57698791D03*
D14*
X214590571Y-69548791D03*
X209590571Y-67448791D03*
D13*
X222865571Y-59898791D03*
%TD*%
D10*
%TO.C,SW9*%
X93015693Y-90173791D03*
D11*
X98515693Y-84223791D03*
D12*
X98515693Y-90173791D03*
D11*
X103515693Y-86423791D03*
D10*
X104015693Y-90173791D03*
D13*
X95240693Y-84223791D03*
D14*
X98515693Y-96073791D03*
X93515693Y-93973791D03*
D13*
X106790693Y-86423791D03*
%TD*%
D10*
%TO.C,SW7*%
X57015693Y-90173791D03*
D11*
X62515693Y-84223791D03*
D12*
X62515693Y-90173791D03*
D11*
X67515693Y-86423791D03*
D10*
X68015693Y-90173791D03*
D13*
X59240693Y-84223791D03*
D14*
X62515693Y-96073791D03*
X57515693Y-93973791D03*
D13*
X70790693Y-86423791D03*
%TD*%
D16*
%TO.C,J2*%
X210490571Y-111936291D03*
X218690571Y-111936291D03*
X212590571Y-111936291D03*
X214590571Y-111936291D03*
X216590571Y-111936291D03*
%TD*%
D10*
%TO.C,SW21*%
X227090571Y-73173791D03*
D11*
X232590571Y-67223791D03*
D12*
X232590571Y-73173791D03*
D11*
X237590571Y-69423791D03*
D10*
X238090571Y-73173791D03*
D13*
X229315571Y-67223791D03*
D14*
X232590571Y-79073791D03*
X227590571Y-76973791D03*
D13*
X240865571Y-69423791D03*
%TD*%
D10*
%TO.C,SW22*%
X245090571Y-86508791D03*
D11*
X250590571Y-80558791D03*
D12*
X250590571Y-86508791D03*
D11*
X255590571Y-82758791D03*
D10*
X256090571Y-86508791D03*
D13*
X247315571Y-80558791D03*
D14*
X250590571Y-92408791D03*
X245590571Y-90308791D03*
D13*
X258865571Y-82758791D03*
%TD*%
D10*
%TO.C,SW18*%
X173090571Y-75078791D03*
D11*
X178590571Y-69128791D03*
D12*
X178590571Y-75078791D03*
D11*
X183590571Y-71328791D03*
D10*
X184090571Y-75078791D03*
D13*
X175315571Y-69128791D03*
D14*
X178590571Y-80978791D03*
X173590571Y-78878791D03*
D13*
X186865571Y-71328791D03*
%TD*%
D10*
%TO.C,SW16*%
X100635693Y-130986291D03*
D11*
X106135693Y-125036291D03*
D12*
X106135693Y-130986291D03*
D11*
X111135693Y-127236291D03*
D10*
X111635693Y-130986291D03*
D13*
X102860693Y-125036291D03*
D14*
X106135693Y-136886291D03*
X101135693Y-134786291D03*
D13*
X114410693Y-127236291D03*
%TD*%
D17*
%TO.C,U1*%
X142203131Y-120373141D03*
X135203131Y-120373141D03*
D18*
X132503131Y-118073141D03*
X133603131Y-122673141D03*
X137603131Y-122673141D03*
X140603131Y-122673141D03*
%TD*%
D10*
%TO.C,SW10*%
X111015693Y-92078791D03*
D11*
X116515693Y-86128791D03*
D12*
X116515693Y-92078791D03*
D11*
X121515693Y-88328791D03*
D10*
X122015693Y-92078791D03*
D13*
X113240693Y-86128791D03*
D14*
X116515693Y-97978791D03*
X111515693Y-95878791D03*
D13*
X124790693Y-88328791D03*
%TD*%
D10*
%TO.C,SW33*%
X164303387Y-134447735D03*
D11*
X168076006Y-127276971D03*
D12*
X169615979Y-133024230D03*
D11*
X173475037Y-128107913D03*
D10*
X174928571Y-131600725D03*
D19*
X164912599Y-128124604D03*
D14*
X171143011Y-138723192D03*
X165769862Y-137988843D03*
D19*
X176638444Y-127260281D03*
%TD*%
D20*
%TO.C,REF\u002A\u002A*%
X52377254Y-98464466D03*
X89574132Y-90218116D03*
%TD*%
D10*
%TO.C,SW12*%
X57015693Y-107173791D03*
D11*
X62515693Y-101223791D03*
D12*
X62515693Y-107173791D03*
D11*
X67515693Y-103423791D03*
D10*
X68015693Y-107173791D03*
D13*
X59240693Y-101223791D03*
D14*
X62515693Y-113073791D03*
X57515693Y-110973791D03*
D13*
X70790693Y-103423791D03*
%TD*%
D10*
%TO.C,SW13*%
X75015693Y-97648791D03*
D11*
X80515693Y-91698791D03*
D12*
X80515693Y-97648791D03*
D11*
X85515693Y-93898791D03*
D10*
X86015693Y-97648791D03*
D13*
X77240693Y-91698791D03*
D14*
X80515693Y-103548791D03*
X75515693Y-101448791D03*
D13*
X88790693Y-93898791D03*
%TD*%
D21*
%TO.C,REF\u002A\u002A*%
X32673193Y-90498791D03*
%TD*%
D22*
%TO.C,mouse-bite-3mm-slot*%
X146053132Y-90652641D03*
X149053132Y-90652641D03*
X149053132Y-89902641D03*
X146053132Y-89890641D03*
X146053132Y-89140641D03*
X149053132Y-89140641D03*
X146053132Y-88390641D03*
X149053132Y-88390641D03*
X146053132Y-87616641D03*
X149053132Y-87616641D03*
%TD*%
D10*
%TO.C,SW30*%
X209090571Y-97648791D03*
D11*
X214590571Y-91698791D03*
D12*
X214590571Y-97648791D03*
D11*
X219590571Y-93898791D03*
D10*
X220090571Y-97648791D03*
D13*
X211315571Y-91698791D03*
D14*
X214590571Y-103548791D03*
X209590571Y-101448791D03*
D13*
X222865571Y-93898791D03*
%TD*%
D10*
%TO.C,SW2*%
X57015693Y-73173791D03*
D11*
X62515693Y-67223791D03*
D12*
X62515693Y-73173791D03*
D11*
X67515693Y-69423791D03*
D10*
X68015693Y-73173791D03*
D13*
X59240693Y-67223791D03*
D14*
X62515693Y-79073791D03*
X57515693Y-76973791D03*
D13*
X70790693Y-69423791D03*
%TD*%
D16*
%TO.C,J1*%
X84615693Y-111936291D03*
X76415693Y-111936291D03*
X82515693Y-111936291D03*
X80515693Y-111936291D03*
X78515693Y-111936291D03*
%TD*%
D21*
%TO.C,REF\u002A\u002A*%
X49265693Y-113358791D03*
%TD*%
%TO.C,REF\u002A\u002A*%
X94585693Y-60971291D03*
%TD*%
D10*
%TO.C,SW4*%
X93015693Y-73173791D03*
D11*
X98515693Y-67223791D03*
D12*
X98515693Y-73173791D03*
D11*
X103515693Y-69423791D03*
D10*
X104015693Y-73173791D03*
D13*
X95240693Y-67223791D03*
D14*
X98515693Y-79073791D03*
X93515693Y-76973791D03*
D13*
X106790693Y-69423791D03*
%TD*%
D23*
%TO.C,Pro_Micro_nRF1*%
X128330989Y-87372791D03*
X128330989Y-89912791D03*
X128330989Y-92452791D03*
X128330989Y-94992791D03*
X128330989Y-97532791D03*
X128330989Y-100072791D03*
X128330989Y-102612791D03*
X128330989Y-105152791D03*
X128330989Y-107692791D03*
X128330989Y-110232791D03*
X128330989Y-112772791D03*
X128330989Y-115312791D03*
X143550989Y-115312791D03*
X143550989Y-112772791D03*
X143550989Y-110232791D03*
X143550989Y-107692791D03*
X143550989Y-105152791D03*
X143550989Y-102612791D03*
X143550989Y-100072791D03*
X143550989Y-97532791D03*
X143550989Y-94992791D03*
X143550989Y-92452791D03*
X143550989Y-89912791D03*
X143550989Y-87372791D03*
X128310989Y-84832791D03*
X143550989Y-84832791D03*
%TD*%
D10*
%TO.C,SW24*%
X191090571Y-90173791D03*
D11*
X196590571Y-84223791D03*
D12*
X196590571Y-90173791D03*
D11*
X201590571Y-86423791D03*
D10*
X202090571Y-90173791D03*
D13*
X193315571Y-84223791D03*
D14*
X196590571Y-96073791D03*
X191590571Y-93973791D03*
D13*
X204865571Y-86423791D03*
%TD*%
D10*
%TO.C,SW11*%
X30965693Y-120508791D03*
D11*
X36465693Y-114558791D03*
D12*
X36465693Y-120508791D03*
D11*
X41465693Y-116758791D03*
D10*
X41965693Y-120508791D03*
D13*
X33190693Y-114558791D03*
D14*
X36465693Y-126408791D03*
X31465693Y-124308791D03*
D13*
X44740693Y-116758791D03*
%TD*%
D10*
%TO.C,SW31*%
X227090571Y-107173791D03*
D11*
X232590571Y-101223791D03*
D12*
X232590571Y-107173791D03*
D11*
X237590571Y-103423791D03*
D10*
X238090571Y-107173791D03*
D13*
X229315571Y-101223791D03*
D14*
X232590571Y-113073791D03*
X227590571Y-110973791D03*
D13*
X240865571Y-103423791D03*
%TD*%
D10*
%TO.C,SW26*%
X227090571Y-90173791D03*
D11*
X232590571Y-84223791D03*
D12*
X232590571Y-90173791D03*
D11*
X237590571Y-86423791D03*
D10*
X238090571Y-90173791D03*
D13*
X229315571Y-84223791D03*
D14*
X232590571Y-96073791D03*
X227590571Y-93973791D03*
D13*
X240865571Y-86423791D03*
%TD*%
D10*
%TO.C,SW25*%
X209090571Y-80648791D03*
D11*
X214590571Y-74698791D03*
D12*
X214590571Y-80648791D03*
D11*
X219590571Y-76898791D03*
D10*
X220090571Y-80648791D03*
D13*
X211315571Y-74698791D03*
D14*
X214590571Y-86548791D03*
X209590571Y-84448791D03*
D13*
X222865571Y-76898791D03*
%TD*%
D10*
%TO.C,SW1*%
X39015693Y-86508791D03*
D11*
X44515693Y-80558791D03*
D12*
X44515693Y-86508791D03*
D11*
X49515693Y-82758791D03*
D10*
X50015693Y-86508791D03*
D13*
X41240693Y-80558791D03*
D14*
X44515693Y-92408791D03*
X39515693Y-90308791D03*
D13*
X52790693Y-82758791D03*
%TD*%
D24*
%TO.C,BT1*%
X104360693Y-120073791D03*
X104360693Y-118073791D03*
%TD*%
D17*
%TO.C,U2*%
X152903132Y-120373140D03*
X159903132Y-120373140D03*
D18*
X162603132Y-122673140D03*
X161503132Y-118073140D03*
X157503132Y-118073140D03*
X154503132Y-118073140D03*
%TD*%
D10*
%TO.C,SW27*%
X253140571Y-103508791D03*
D11*
X258640571Y-97558791D03*
D12*
X258640571Y-103508791D03*
D11*
X263640571Y-99758791D03*
D10*
X264140571Y-103508791D03*
D13*
X255365571Y-97558791D03*
D14*
X258640571Y-109408791D03*
X253640571Y-107308791D03*
D13*
X266915571Y-99758791D03*
%TD*%
D21*
%TO.C,REF\u002A\u002A*%
X140305693Y-129551291D03*
%TD*%
D10*
%TO.C,SW14*%
X93015693Y-107173791D03*
D11*
X98515693Y-101223791D03*
D12*
X98515693Y-107173791D03*
D11*
X103515693Y-103423791D03*
D10*
X104015693Y-107173791D03*
D13*
X95240693Y-101223791D03*
D14*
X98515693Y-113073791D03*
X93515693Y-110973791D03*
D13*
X106790693Y-103423791D03*
%TD*%
D10*
%TO.C,SW6*%
X30965693Y-103508791D03*
D11*
X36465693Y-97558791D03*
D12*
X36465693Y-103508791D03*
D11*
X41465693Y-99758791D03*
D10*
X41965693Y-103508791D03*
D13*
X33190693Y-97558791D03*
D14*
X36465693Y-109408791D03*
X31465693Y-107308791D03*
D13*
X44740693Y-99758791D03*
%TD*%
D10*
%TO.C,SW29*%
X191090571Y-107173791D03*
D11*
X196590571Y-101223791D03*
D12*
X196590571Y-107173791D03*
D11*
X201590571Y-103423791D03*
D10*
X202090571Y-107173791D03*
D13*
X193315571Y-101223791D03*
D14*
X196590571Y-113073791D03*
X191590571Y-110973791D03*
D13*
X204865571Y-103423791D03*
%TD*%
D24*
%TO.C,BT2*%
X190745571Y-118073791D03*
X190745571Y-120073791D03*
%TD*%
D10*
%TO.C,SW15*%
X111015693Y-109078791D03*
D11*
X116515693Y-103128791D03*
D12*
X116515693Y-109078791D03*
D11*
X121515693Y-105328791D03*
D10*
X122015693Y-109078791D03*
D13*
X113240693Y-103128791D03*
D14*
X116515693Y-114978791D03*
X111515693Y-112878791D03*
D13*
X124790693Y-105328791D03*
%TD*%
D10*
%TO.C,SW8*%
X75015693Y-80648791D03*
D11*
X80515693Y-74698791D03*
D12*
X80515693Y-80648791D03*
D11*
X85515693Y-76898791D03*
D10*
X86015693Y-80648791D03*
D13*
X77240693Y-74698791D03*
D14*
X80515693Y-86548791D03*
X75515693Y-84448791D03*
D13*
X88790693Y-76898791D03*
%TD*%
D10*
%TO.C,SW34*%
X183470571Y-130986291D03*
D11*
X188970571Y-125036291D03*
D12*
X188970571Y-130986291D03*
D11*
X193970571Y-127236291D03*
D10*
X194470571Y-130986291D03*
D13*
X185695571Y-125036291D03*
D14*
X188970571Y-136886291D03*
X183970571Y-134786291D03*
D13*
X197245571Y-127236291D03*
%TD*%
D10*
%TO.C,SW32*%
X253140571Y-120508791D03*
D11*
X258640571Y-114558791D03*
D12*
X258640571Y-120508791D03*
D11*
X263640571Y-116758791D03*
D10*
X264140571Y-120508791D03*
D13*
X255365571Y-114558791D03*
D14*
X258640571Y-126408791D03*
X253640571Y-124308791D03*
D13*
X266915571Y-116758791D03*
%TD*%
D10*
%TO.C,SW5*%
X111015693Y-75078791D03*
D11*
X116515693Y-69128791D03*
D12*
X116515693Y-75078791D03*
D11*
X121515693Y-71328791D03*
D10*
X122015693Y-75078791D03*
D13*
X113240693Y-69128791D03*
D14*
X116515693Y-80978791D03*
X111515693Y-78878791D03*
D13*
X124790693Y-71328791D03*
%TD*%
D21*
%TO.C,REF\u002A\u002A*%
X67915693Y-60971291D03*
%TD*%
D10*
%TO.C,SW28*%
X173090571Y-109078791D03*
D11*
X178590571Y-103128791D03*
D12*
X178590571Y-109078791D03*
D11*
X183590571Y-105328791D03*
D10*
X184090571Y-109078791D03*
D13*
X175315571Y-103128791D03*
D14*
X178590571Y-114978791D03*
X173590571Y-112878791D03*
D13*
X186865571Y-105328791D03*
%TD*%
D22*
%TO.C,mouse-bite-3mm-slot*%
X146053132Y-127942641D03*
X149053132Y-127942641D03*
X149053132Y-127192641D03*
X146053132Y-127180641D03*
X146053132Y-126430641D03*
X149053132Y-126430641D03*
X146053132Y-125680641D03*
X149053132Y-125680641D03*
X146053132Y-124906641D03*
X149053132Y-124906641D03*
%TD*%
D23*
%TO.C,Pro_Micro_nRF2*%
X151558075Y-87372791D03*
X151558075Y-89912791D03*
X151558075Y-92452791D03*
X151558075Y-94992791D03*
X151558075Y-97532791D03*
X151558075Y-100072791D03*
X151558075Y-102612791D03*
X151558075Y-105152791D03*
X151558075Y-107692791D03*
X151558075Y-110232791D03*
X151558075Y-112772791D03*
X151558075Y-115312791D03*
X166778075Y-115312791D03*
X166778075Y-112772791D03*
X166778075Y-110232791D03*
X166778075Y-107692791D03*
X166778075Y-105152791D03*
X166778075Y-102612791D03*
X166778075Y-100072791D03*
X166778075Y-97532791D03*
X166778075Y-94992791D03*
X166778075Y-92452791D03*
X166778075Y-89912791D03*
X166778075Y-87372791D03*
X151538075Y-84832791D03*
X166778075Y-84832791D03*
%TD*%
D10*
%TO.C,SW19*%
X191090571Y-73173791D03*
D11*
X196590571Y-67223791D03*
D12*
X196590571Y-73173791D03*
D11*
X201590571Y-69423791D03*
D10*
X202090571Y-73173791D03*
D13*
X193315571Y-67223791D03*
D14*
X196590571Y-79073791D03*
X191590571Y-76973791D03*
D13*
X204865571Y-69423791D03*
%TD*%
D10*
%TO.C,SW3*%
X75015693Y-63648791D03*
D11*
X80515693Y-57698791D03*
D12*
X80515693Y-63648791D03*
D11*
X85515693Y-59898791D03*
D10*
X86015693Y-63648791D03*
D13*
X77240693Y-57698791D03*
D14*
X80515693Y-69548791D03*
X75515693Y-67448791D03*
D13*
X88790693Y-59898791D03*
%TD*%
D21*
%TO.C,REF\u002A\u002A*%
X227190571Y-60971291D03*
%TD*%
%TO.C,REF\u002A\u002A*%
X200520571Y-60971291D03*
%TD*%
%TO.C,REF\u002A\u002A*%
X262433071Y-90498791D03*
%TD*%
%TO.C,REF\u002A\u002A*%
X154800571Y-129551291D03*
%TD*%
D20*
%TO.C,REF\u002A\u002A*%
X242729010Y-98464466D03*
X205532132Y-90218116D03*
%TD*%
D21*
%TO.C,REF\u002A\u002A*%
X245840571Y-113358791D03*
%TD*%
M02*
