%TF.GenerationSoftware,KiCad,Pcbnew,7.0.9*%
%TF.CreationDate,2024-04-08T09:31:46+08:00*%
%TF.ProjectId,kai_simple_v3,6b61695f-7369-46d7-906c-655f76332e6b,rev?*%
%TF.SameCoordinates,Original*%
%TF.FileFunction,Soldermask,Top*%
%TF.FilePolarity,Negative*%
%FSLAX46Y46*%
G04 Gerber Fmt 4.6, Leading zero omitted, Abs format (unit mm)*
G04 Created by KiCad (PCBNEW 7.0.9) date 2024-04-08 09:31:46*
%MOMM*%
%LPD*%
G01*
G04 APERTURE LIST*
%ADD10C,0.150000*%
%ADD11C,1.701800*%
%ADD12C,3.000000*%
%ADD13C,5.050000*%
%ADD14C,2.032000*%
%ADD15C,1.500000*%
%ADD16C,0.800000*%
%ADD17O,2.000000X1.600000*%
%ADD18C,4.000000*%
%ADD19C,3.200000*%
%ADD20C,0.500000*%
%ADD21C,1.524000*%
%ADD22O,1.750000X1.200000*%
G04 APERTURE END LIST*
D10*
G36*
X51070697Y-104667499D02*
G01*
X51074513Y-104688107D01*
X51062790Y-105712950D01*
X51062790Y-108798225D01*
X51063400Y-108840418D01*
X51065881Y-108886805D01*
X51070270Y-108926132D01*
X51079619Y-108969329D01*
X51097136Y-109004534D01*
X51101868Y-109009251D01*
X51136942Y-109028163D01*
X51177242Y-109038543D01*
X51220364Y-109042338D01*
X51230829Y-109042468D01*
X51275006Y-109041491D01*
X51315703Y-109038560D01*
X51361680Y-109032149D01*
X51402218Y-109022684D01*
X51443686Y-109007297D01*
X51482168Y-108983789D01*
X51486795Y-108979942D01*
X51510580Y-108937176D01*
X51523065Y-108895373D01*
X51534211Y-108841463D01*
X51540897Y-108798797D01*
X51546988Y-108750750D01*
X51552483Y-108697321D01*
X51557383Y-108638512D01*
X51561688Y-108574322D01*
X51565398Y-108504751D01*
X51568512Y-108429799D01*
X51569845Y-108390305D01*
X51571030Y-108349466D01*
X51572066Y-108307282D01*
X51572954Y-108263752D01*
X51573692Y-108218877D01*
X51574282Y-108172657D01*
X51574723Y-108125092D01*
X51606708Y-108152887D01*
X51639940Y-108177204D01*
X51677691Y-108201155D01*
X51714430Y-108221812D01*
X51751508Y-108238027D01*
X51783794Y-108262069D01*
X51785748Y-108265776D01*
X51793502Y-108306027D01*
X51794541Y-108344911D01*
X51792629Y-108397511D01*
X51790557Y-108448088D01*
X51788324Y-108496643D01*
X51785932Y-108543175D01*
X51783379Y-108587684D01*
X51780665Y-108630171D01*
X51777791Y-108670635D01*
X51773180Y-108727539D01*
X51768209Y-108779892D01*
X51762876Y-108827694D01*
X51757183Y-108870945D01*
X51751130Y-108909645D01*
X51744716Y-108943794D01*
X51734249Y-108988244D01*
X51721780Y-109028783D01*
X51707306Y-109065410D01*
X51687294Y-109104199D01*
X51664396Y-109137355D01*
X51643111Y-109160682D01*
X51611069Y-109188388D01*
X51574051Y-109212400D01*
X51532056Y-109232718D01*
X51485086Y-109249342D01*
X51446591Y-109259385D01*
X51405298Y-109267351D01*
X51361206Y-109273238D01*
X51314314Y-109277048D01*
X51264623Y-109278780D01*
X51247437Y-109278895D01*
X51202237Y-109278285D01*
X51159937Y-109276453D01*
X51120538Y-109273400D01*
X51075367Y-109267866D01*
X51034728Y-109260424D01*
X50991944Y-109248975D01*
X50967046Y-109239816D01*
X50930410Y-109219224D01*
X50898658Y-109192128D01*
X50871792Y-109158529D01*
X50849810Y-109118428D01*
X50832713Y-109071823D01*
X50823096Y-109032602D01*
X50816226Y-108989723D01*
X50812105Y-108943186D01*
X50810731Y-108892991D01*
X50810731Y-104902063D01*
X49945134Y-104902063D01*
X49945134Y-105365148D01*
X49945062Y-105458713D01*
X49944844Y-105550975D01*
X49944482Y-105641933D01*
X49943974Y-105731588D01*
X49943322Y-105819940D01*
X49942524Y-105906989D01*
X49941581Y-105992735D01*
X49940494Y-106077177D01*
X49939261Y-106160316D01*
X49937883Y-106242151D01*
X49936361Y-106322684D01*
X49934693Y-106401913D01*
X49932880Y-106479839D01*
X49930922Y-106556461D01*
X49928820Y-106631781D01*
X49926572Y-106705797D01*
X49924179Y-106778510D01*
X49921641Y-106849919D01*
X49918958Y-106920025D01*
X49916131Y-106988828D01*
X49913158Y-107056328D01*
X49910040Y-107122525D01*
X49906777Y-107187418D01*
X49903369Y-107251008D01*
X49899816Y-107313295D01*
X49896118Y-107374278D01*
X49892275Y-107433958D01*
X49888287Y-107492335D01*
X49884154Y-107549409D01*
X49879876Y-107605179D01*
X49875453Y-107659646D01*
X49870885Y-107712810D01*
X49864911Y-107771921D01*
X49857982Y-107830428D01*
X49850096Y-107888333D01*
X49841255Y-107945635D01*
X49831457Y-108002333D01*
X49820704Y-108058429D01*
X49808995Y-108113922D01*
X49796329Y-108168811D01*
X49782708Y-108223098D01*
X49768131Y-108276782D01*
X49752598Y-108329863D01*
X49736108Y-108382341D01*
X49718663Y-108434216D01*
X49700262Y-108485488D01*
X49680905Y-108536156D01*
X49660591Y-108586222D01*
X49639322Y-108635685D01*
X49617097Y-108684545D01*
X49593916Y-108732803D01*
X49569779Y-108780457D01*
X49544686Y-108827508D01*
X49518637Y-108873956D01*
X49491632Y-108919801D01*
X49463671Y-108965043D01*
X49434754Y-109009682D01*
X49404881Y-109053719D01*
X49374052Y-109097152D01*
X49342267Y-109139982D01*
X49309526Y-109182209D01*
X49275829Y-109223834D01*
X49241176Y-109264855D01*
X49205567Y-109305273D01*
X49176697Y-109333479D01*
X49156718Y-109341421D01*
X49119716Y-109324385D01*
X49103962Y-109311135D01*
X49071092Y-109281780D01*
X49038429Y-109255997D01*
X49005971Y-109233787D01*
X48968364Y-109212389D01*
X48931038Y-109195853D01*
X48975231Y-109153736D01*
X49017927Y-109110917D01*
X49059128Y-109067396D01*
X49098833Y-109023173D01*
X49137042Y-108978247D01*
X49173754Y-108932620D01*
X49208971Y-108886290D01*
X49242692Y-108839258D01*
X49274917Y-108791524D01*
X49305646Y-108743087D01*
X49334878Y-108693949D01*
X49362615Y-108644108D01*
X49388856Y-108593565D01*
X49413601Y-108542320D01*
X49436850Y-108490372D01*
X49458603Y-108437723D01*
X49475089Y-108394423D01*
X49490843Y-108350009D01*
X49505864Y-108304481D01*
X49520152Y-108257838D01*
X49533707Y-108210081D01*
X49546530Y-108161209D01*
X49558620Y-108111224D01*
X49569977Y-108060123D01*
X49580602Y-108007909D01*
X49590494Y-107954580D01*
X49599653Y-107900137D01*
X49608079Y-107844579D01*
X49615773Y-107787907D01*
X49622734Y-107730121D01*
X49628962Y-107671220D01*
X49634457Y-107611205D01*
X49638184Y-107560964D01*
X49641792Y-107509039D01*
X49645282Y-107455429D01*
X49648654Y-107400133D01*
X49651907Y-107343153D01*
X49655043Y-107284488D01*
X49658059Y-107224138D01*
X49660958Y-107162103D01*
X49663738Y-107098384D01*
X49666400Y-107032979D01*
X49668943Y-106965890D01*
X49671369Y-106897115D01*
X49673676Y-106826656D01*
X49675864Y-106754512D01*
X49677935Y-106680683D01*
X49679887Y-106605169D01*
X49681720Y-106527970D01*
X49683436Y-106449086D01*
X49685033Y-106368517D01*
X49686512Y-106286264D01*
X49687872Y-106202325D01*
X49689114Y-106116702D01*
X49690238Y-106029394D01*
X49691244Y-105940401D01*
X49692131Y-105849723D01*
X49692900Y-105757360D01*
X49693551Y-105663312D01*
X49694083Y-105567579D01*
X49694497Y-105470162D01*
X49694793Y-105371059D01*
X49694971Y-105270272D01*
X49695030Y-105167800D01*
X49684283Y-104688107D01*
X49702292Y-104652844D01*
X49722385Y-104649028D01*
X50175700Y-104660751D01*
X50574304Y-104660751D01*
X51035434Y-104649028D01*
X51070697Y-104667499D01*
G37*
G36*
X48538948Y-107876697D02*
G01*
X48582671Y-107888421D01*
X48625502Y-107902342D01*
X48667439Y-107918463D01*
X48708483Y-107936781D01*
X48721966Y-107943375D01*
X48757091Y-107963800D01*
X48779607Y-107994178D01*
X48766175Y-108032989D01*
X48741506Y-108065497D01*
X48716690Y-108103038D01*
X48695166Y-108143521D01*
X48674186Y-108186702D01*
X48655410Y-108227430D01*
X48634863Y-108273653D01*
X48618291Y-108311926D01*
X48612545Y-108325371D01*
X48593174Y-108369701D01*
X48575115Y-108410856D01*
X48558369Y-108448836D01*
X48539283Y-108491845D01*
X48522248Y-108529894D01*
X48504514Y-108569003D01*
X48494332Y-108591107D01*
X48556354Y-108575453D01*
X48616148Y-108560241D01*
X48673713Y-108545472D01*
X48729049Y-108531146D01*
X48782157Y-108517262D01*
X48833036Y-108503821D01*
X48881686Y-108490823D01*
X48928107Y-108478267D01*
X48972300Y-108466154D01*
X49014264Y-108454484D01*
X49053999Y-108443256D01*
X49109423Y-108427245D01*
X49159833Y-108412230D01*
X49205227Y-108398211D01*
X49219245Y-108393759D01*
X49215057Y-108433055D01*
X49211531Y-108474760D01*
X49209170Y-108517590D01*
X49208498Y-108552028D01*
X49206189Y-108594039D01*
X49194588Y-108632477D01*
X49188958Y-108638979D01*
X49154688Y-108660579D01*
X49117640Y-108673173D01*
X49059785Y-108688691D01*
X49001624Y-108704104D01*
X48943159Y-108719412D01*
X48884388Y-108734615D01*
X48825311Y-108749713D01*
X48765930Y-108764707D01*
X48706243Y-108779595D01*
X48646251Y-108794378D01*
X48585953Y-108809057D01*
X48525351Y-108823630D01*
X48464443Y-108838099D01*
X48403229Y-108852462D01*
X48341711Y-108866721D01*
X48279887Y-108880875D01*
X48217757Y-108894923D01*
X48155323Y-108908867D01*
X48092583Y-108922706D01*
X48029538Y-108936440D01*
X47966187Y-108950069D01*
X47902531Y-108963593D01*
X47838570Y-108977012D01*
X47774304Y-108990326D01*
X47709732Y-109003535D01*
X47644855Y-109016639D01*
X47579673Y-109029639D01*
X47514185Y-109042533D01*
X47448392Y-109055322D01*
X47382294Y-109068007D01*
X47315891Y-109080586D01*
X47249182Y-109093061D01*
X47182168Y-109105430D01*
X47114848Y-109117695D01*
X47065420Y-109127892D01*
X47021670Y-109137479D01*
X46983598Y-109146454D01*
X46943995Y-109156816D01*
X46903456Y-109169719D01*
X46878421Y-109182175D01*
X46843544Y-109204314D01*
X46805900Y-109216336D01*
X46804171Y-109216369D01*
X46770581Y-109196393D01*
X46754346Y-109159705D01*
X46739955Y-109120504D01*
X46725357Y-109076906D01*
X46713035Y-109037217D01*
X46700570Y-108994474D01*
X46687962Y-108948679D01*
X46677773Y-108909844D01*
X46675211Y-108899830D01*
X46724182Y-108898991D01*
X46763955Y-108897259D01*
X46806339Y-108894583D01*
X46851333Y-108890962D01*
X46898938Y-108886397D01*
X46949152Y-108880887D01*
X47001978Y-108874433D01*
X47057413Y-108867034D01*
X47115459Y-108858691D01*
X47155606Y-108852604D01*
X47196914Y-108846097D01*
X47247789Y-108838327D01*
X47300763Y-108829916D01*
X47355836Y-108820864D01*
X47413008Y-108811170D01*
X47472279Y-108800836D01*
X47533648Y-108789860D01*
X47597117Y-108778243D01*
X47662685Y-108765985D01*
X47730352Y-108753086D01*
X47800117Y-108739546D01*
X47871982Y-108725365D01*
X47945946Y-108710542D01*
X48022008Y-108695078D01*
X48060827Y-108687106D01*
X48100170Y-108678974D01*
X48140038Y-108670681D01*
X48180430Y-108662228D01*
X48221348Y-108653614D01*
X48262790Y-108644841D01*
X48278781Y-108607861D01*
X48294514Y-108570194D01*
X48309991Y-108531840D01*
X48325209Y-108492800D01*
X48340170Y-108453072D01*
X48354873Y-108412657D01*
X48369319Y-108371556D01*
X48383507Y-108329767D01*
X48397437Y-108287292D01*
X48411110Y-108244130D01*
X48420082Y-108214973D01*
X48433210Y-108170643D01*
X48445239Y-108126557D01*
X48456169Y-108082716D01*
X48466000Y-108039118D01*
X48474731Y-107995765D01*
X48482364Y-107952657D01*
X48488897Y-107909792D01*
X48494332Y-107867172D01*
X48538948Y-107876697D01*
G37*
G36*
X47570056Y-107935891D02*
G01*
X47571094Y-107937513D01*
X47591997Y-107978286D01*
X47612573Y-108021102D01*
X47632823Y-108065961D01*
X47652747Y-108112865D01*
X47672345Y-108161811D01*
X47691616Y-108212802D01*
X47710561Y-108265836D01*
X47729180Y-108320914D01*
X47741411Y-108358767D01*
X47753497Y-108397530D01*
X47765439Y-108437200D01*
X47777235Y-108477779D01*
X47782120Y-108501226D01*
X47758558Y-108534164D01*
X47727409Y-108550075D01*
X47642413Y-108579384D01*
X47603578Y-108593672D01*
X47568163Y-108602831D01*
X47544236Y-108569824D01*
X47543739Y-108567660D01*
X47530801Y-108513083D01*
X47516902Y-108459262D01*
X47502042Y-108406196D01*
X47486219Y-108353886D01*
X47469435Y-108302332D01*
X47451690Y-108251533D01*
X47432982Y-108201490D01*
X47413313Y-108152203D01*
X47392682Y-108103671D01*
X47371090Y-108055895D01*
X47356160Y-108024464D01*
X47348344Y-108001017D01*
X47375693Y-107971985D01*
X47411848Y-107955099D01*
X47490982Y-107925790D01*
X47528718Y-107912051D01*
X47537877Y-107911135D01*
X47570056Y-107935891D01*
G37*
G36*
X49080702Y-106698462D02*
G01*
X49084423Y-106722161D01*
X49073676Y-107075825D01*
X49073676Y-107334722D01*
X49084423Y-107688386D01*
X49066413Y-107723648D01*
X49046321Y-107727465D01*
X48433760Y-107715741D01*
X47738156Y-107715741D01*
X47131457Y-107727465D01*
X47096194Y-107708994D01*
X47092378Y-107688386D01*
X47104102Y-107334722D01*
X47104102Y-107075825D01*
X47098370Y-106902901D01*
X47339552Y-106902901D01*
X47339552Y-107507646D01*
X48832364Y-107507646D01*
X48832364Y-106902901D01*
X47339552Y-106902901D01*
X47098370Y-106902901D01*
X47092378Y-106722161D01*
X47106155Y-106684637D01*
X47131457Y-106677220D01*
X47738156Y-106688944D01*
X48433760Y-106688944D01*
X49046321Y-106677220D01*
X49080702Y-106698462D01*
G37*
G36*
X49422372Y-106066757D02*
G01*
X49425386Y-106085176D01*
X49425386Y-106250284D01*
X49407376Y-106285546D01*
X49387284Y-106289363D01*
X48661394Y-106277639D01*
X47480236Y-106277639D01*
X46754346Y-106289363D01*
X46718162Y-106272533D01*
X46713313Y-106250284D01*
X46713313Y-106085176D01*
X46732707Y-106050795D01*
X46754346Y-106047074D01*
X47480236Y-106057821D01*
X48661394Y-106057821D01*
X49387284Y-106047074D01*
X49422372Y-106066757D01*
G37*
G36*
X47970004Y-104404724D02*
G01*
X48013223Y-104408720D01*
X48055799Y-104413256D01*
X48104337Y-104418890D01*
X48147461Y-104424187D01*
X48194402Y-104430186D01*
X48233620Y-104442949D01*
X48254974Y-104476104D01*
X48245599Y-104515208D01*
X48231326Y-104553410D01*
X48221757Y-104576732D01*
X48211098Y-104617932D01*
X48205087Y-104663789D01*
X48201240Y-104710333D01*
X48198916Y-104750991D01*
X48197073Y-104796577D01*
X48195711Y-104847092D01*
X48194829Y-104902537D01*
X48194508Y-104942237D01*
X48194402Y-104984129D01*
X48194402Y-105443306D01*
X49005288Y-105443306D01*
X49005288Y-105094527D01*
X49004996Y-105047357D01*
X49004120Y-105001837D01*
X49002660Y-104957964D01*
X49000617Y-104915741D01*
X48997989Y-104875166D01*
X48993578Y-104823631D01*
X48988128Y-104775027D01*
X48981640Y-104729353D01*
X48974114Y-104686611D01*
X48972071Y-104676383D01*
X49015748Y-104679441D01*
X49058853Y-104683119D01*
X49101386Y-104687417D01*
X49143346Y-104692335D01*
X49184734Y-104697873D01*
X49225549Y-104704032D01*
X49241715Y-104706669D01*
X49279115Y-104720534D01*
X49296425Y-104756495D01*
X49288504Y-104795215D01*
X49273955Y-104824883D01*
X49259850Y-104866282D01*
X49251916Y-104908070D01*
X49247036Y-104949925D01*
X49243730Y-104998173D01*
X49242219Y-105041373D01*
X49241715Y-105088665D01*
X49241715Y-105256704D01*
X49252462Y-105625022D01*
X49232778Y-105660110D01*
X49214360Y-105663124D01*
X48532434Y-105652377D01*
X47625804Y-105652377D01*
X46943878Y-105663124D01*
X46908790Y-105643441D01*
X46905776Y-105625022D01*
X46916523Y-105256704D01*
X46916523Y-105088665D01*
X46916240Y-105044037D01*
X46915390Y-105000646D01*
X46913973Y-104958491D01*
X46911989Y-104917573D01*
X46909439Y-104877891D01*
X46905157Y-104826905D01*
X46899868Y-104778118D01*
X46893571Y-104731528D01*
X46886267Y-104687137D01*
X46884283Y-104676383D01*
X46924845Y-104679441D01*
X46965933Y-104683119D01*
X47007545Y-104687417D01*
X47049681Y-104692335D01*
X47092343Y-104697873D01*
X47135529Y-104704032D01*
X47152950Y-104706669D01*
X47191647Y-104716973D01*
X47216391Y-104748460D01*
X47216453Y-104750633D01*
X47206251Y-104790500D01*
X47190719Y-104828892D01*
X47180305Y-104852238D01*
X47168337Y-104891927D01*
X47160670Y-104937274D01*
X47156183Y-104984032D01*
X47153912Y-105028558D01*
X47153057Y-105067820D01*
X47152950Y-105088665D01*
X47152950Y-105443306D01*
X47957975Y-105443306D01*
X47957975Y-104984129D01*
X47957849Y-104933426D01*
X47957471Y-104884631D01*
X47956841Y-104837744D01*
X47955960Y-104792765D01*
X47954826Y-104749694D01*
X47953441Y-104708531D01*
X47951804Y-104669277D01*
X47948876Y-104613973D01*
X47945381Y-104562963D01*
X47941319Y-104516246D01*
X47936691Y-104473822D01*
X47929639Y-104423935D01*
X47925734Y-104401854D01*
X47970004Y-104404724D01*
G37*
G36*
X247750697Y-104687499D02*
G01*
X247754513Y-104708107D01*
X247742790Y-105732950D01*
X247742790Y-108818225D01*
X247743400Y-108860418D01*
X247745881Y-108906805D01*
X247750270Y-108946132D01*
X247759619Y-108989329D01*
X247777136Y-109024534D01*
X247781868Y-109029251D01*
X247816942Y-109048163D01*
X247857242Y-109058543D01*
X247900364Y-109062338D01*
X247910829Y-109062468D01*
X247955006Y-109061491D01*
X247995703Y-109058560D01*
X248041680Y-109052149D01*
X248082218Y-109042684D01*
X248123686Y-109027297D01*
X248162168Y-109003789D01*
X248166795Y-108999942D01*
X248190580Y-108957176D01*
X248203065Y-108915373D01*
X248214211Y-108861463D01*
X248220897Y-108818797D01*
X248226988Y-108770750D01*
X248232483Y-108717321D01*
X248237383Y-108658512D01*
X248241688Y-108594322D01*
X248245398Y-108524751D01*
X248248512Y-108449799D01*
X248249845Y-108410305D01*
X248251030Y-108369466D01*
X248252066Y-108327282D01*
X248252954Y-108283752D01*
X248253692Y-108238877D01*
X248254282Y-108192657D01*
X248254723Y-108145092D01*
X248286708Y-108172887D01*
X248319940Y-108197204D01*
X248357691Y-108221155D01*
X248394430Y-108241812D01*
X248431508Y-108258027D01*
X248463794Y-108282069D01*
X248465748Y-108285776D01*
X248473502Y-108326027D01*
X248474541Y-108364911D01*
X248472629Y-108417511D01*
X248470557Y-108468088D01*
X248468324Y-108516643D01*
X248465932Y-108563175D01*
X248463379Y-108607684D01*
X248460665Y-108650171D01*
X248457791Y-108690635D01*
X248453180Y-108747539D01*
X248448209Y-108799892D01*
X248442876Y-108847694D01*
X248437183Y-108890945D01*
X248431130Y-108929645D01*
X248424716Y-108963794D01*
X248414249Y-109008244D01*
X248401780Y-109048783D01*
X248387306Y-109085410D01*
X248367294Y-109124199D01*
X248344396Y-109157355D01*
X248323111Y-109180682D01*
X248291069Y-109208388D01*
X248254051Y-109232400D01*
X248212056Y-109252718D01*
X248165086Y-109269342D01*
X248126591Y-109279385D01*
X248085298Y-109287351D01*
X248041206Y-109293238D01*
X247994314Y-109297048D01*
X247944623Y-109298780D01*
X247927437Y-109298895D01*
X247882237Y-109298285D01*
X247839937Y-109296453D01*
X247800538Y-109293400D01*
X247755367Y-109287866D01*
X247714728Y-109280424D01*
X247671944Y-109268975D01*
X247647046Y-109259816D01*
X247610410Y-109239224D01*
X247578658Y-109212128D01*
X247551792Y-109178529D01*
X247529810Y-109138428D01*
X247512713Y-109091823D01*
X247503096Y-109052602D01*
X247496226Y-109009723D01*
X247492105Y-108963186D01*
X247490731Y-108912991D01*
X247490731Y-104922063D01*
X246625134Y-104922063D01*
X246625134Y-105385148D01*
X246625062Y-105478713D01*
X246624844Y-105570975D01*
X246624482Y-105661933D01*
X246623974Y-105751588D01*
X246623322Y-105839940D01*
X246622524Y-105926989D01*
X246621581Y-106012735D01*
X246620494Y-106097177D01*
X246619261Y-106180316D01*
X246617883Y-106262151D01*
X246616361Y-106342684D01*
X246614693Y-106421913D01*
X246612880Y-106499839D01*
X246610922Y-106576461D01*
X246608820Y-106651781D01*
X246606572Y-106725797D01*
X246604179Y-106798510D01*
X246601641Y-106869919D01*
X246598958Y-106940025D01*
X246596131Y-107008828D01*
X246593158Y-107076328D01*
X246590040Y-107142525D01*
X246586777Y-107207418D01*
X246583369Y-107271008D01*
X246579816Y-107333295D01*
X246576118Y-107394278D01*
X246572275Y-107453958D01*
X246568287Y-107512335D01*
X246564154Y-107569409D01*
X246559876Y-107625179D01*
X246555453Y-107679646D01*
X246550885Y-107732810D01*
X246544911Y-107791921D01*
X246537982Y-107850428D01*
X246530096Y-107908333D01*
X246521255Y-107965635D01*
X246511457Y-108022333D01*
X246500704Y-108078429D01*
X246488995Y-108133922D01*
X246476329Y-108188811D01*
X246462708Y-108243098D01*
X246448131Y-108296782D01*
X246432598Y-108349863D01*
X246416108Y-108402341D01*
X246398663Y-108454216D01*
X246380262Y-108505488D01*
X246360905Y-108556156D01*
X246340591Y-108606222D01*
X246319322Y-108655685D01*
X246297097Y-108704545D01*
X246273916Y-108752803D01*
X246249779Y-108800457D01*
X246224686Y-108847508D01*
X246198637Y-108893956D01*
X246171632Y-108939801D01*
X246143671Y-108985043D01*
X246114754Y-109029682D01*
X246084881Y-109073719D01*
X246054052Y-109117152D01*
X246022267Y-109159982D01*
X245989526Y-109202209D01*
X245955829Y-109243834D01*
X245921176Y-109284855D01*
X245885567Y-109325273D01*
X245856697Y-109353479D01*
X245836718Y-109361421D01*
X245799716Y-109344385D01*
X245783962Y-109331135D01*
X245751092Y-109301780D01*
X245718429Y-109275997D01*
X245685971Y-109253787D01*
X245648364Y-109232389D01*
X245611038Y-109215853D01*
X245655231Y-109173736D01*
X245697927Y-109130917D01*
X245739128Y-109087396D01*
X245778833Y-109043173D01*
X245817042Y-108998247D01*
X245853754Y-108952620D01*
X245888971Y-108906290D01*
X245922692Y-108859258D01*
X245954917Y-108811524D01*
X245985646Y-108763087D01*
X246014878Y-108713949D01*
X246042615Y-108664108D01*
X246068856Y-108613565D01*
X246093601Y-108562320D01*
X246116850Y-108510372D01*
X246138603Y-108457723D01*
X246155089Y-108414423D01*
X246170843Y-108370009D01*
X246185864Y-108324481D01*
X246200152Y-108277838D01*
X246213707Y-108230081D01*
X246226530Y-108181209D01*
X246238620Y-108131224D01*
X246249977Y-108080123D01*
X246260602Y-108027909D01*
X246270494Y-107974580D01*
X246279653Y-107920137D01*
X246288079Y-107864579D01*
X246295773Y-107807907D01*
X246302734Y-107750121D01*
X246308962Y-107691220D01*
X246314457Y-107631205D01*
X246318184Y-107580964D01*
X246321792Y-107529039D01*
X246325282Y-107475429D01*
X246328654Y-107420133D01*
X246331907Y-107363153D01*
X246335043Y-107304488D01*
X246338059Y-107244138D01*
X246340958Y-107182103D01*
X246343738Y-107118384D01*
X246346400Y-107052979D01*
X246348943Y-106985890D01*
X246351369Y-106917115D01*
X246353676Y-106846656D01*
X246355864Y-106774512D01*
X246357935Y-106700683D01*
X246359887Y-106625169D01*
X246361720Y-106547970D01*
X246363436Y-106469086D01*
X246365033Y-106388517D01*
X246366512Y-106306264D01*
X246367872Y-106222325D01*
X246369114Y-106136702D01*
X246370238Y-106049394D01*
X246371244Y-105960401D01*
X246372131Y-105869723D01*
X246372900Y-105777360D01*
X246373551Y-105683312D01*
X246374083Y-105587579D01*
X246374497Y-105490162D01*
X246374793Y-105391059D01*
X246374971Y-105290272D01*
X246375030Y-105187800D01*
X246364283Y-104708107D01*
X246382292Y-104672844D01*
X246402385Y-104669028D01*
X246855700Y-104680751D01*
X247254304Y-104680751D01*
X247715434Y-104669028D01*
X247750697Y-104687499D01*
G37*
G36*
X245218948Y-107896697D02*
G01*
X245262671Y-107908421D01*
X245305502Y-107922342D01*
X245347439Y-107938463D01*
X245388483Y-107956781D01*
X245401966Y-107963375D01*
X245437091Y-107983800D01*
X245459607Y-108014178D01*
X245446175Y-108052989D01*
X245421506Y-108085497D01*
X245396690Y-108123038D01*
X245375166Y-108163521D01*
X245354186Y-108206702D01*
X245335410Y-108247430D01*
X245314863Y-108293653D01*
X245298291Y-108331926D01*
X245292545Y-108345371D01*
X245273174Y-108389701D01*
X245255115Y-108430856D01*
X245238369Y-108468836D01*
X245219283Y-108511845D01*
X245202248Y-108549894D01*
X245184514Y-108589003D01*
X245174332Y-108611107D01*
X245236354Y-108595453D01*
X245296148Y-108580241D01*
X245353713Y-108565472D01*
X245409049Y-108551146D01*
X245462157Y-108537262D01*
X245513036Y-108523821D01*
X245561686Y-108510823D01*
X245608107Y-108498267D01*
X245652300Y-108486154D01*
X245694264Y-108474484D01*
X245733999Y-108463256D01*
X245789423Y-108447245D01*
X245839833Y-108432230D01*
X245885227Y-108418211D01*
X245899245Y-108413759D01*
X245895057Y-108453055D01*
X245891531Y-108494760D01*
X245889170Y-108537590D01*
X245888498Y-108572028D01*
X245886189Y-108614039D01*
X245874588Y-108652477D01*
X245868958Y-108658979D01*
X245834688Y-108680579D01*
X245797640Y-108693173D01*
X245739785Y-108708691D01*
X245681624Y-108724104D01*
X245623159Y-108739412D01*
X245564388Y-108754615D01*
X245505311Y-108769713D01*
X245445930Y-108784707D01*
X245386243Y-108799595D01*
X245326251Y-108814378D01*
X245265953Y-108829057D01*
X245205351Y-108843630D01*
X245144443Y-108858099D01*
X245083229Y-108872462D01*
X245021711Y-108886721D01*
X244959887Y-108900875D01*
X244897757Y-108914923D01*
X244835323Y-108928867D01*
X244772583Y-108942706D01*
X244709538Y-108956440D01*
X244646187Y-108970069D01*
X244582531Y-108983593D01*
X244518570Y-108997012D01*
X244454304Y-109010326D01*
X244389732Y-109023535D01*
X244324855Y-109036639D01*
X244259673Y-109049639D01*
X244194185Y-109062533D01*
X244128392Y-109075322D01*
X244062294Y-109088007D01*
X243995891Y-109100586D01*
X243929182Y-109113061D01*
X243862168Y-109125430D01*
X243794848Y-109137695D01*
X243745420Y-109147892D01*
X243701670Y-109157479D01*
X243663598Y-109166454D01*
X243623995Y-109176816D01*
X243583456Y-109189719D01*
X243558421Y-109202175D01*
X243523544Y-109224314D01*
X243485900Y-109236336D01*
X243484171Y-109236369D01*
X243450581Y-109216393D01*
X243434346Y-109179705D01*
X243419955Y-109140504D01*
X243405357Y-109096906D01*
X243393035Y-109057217D01*
X243380570Y-109014474D01*
X243367962Y-108968679D01*
X243357773Y-108929844D01*
X243355211Y-108919830D01*
X243404182Y-108918991D01*
X243443955Y-108917259D01*
X243486339Y-108914583D01*
X243531333Y-108910962D01*
X243578938Y-108906397D01*
X243629152Y-108900887D01*
X243681978Y-108894433D01*
X243737413Y-108887034D01*
X243795459Y-108878691D01*
X243835606Y-108872604D01*
X243876914Y-108866097D01*
X243927789Y-108858327D01*
X243980763Y-108849916D01*
X244035836Y-108840864D01*
X244093008Y-108831170D01*
X244152279Y-108820836D01*
X244213648Y-108809860D01*
X244277117Y-108798243D01*
X244342685Y-108785985D01*
X244410352Y-108773086D01*
X244480117Y-108759546D01*
X244551982Y-108745365D01*
X244625946Y-108730542D01*
X244702008Y-108715078D01*
X244740827Y-108707106D01*
X244780170Y-108698974D01*
X244820038Y-108690681D01*
X244860430Y-108682228D01*
X244901348Y-108673614D01*
X244942790Y-108664841D01*
X244958781Y-108627861D01*
X244974514Y-108590194D01*
X244989991Y-108551840D01*
X245005209Y-108512800D01*
X245020170Y-108473072D01*
X245034873Y-108432657D01*
X245049319Y-108391556D01*
X245063507Y-108349767D01*
X245077437Y-108307292D01*
X245091110Y-108264130D01*
X245100082Y-108234973D01*
X245113210Y-108190643D01*
X245125239Y-108146557D01*
X245136169Y-108102716D01*
X245146000Y-108059118D01*
X245154731Y-108015765D01*
X245162364Y-107972657D01*
X245168897Y-107929792D01*
X245174332Y-107887172D01*
X245218948Y-107896697D01*
G37*
G36*
X244250056Y-107955891D02*
G01*
X244251094Y-107957513D01*
X244271997Y-107998286D01*
X244292573Y-108041102D01*
X244312823Y-108085961D01*
X244332747Y-108132865D01*
X244352345Y-108181811D01*
X244371616Y-108232802D01*
X244390561Y-108285836D01*
X244409180Y-108340914D01*
X244421411Y-108378767D01*
X244433497Y-108417530D01*
X244445439Y-108457200D01*
X244457235Y-108497779D01*
X244462120Y-108521226D01*
X244438558Y-108554164D01*
X244407409Y-108570075D01*
X244322413Y-108599384D01*
X244283578Y-108613672D01*
X244248163Y-108622831D01*
X244224236Y-108589824D01*
X244223739Y-108587660D01*
X244210801Y-108533083D01*
X244196902Y-108479262D01*
X244182042Y-108426196D01*
X244166219Y-108373886D01*
X244149435Y-108322332D01*
X244131690Y-108271533D01*
X244112982Y-108221490D01*
X244093313Y-108172203D01*
X244072682Y-108123671D01*
X244051090Y-108075895D01*
X244036160Y-108044464D01*
X244028344Y-108021017D01*
X244055693Y-107991985D01*
X244091848Y-107975099D01*
X244170982Y-107945790D01*
X244208718Y-107932051D01*
X244217877Y-107931135D01*
X244250056Y-107955891D01*
G37*
G36*
X245760702Y-106718462D02*
G01*
X245764423Y-106742161D01*
X245753676Y-107095825D01*
X245753676Y-107354722D01*
X245764423Y-107708386D01*
X245746413Y-107743648D01*
X245726321Y-107747465D01*
X245113760Y-107735741D01*
X244418156Y-107735741D01*
X243811457Y-107747465D01*
X243776194Y-107728994D01*
X243772378Y-107708386D01*
X243784102Y-107354722D01*
X243784102Y-107095825D01*
X243778370Y-106922901D01*
X244019552Y-106922901D01*
X244019552Y-107527646D01*
X245512364Y-107527646D01*
X245512364Y-106922901D01*
X244019552Y-106922901D01*
X243778370Y-106922901D01*
X243772378Y-106742161D01*
X243786155Y-106704637D01*
X243811457Y-106697220D01*
X244418156Y-106708944D01*
X245113760Y-106708944D01*
X245726321Y-106697220D01*
X245760702Y-106718462D01*
G37*
G36*
X246102372Y-106086757D02*
G01*
X246105386Y-106105176D01*
X246105386Y-106270284D01*
X246087376Y-106305546D01*
X246067284Y-106309363D01*
X245341394Y-106297639D01*
X244160236Y-106297639D01*
X243434346Y-106309363D01*
X243398162Y-106292533D01*
X243393313Y-106270284D01*
X243393313Y-106105176D01*
X243412707Y-106070795D01*
X243434346Y-106067074D01*
X244160236Y-106077821D01*
X245341394Y-106077821D01*
X246067284Y-106067074D01*
X246102372Y-106086757D01*
G37*
G36*
X244650004Y-104424724D02*
G01*
X244693223Y-104428720D01*
X244735799Y-104433256D01*
X244784337Y-104438890D01*
X244827461Y-104444187D01*
X244874402Y-104450186D01*
X244913620Y-104462949D01*
X244934974Y-104496104D01*
X244925599Y-104535208D01*
X244911326Y-104573410D01*
X244901757Y-104596732D01*
X244891098Y-104637932D01*
X244885087Y-104683789D01*
X244881240Y-104730333D01*
X244878916Y-104770991D01*
X244877073Y-104816577D01*
X244875711Y-104867092D01*
X244874829Y-104922537D01*
X244874508Y-104962237D01*
X244874402Y-105004129D01*
X244874402Y-105463306D01*
X245685288Y-105463306D01*
X245685288Y-105114527D01*
X245684996Y-105067357D01*
X245684120Y-105021837D01*
X245682660Y-104977964D01*
X245680617Y-104935741D01*
X245677989Y-104895166D01*
X245673578Y-104843631D01*
X245668128Y-104795027D01*
X245661640Y-104749353D01*
X245654114Y-104706611D01*
X245652071Y-104696383D01*
X245695748Y-104699441D01*
X245738853Y-104703119D01*
X245781386Y-104707417D01*
X245823346Y-104712335D01*
X245864734Y-104717873D01*
X245905549Y-104724032D01*
X245921715Y-104726669D01*
X245959115Y-104740534D01*
X245976425Y-104776495D01*
X245968504Y-104815215D01*
X245953955Y-104844883D01*
X245939850Y-104886282D01*
X245931916Y-104928070D01*
X245927036Y-104969925D01*
X245923730Y-105018173D01*
X245922219Y-105061373D01*
X245921715Y-105108665D01*
X245921715Y-105276704D01*
X245932462Y-105645022D01*
X245912778Y-105680110D01*
X245894360Y-105683124D01*
X245212434Y-105672377D01*
X244305804Y-105672377D01*
X243623878Y-105683124D01*
X243588790Y-105663441D01*
X243585776Y-105645022D01*
X243596523Y-105276704D01*
X243596523Y-105108665D01*
X243596240Y-105064037D01*
X243595390Y-105020646D01*
X243593973Y-104978491D01*
X243591989Y-104937573D01*
X243589439Y-104897891D01*
X243585157Y-104846905D01*
X243579868Y-104798118D01*
X243573571Y-104751528D01*
X243566267Y-104707137D01*
X243564283Y-104696383D01*
X243604845Y-104699441D01*
X243645933Y-104703119D01*
X243687545Y-104707417D01*
X243729681Y-104712335D01*
X243772343Y-104717873D01*
X243815529Y-104724032D01*
X243832950Y-104726669D01*
X243871647Y-104736973D01*
X243896391Y-104768460D01*
X243896453Y-104770633D01*
X243886251Y-104810500D01*
X243870719Y-104848892D01*
X243860305Y-104872238D01*
X243848337Y-104911927D01*
X243840670Y-104957274D01*
X243836183Y-105004032D01*
X243833912Y-105048558D01*
X243833057Y-105087820D01*
X243832950Y-105108665D01*
X243832950Y-105463306D01*
X244637975Y-105463306D01*
X244637975Y-105004129D01*
X244637849Y-104953426D01*
X244637471Y-104904631D01*
X244636841Y-104857744D01*
X244635960Y-104812765D01*
X244634826Y-104769694D01*
X244633441Y-104728531D01*
X244631804Y-104689277D01*
X244628876Y-104633973D01*
X244625381Y-104582963D01*
X244621319Y-104536246D01*
X244616691Y-104493822D01*
X244609639Y-104443935D01*
X244605734Y-104421854D01*
X244650004Y-104424724D01*
G37*
D11*
%TO.C,SW23*%
X173090571Y-92078791D03*
D12*
X178590571Y-86128791D03*
D13*
X178590571Y-92078791D03*
D12*
X183590571Y-88328791D03*
D11*
X184090571Y-92078791D03*
D14*
X178590571Y-97978791D03*
X173590571Y-95878791D03*
%TD*%
D11*
%TO.C,SW17*%
X120177693Y-131600725D03*
D12*
X127030258Y-127276971D03*
D13*
X125490285Y-133024230D03*
D12*
X131290486Y-130696103D03*
D11*
X130802877Y-134447735D03*
D14*
X123963253Y-138723192D03*
X119677143Y-135400653D03*
%TD*%
D11*
%TO.C,SW20*%
X209090571Y-63648791D03*
D12*
X214590571Y-57698791D03*
D13*
X214590571Y-63648791D03*
D12*
X219590571Y-59898791D03*
D11*
X220090571Y-63648791D03*
D14*
X214590571Y-69548791D03*
X209590571Y-67448791D03*
%TD*%
D11*
%TO.C,SW9*%
X93015693Y-90173791D03*
D12*
X98515693Y-84223791D03*
D13*
X98515693Y-90173791D03*
D12*
X103515693Y-86423791D03*
D11*
X104015693Y-90173791D03*
D14*
X98515693Y-96073791D03*
X93515693Y-93973791D03*
%TD*%
D11*
%TO.C,SW7*%
X57015693Y-90173791D03*
D12*
X62515693Y-84223791D03*
D13*
X62515693Y-90173791D03*
D12*
X67515693Y-86423791D03*
D11*
X68015693Y-90173791D03*
D14*
X62515693Y-96073791D03*
X57515693Y-93973791D03*
%TD*%
D15*
%TO.C,J2*%
X210490571Y-111936291D03*
X218690571Y-111936291D03*
X212590571Y-111936291D03*
X214590571Y-111936291D03*
X216590571Y-111936291D03*
%TD*%
D11*
%TO.C,SW21*%
X227090571Y-73173791D03*
D12*
X232590571Y-67223791D03*
D13*
X232590571Y-73173791D03*
D12*
X237590571Y-69423791D03*
D11*
X238090571Y-73173791D03*
D14*
X232590571Y-79073791D03*
X227590571Y-76973791D03*
%TD*%
D11*
%TO.C,SW22*%
X245090571Y-86508791D03*
D12*
X250590571Y-80558791D03*
D13*
X250590571Y-86508791D03*
D12*
X255590571Y-82758791D03*
D11*
X256090571Y-86508791D03*
D14*
X250590571Y-92408791D03*
X245590571Y-90308791D03*
%TD*%
D11*
%TO.C,SW18*%
X173090571Y-75078791D03*
D12*
X178590571Y-69128791D03*
D13*
X178590571Y-75078791D03*
D12*
X183590571Y-71328791D03*
D11*
X184090571Y-75078791D03*
D14*
X178590571Y-80978791D03*
X173590571Y-78878791D03*
%TD*%
D11*
%TO.C,SW16*%
X100635693Y-130986291D03*
D12*
X106135693Y-125036291D03*
D13*
X106135693Y-130986291D03*
D12*
X111135693Y-127236291D03*
D11*
X111635693Y-130986291D03*
D14*
X106135693Y-136886291D03*
X101135693Y-134786291D03*
%TD*%
D16*
%TO.C,U1*%
X142203131Y-120373141D03*
X135203131Y-120373141D03*
D17*
X132503131Y-118073141D03*
X133603131Y-122673141D03*
X137603131Y-122673141D03*
X140603131Y-122673141D03*
%TD*%
D11*
%TO.C,SW10*%
X111015693Y-92078791D03*
D12*
X116515693Y-86128791D03*
D13*
X116515693Y-92078791D03*
D12*
X121515693Y-88328791D03*
D11*
X122015693Y-92078791D03*
D14*
X116515693Y-97978791D03*
X111515693Y-95878791D03*
%TD*%
D11*
%TO.C,SW33*%
X164303387Y-134447735D03*
D12*
X168076006Y-127276971D03*
D13*
X169615979Y-133024230D03*
D12*
X173475037Y-128107913D03*
D11*
X174928571Y-131600725D03*
D14*
X171143011Y-138723192D03*
X165769862Y-137988843D03*
%TD*%
D18*
%TO.C,REF\u002A\u002A*%
X52377254Y-98464466D03*
X89574132Y-90218116D03*
%TD*%
D11*
%TO.C,SW12*%
X57015693Y-107173791D03*
D12*
X62515693Y-101223791D03*
D13*
X62515693Y-107173791D03*
D12*
X67515693Y-103423791D03*
D11*
X68015693Y-107173791D03*
D14*
X62515693Y-113073791D03*
X57515693Y-110973791D03*
%TD*%
D11*
%TO.C,SW13*%
X75015693Y-97648791D03*
D12*
X80515693Y-91698791D03*
D13*
X80515693Y-97648791D03*
D12*
X85515693Y-93898791D03*
D11*
X86015693Y-97648791D03*
D14*
X80515693Y-103548791D03*
X75515693Y-101448791D03*
%TD*%
D19*
%TO.C,REF\u002A\u002A*%
X32673193Y-90498791D03*
%TD*%
D20*
%TO.C,mouse-bite-3mm-slot*%
X146053132Y-90652641D03*
X149053132Y-90652641D03*
X149053132Y-89902641D03*
X146053132Y-89890641D03*
X146053132Y-89140641D03*
X149053132Y-89140641D03*
X146053132Y-88390641D03*
X149053132Y-88390641D03*
X146053132Y-87616641D03*
X149053132Y-87616641D03*
%TD*%
D11*
%TO.C,SW30*%
X209090571Y-97648791D03*
D12*
X214590571Y-91698791D03*
D13*
X214590571Y-97648791D03*
D12*
X219590571Y-93898791D03*
D11*
X220090571Y-97648791D03*
D14*
X214590571Y-103548791D03*
X209590571Y-101448791D03*
%TD*%
D11*
%TO.C,SW2*%
X57015693Y-73173791D03*
D12*
X62515693Y-67223791D03*
D13*
X62515693Y-73173791D03*
D12*
X67515693Y-69423791D03*
D11*
X68015693Y-73173791D03*
D14*
X62515693Y-79073791D03*
X57515693Y-76973791D03*
%TD*%
D15*
%TO.C,J1*%
X84615693Y-111936291D03*
X76415693Y-111936291D03*
X82515693Y-111936291D03*
X80515693Y-111936291D03*
X78515693Y-111936291D03*
%TD*%
D19*
%TO.C,REF\u002A\u002A*%
X49265693Y-113358791D03*
%TD*%
%TO.C,REF\u002A\u002A*%
X94585693Y-60971291D03*
%TD*%
D11*
%TO.C,SW4*%
X93015693Y-73173791D03*
D12*
X98515693Y-67223791D03*
D13*
X98515693Y-73173791D03*
D12*
X103515693Y-69423791D03*
D11*
X104015693Y-73173791D03*
D14*
X98515693Y-79073791D03*
X93515693Y-76973791D03*
%TD*%
D21*
%TO.C,Pro_Micro_nRF1*%
X128330989Y-87372791D03*
X128330989Y-89912791D03*
X128330989Y-92452791D03*
X128330989Y-94992791D03*
X128330989Y-97532791D03*
X128330989Y-100072791D03*
X128330989Y-102612791D03*
X128330989Y-105152791D03*
X128330989Y-107692791D03*
X128330989Y-110232791D03*
X128330989Y-112772791D03*
X128330989Y-115312791D03*
X143550989Y-115312791D03*
X143550989Y-112772791D03*
X143550989Y-110232791D03*
X143550989Y-107692791D03*
X143550989Y-105152791D03*
X143550989Y-102612791D03*
X143550989Y-100072791D03*
X143550989Y-97532791D03*
X143550989Y-94992791D03*
X143550989Y-92452791D03*
X143550989Y-89912791D03*
X143550989Y-87372791D03*
X128310989Y-84832791D03*
X143550989Y-84832791D03*
%TD*%
D11*
%TO.C,SW24*%
X191090571Y-90173791D03*
D12*
X196590571Y-84223791D03*
D13*
X196590571Y-90173791D03*
D12*
X201590571Y-86423791D03*
D11*
X202090571Y-90173791D03*
D14*
X196590571Y-96073791D03*
X191590571Y-93973791D03*
%TD*%
D11*
%TO.C,SW11*%
X30965693Y-120508791D03*
D12*
X36465693Y-114558791D03*
D13*
X36465693Y-120508791D03*
D12*
X41465693Y-116758791D03*
D11*
X41965693Y-120508791D03*
D14*
X36465693Y-126408791D03*
X31465693Y-124308791D03*
%TD*%
D11*
%TO.C,SW31*%
X227090571Y-107173791D03*
D12*
X232590571Y-101223791D03*
D13*
X232590571Y-107173791D03*
D12*
X237590571Y-103423791D03*
D11*
X238090571Y-107173791D03*
D14*
X232590571Y-113073791D03*
X227590571Y-110973791D03*
%TD*%
D11*
%TO.C,SW26*%
X227090571Y-90173791D03*
D12*
X232590571Y-84223791D03*
D13*
X232590571Y-90173791D03*
D12*
X237590571Y-86423791D03*
D11*
X238090571Y-90173791D03*
D14*
X232590571Y-96073791D03*
X227590571Y-93973791D03*
%TD*%
D11*
%TO.C,SW25*%
X209090571Y-80648791D03*
D12*
X214590571Y-74698791D03*
D13*
X214590571Y-80648791D03*
D12*
X219590571Y-76898791D03*
D11*
X220090571Y-80648791D03*
D14*
X214590571Y-86548791D03*
X209590571Y-84448791D03*
%TD*%
D11*
%TO.C,SW1*%
X39015693Y-86508791D03*
D12*
X44515693Y-80558791D03*
D13*
X44515693Y-86508791D03*
D12*
X49515693Y-82758791D03*
D11*
X50015693Y-86508791D03*
D14*
X44515693Y-92408791D03*
X39515693Y-90308791D03*
%TD*%
D22*
%TO.C,BT1*%
X104360693Y-120073791D03*
X104360693Y-118073791D03*
%TD*%
D16*
%TO.C,U2*%
X152903132Y-120373140D03*
X159903132Y-120373140D03*
D17*
X162603132Y-122673140D03*
X161503132Y-118073140D03*
X157503132Y-118073140D03*
X154503132Y-118073140D03*
%TD*%
D11*
%TO.C,SW27*%
X253140571Y-103508791D03*
D12*
X258640571Y-97558791D03*
D13*
X258640571Y-103508791D03*
D12*
X263640571Y-99758791D03*
D11*
X264140571Y-103508791D03*
D14*
X258640571Y-109408791D03*
X253640571Y-107308791D03*
%TD*%
D19*
%TO.C,REF\u002A\u002A*%
X140305693Y-129551291D03*
%TD*%
D11*
%TO.C,SW14*%
X93015693Y-107173791D03*
D12*
X98515693Y-101223791D03*
D13*
X98515693Y-107173791D03*
D12*
X103515693Y-103423791D03*
D11*
X104015693Y-107173791D03*
D14*
X98515693Y-113073791D03*
X93515693Y-110973791D03*
%TD*%
D11*
%TO.C,SW6*%
X30965693Y-103508791D03*
D12*
X36465693Y-97558791D03*
D13*
X36465693Y-103508791D03*
D12*
X41465693Y-99758791D03*
D11*
X41965693Y-103508791D03*
D14*
X36465693Y-109408791D03*
X31465693Y-107308791D03*
%TD*%
D11*
%TO.C,SW29*%
X191090571Y-107173791D03*
D12*
X196590571Y-101223791D03*
D13*
X196590571Y-107173791D03*
D12*
X201590571Y-103423791D03*
D11*
X202090571Y-107173791D03*
D14*
X196590571Y-113073791D03*
X191590571Y-110973791D03*
%TD*%
D22*
%TO.C,BT2*%
X190745571Y-118073791D03*
X190745571Y-120073791D03*
%TD*%
D11*
%TO.C,SW15*%
X111015693Y-109078791D03*
D12*
X116515693Y-103128791D03*
D13*
X116515693Y-109078791D03*
D12*
X121515693Y-105328791D03*
D11*
X122015693Y-109078791D03*
D14*
X116515693Y-114978791D03*
X111515693Y-112878791D03*
%TD*%
D11*
%TO.C,SW8*%
X75015693Y-80648791D03*
D12*
X80515693Y-74698791D03*
D13*
X80515693Y-80648791D03*
D12*
X85515693Y-76898791D03*
D11*
X86015693Y-80648791D03*
D14*
X80515693Y-86548791D03*
X75515693Y-84448791D03*
%TD*%
D11*
%TO.C,SW34*%
X183470571Y-130986291D03*
D12*
X188970571Y-125036291D03*
D13*
X188970571Y-130986291D03*
D12*
X193970571Y-127236291D03*
D11*
X194470571Y-130986291D03*
D14*
X188970571Y-136886291D03*
X183970571Y-134786291D03*
%TD*%
D11*
%TO.C,SW32*%
X253140571Y-120508791D03*
D12*
X258640571Y-114558791D03*
D13*
X258640571Y-120508791D03*
D12*
X263640571Y-116758791D03*
D11*
X264140571Y-120508791D03*
D14*
X258640571Y-126408791D03*
X253640571Y-124308791D03*
%TD*%
D11*
%TO.C,SW5*%
X111015693Y-75078791D03*
D12*
X116515693Y-69128791D03*
D13*
X116515693Y-75078791D03*
D12*
X121515693Y-71328791D03*
D11*
X122015693Y-75078791D03*
D14*
X116515693Y-80978791D03*
X111515693Y-78878791D03*
%TD*%
D19*
%TO.C,REF\u002A\u002A*%
X67915693Y-60971291D03*
%TD*%
D11*
%TO.C,SW28*%
X173090571Y-109078791D03*
D12*
X178590571Y-103128791D03*
D13*
X178590571Y-109078791D03*
D12*
X183590571Y-105328791D03*
D11*
X184090571Y-109078791D03*
D14*
X178590571Y-114978791D03*
X173590571Y-112878791D03*
%TD*%
D20*
%TO.C,mouse-bite-3mm-slot*%
X146053132Y-127942641D03*
X149053132Y-127942641D03*
X149053132Y-127192641D03*
X146053132Y-127180641D03*
X146053132Y-126430641D03*
X149053132Y-126430641D03*
X146053132Y-125680641D03*
X149053132Y-125680641D03*
X146053132Y-124906641D03*
X149053132Y-124906641D03*
%TD*%
D21*
%TO.C,Pro_Micro_nRF2*%
X151558075Y-87372791D03*
X151558075Y-89912791D03*
X151558075Y-92452791D03*
X151558075Y-94992791D03*
X151558075Y-97532791D03*
X151558075Y-100072791D03*
X151558075Y-102612791D03*
X151558075Y-105152791D03*
X151558075Y-107692791D03*
X151558075Y-110232791D03*
X151558075Y-112772791D03*
X151558075Y-115312791D03*
X166778075Y-115312791D03*
X166778075Y-112772791D03*
X166778075Y-110232791D03*
X166778075Y-107692791D03*
X166778075Y-105152791D03*
X166778075Y-102612791D03*
X166778075Y-100072791D03*
X166778075Y-97532791D03*
X166778075Y-94992791D03*
X166778075Y-92452791D03*
X166778075Y-89912791D03*
X166778075Y-87372791D03*
X151538075Y-84832791D03*
X166778075Y-84832791D03*
%TD*%
D11*
%TO.C,SW19*%
X191090571Y-73173791D03*
D12*
X196590571Y-67223791D03*
D13*
X196590571Y-73173791D03*
D12*
X201590571Y-69423791D03*
D11*
X202090571Y-73173791D03*
D14*
X196590571Y-79073791D03*
X191590571Y-76973791D03*
%TD*%
D11*
%TO.C,SW3*%
X75015693Y-63648791D03*
D12*
X80515693Y-57698791D03*
D13*
X80515693Y-63648791D03*
D12*
X85515693Y-59898791D03*
D11*
X86015693Y-63648791D03*
D14*
X80515693Y-69548791D03*
X75515693Y-67448791D03*
%TD*%
D19*
%TO.C,REF\u002A\u002A*%
X227190571Y-60971291D03*
%TD*%
%TO.C,REF\u002A\u002A*%
X200520571Y-60971291D03*
%TD*%
%TO.C,REF\u002A\u002A*%
X262433071Y-90498791D03*
%TD*%
%TO.C,REF\u002A\u002A*%
X154800571Y-129551291D03*
%TD*%
D18*
%TO.C,REF\u002A\u002A*%
X242729010Y-98464466D03*
X205532132Y-90218116D03*
%TD*%
D19*
%TO.C,REF\u002A\u002A*%
X245840571Y-113358791D03*
%TD*%
M02*
