M48
; DRILL file {KiCad 7.0.9} date Mon Apr  8 09:31:48 2024
; FORMAT={-:-/ absolute / metric / decimal}
; #@! TF.CreationDate,2024-04-08T09:31:48+08:00
; #@! TF.GenerationSoftware,Kicad,Pcbnew,7.0.9
; #@! TF.FileFunction,Plated,1,2,PTH
FMAT,2
METRIC
; #@! TA.AperFunction,Plated,PTH,ComponentDrill
T1C0.750
; #@! TA.AperFunction,Plated,PTH,ComponentDrill
T2C0.813
; #@! TA.AperFunction,Plated,PTH,ComponentDrill
T3C0.900
; #@! TA.AperFunction,Plated,PTH,ComponentDrill
T4C1.270
; #@! TA.AperFunction,Plated,PTH,ComponentDrill
T5C2.200
%
G90
G05
T1
X104.361Y-118.074
X104.361Y-120.074
X190.746Y-118.074
X190.746Y-120.074
T2
X128.311Y-84.833
X128.331Y-87.373
X128.331Y-89.913
X128.331Y-92.453
X128.331Y-94.993
X128.331Y-97.533
X128.331Y-100.073
X128.331Y-102.613
X128.331Y-105.153
X128.331Y-107.693
X128.331Y-110.233
X128.331Y-112.773
X128.331Y-115.313
X143.551Y-84.833
X143.551Y-87.373
X143.551Y-89.913
X143.551Y-92.453
X143.551Y-94.993
X143.551Y-97.533
X143.551Y-100.073
X143.551Y-102.613
X143.551Y-105.153
X143.551Y-107.693
X143.551Y-110.233
X143.551Y-112.773
X143.551Y-115.313
X151.538Y-84.833
X151.558Y-87.373
X151.558Y-89.913
X151.558Y-92.453
X151.558Y-94.993
X151.558Y-97.533
X151.558Y-100.073
X151.558Y-102.613
X151.558Y-105.153
X151.558Y-107.693
X151.558Y-110.233
X151.558Y-112.773
X151.558Y-115.313
X166.778Y-84.833
X166.778Y-87.373
X166.778Y-89.913
X166.778Y-92.453
X166.778Y-94.993
X166.778Y-97.533
X166.778Y-100.073
X166.778Y-102.613
X166.778Y-105.153
X166.778Y-107.693
X166.778Y-110.233
X166.778Y-112.773
X166.778Y-115.313
T3
X78.516Y-111.936
X80.516Y-111.936
X82.516Y-111.936
X212.591Y-111.936
X214.591Y-111.936
X216.591Y-111.936
T4
X31.466Y-107.309
X31.466Y-124.309
X36.466Y-109.409
X36.466Y-126.409
X39.516Y-90.309
X44.516Y-92.409
X57.516Y-76.974
X57.516Y-93.974
X57.516Y-110.974
X62.516Y-79.074
X62.516Y-96.074
X62.516Y-113.074
X75.516Y-67.449
X75.516Y-84.449
X75.516Y-101.449
X80.516Y-69.549
X80.516Y-86.549
X80.516Y-103.549
X93.516Y-76.974
X93.516Y-93.974
X93.516Y-110.974
X98.516Y-79.074
X98.516Y-96.074
X98.516Y-113.074
X101.136Y-134.786
X106.136Y-136.886
X111.516Y-78.879
X111.516Y-95.879
X111.516Y-112.879
X116.516Y-80.979
X116.516Y-97.979
X116.516Y-114.979
X119.677Y-135.401
X123.963Y-138.723
X165.77Y-137.989
X171.143Y-138.723
X173.591Y-78.879
X173.591Y-95.879
X173.591Y-112.879
X178.591Y-80.979
X178.591Y-97.979
X178.591Y-114.979
X183.971Y-134.786
X188.971Y-136.886
X191.591Y-76.974
X191.591Y-93.974
X191.591Y-110.974
X196.591Y-79.074
X196.591Y-96.074
X196.591Y-113.074
X209.591Y-67.449
X209.591Y-84.449
X209.591Y-101.449
X214.591Y-69.549
X214.591Y-86.549
X214.591Y-103.549
X227.591Y-76.974
X227.591Y-93.974
X227.591Y-110.974
X232.591Y-79.074
X232.591Y-96.074
X232.591Y-113.074
X245.591Y-90.309
X250.591Y-92.409
X253.641Y-107.309
X253.641Y-124.309
X258.641Y-109.409
X258.641Y-126.409
T5
X52.377Y-98.464
X89.574Y-90.218
X205.532Y-90.218
X242.729Y-98.464
T3
G00X132.703Y-118.073
M15
G01X132.303Y-118.073
M16
G05
G00X133.803Y-122.673
M15
G01X133.403Y-122.673
M16
G05
G00X137.803Y-122.673
M15
G01X137.403Y-122.673
M16
G05
G00X140.803Y-122.673
M15
G01X140.403Y-122.673
M16
G05
G00X154.303Y-118.073
M15
G01X154.703Y-118.073
M16
G05
G00X157.303Y-118.073
M15
G01X157.703Y-118.073
M16
G05
G00X161.303Y-118.073
M15
G01X161.703Y-118.073
M16
G05
G00X162.403Y-122.673
M15
G01X162.803Y-122.673
M16
G05
T0
M30
