M48
; DRILL file {KiCad 7.0.9} date Mon Apr  8 09:31:48 2024
; FORMAT={-:-/ absolute / metric / decimal}
; #@! TF.CreationDate,2024-04-08T09:31:48+08:00
; #@! TF.GenerationSoftware,Kicad,Pcbnew,7.0.9
; #@! TF.FileFunction,NonPlated,1,2,NPTH
FMAT,2
METRIC
; #@! TA.AperFunction,NonPlated,NPTH,ComponentDrill
T1C0.500
; #@! TA.AperFunction,NonPlated,NPTH,ComponentDrill
T2C0.800
; #@! TA.AperFunction,NonPlated,NPTH,ComponentDrill
T3C1.500
; #@! TA.AperFunction,NonPlated,NPTH,ComponentDrill
T4C1.702
; #@! TA.AperFunction,NonPlated,NPTH,ComponentDrill
T5C3.000
; #@! TA.AperFunction,NonPlated,NPTH,ComponentDrill
T6C3.200
; #@! TA.AperFunction,NonPlated,NPTH,ComponentDrill
T7C5.050
%
G90
G05
T1
X146.053Y-87.617
X146.053Y-88.391
X146.053Y-89.141
X146.053Y-89.891
X146.053Y-90.653
X146.053Y-124.907
X146.053Y-125.681
X146.053Y-126.431
X146.053Y-127.181
X146.053Y-127.943
X149.053Y-87.617
X149.053Y-88.391
X149.053Y-89.141
X149.053Y-89.903
X149.053Y-90.653
X149.053Y-124.907
X149.053Y-125.681
X149.053Y-126.431
X149.053Y-127.193
X149.053Y-127.943
T2
X135.203Y-120.373
X142.203Y-120.373
X152.903Y-120.373
X159.903Y-120.373
T3
X76.416Y-111.936
X84.616Y-111.936
X210.491Y-111.936
X218.691Y-111.936
T4
X30.966Y-103.509
X30.966Y-120.509
X39.016Y-86.509
X41.966Y-103.509
X41.966Y-120.509
X50.016Y-86.509
X57.016Y-73.174
X57.016Y-90.174
X57.016Y-107.174
X68.016Y-73.174
X68.016Y-90.174
X68.016Y-107.174
X75.016Y-63.649
X75.016Y-80.649
X75.016Y-97.649
X86.016Y-63.649
X86.016Y-80.649
X86.016Y-97.649
X93.016Y-73.174
X93.016Y-90.174
X93.016Y-107.174
X100.636Y-130.986
X104.016Y-73.174
X104.016Y-90.174
X104.016Y-107.174
X111.016Y-75.079
X111.016Y-92.079
X111.016Y-109.079
X111.636Y-130.986
X120.178Y-131.601
X122.016Y-75.079
X122.016Y-92.079
X122.016Y-109.079
X130.803Y-134.448
X164.303Y-134.448
X173.091Y-75.079
X173.091Y-92.079
X173.091Y-109.079
X174.929Y-131.601
X183.471Y-130.986
X184.091Y-75.079
X184.091Y-92.079
X184.091Y-109.079
X191.091Y-73.174
X191.091Y-90.174
X191.091Y-107.174
X194.471Y-130.986
X202.091Y-73.174
X202.091Y-90.174
X202.091Y-107.174
X209.091Y-63.649
X209.091Y-80.649
X209.091Y-97.649
X220.091Y-63.649
X220.091Y-80.649
X220.091Y-97.649
X227.091Y-73.174
X227.091Y-90.174
X227.091Y-107.174
X238.091Y-73.174
X238.091Y-90.174
X238.091Y-107.174
X245.091Y-86.509
X253.141Y-103.509
X253.141Y-120.509
X256.091Y-86.509
X264.141Y-103.509
X264.141Y-120.509
T5
X36.466Y-97.559
X36.466Y-114.559
X41.466Y-99.759
X41.466Y-116.759
X44.516Y-80.559
X49.516Y-82.759
X62.516Y-67.224
X62.516Y-84.224
X62.516Y-101.224
X67.516Y-69.424
X67.516Y-86.424
X67.516Y-103.424
X80.516Y-57.699
X80.516Y-74.699
X80.516Y-91.699
X85.516Y-59.899
X85.516Y-76.899
X85.516Y-93.899
X98.516Y-67.224
X98.516Y-84.224
X98.516Y-101.224
X103.516Y-69.424
X103.516Y-86.424
X103.516Y-103.424
X106.136Y-125.036
X111.136Y-127.236
X116.516Y-69.129
X116.516Y-86.129
X116.516Y-103.129
X121.516Y-71.329
X121.516Y-88.329
X121.516Y-105.329
X127.03Y-127.277
X131.29Y-130.696
X168.076Y-127.277
X173.475Y-128.108
X178.591Y-69.129
X178.591Y-86.129
X178.591Y-103.129
X183.591Y-71.329
X183.591Y-88.329
X183.591Y-105.329
X188.971Y-125.036
X193.971Y-127.236
X196.591Y-67.224
X196.591Y-84.224
X196.591Y-101.224
X201.591Y-69.424
X201.591Y-86.424
X201.591Y-103.424
X214.591Y-57.699
X214.591Y-74.699
X214.591Y-91.699
X219.591Y-59.899
X219.591Y-76.899
X219.591Y-93.899
X232.591Y-67.224
X232.591Y-84.224
X232.591Y-101.224
X237.591Y-69.424
X237.591Y-86.424
X237.591Y-103.424
X250.591Y-80.559
X255.591Y-82.759
X258.641Y-97.559
X258.641Y-114.559
X263.641Y-99.759
X263.641Y-116.759
T6
X32.673Y-90.499
X49.266Y-113.359
X67.916Y-60.971
X94.586Y-60.971
X140.306Y-129.551
X154.801Y-129.551
X200.521Y-60.971
X227.191Y-60.971
X245.841Y-113.359
X262.433Y-90.499
T7
X36.466Y-103.509
X36.466Y-120.509
X44.516Y-86.509
X62.516Y-73.174
X62.516Y-90.174
X62.516Y-107.174
X80.516Y-63.649
X80.516Y-80.649
X80.516Y-97.649
X98.516Y-73.174
X98.516Y-90.174
X98.516Y-107.174
X106.136Y-130.986
X116.516Y-75.079
X116.516Y-92.079
X116.516Y-109.079
X125.49Y-133.024
X169.616Y-133.024
X178.591Y-75.079
X178.591Y-92.079
X178.591Y-109.079
X188.971Y-130.986
X196.591Y-73.174
X196.591Y-90.174
X196.591Y-107.174
X214.591Y-63.649
X214.591Y-80.649
X214.591Y-97.649
X232.591Y-73.174
X232.591Y-90.174
X232.591Y-107.174
X250.591Y-86.509
X258.641Y-103.509
X258.641Y-120.509
T0
M30
