%TF.GenerationSoftware,KiCad,Pcbnew,7.0.9*%
%TF.CreationDate,2024-04-08T09:31:46+08:00*%
%TF.ProjectId,kai_simple_v3,6b61695f-7369-46d7-906c-655f76332e6b,rev?*%
%TF.SameCoordinates,Original*%
%TF.FileFunction,Profile,NP*%
%FSLAX46Y46*%
G04 Gerber Fmt 4.6, Leading zero omitted, Abs format (unit mm)*
G04 Created by KiCad (PCBNEW 7.0.9) date 2024-04-08 09:31:46*
%MOMM*%
%LPD*%
G01*
G04 APERTURE LIST*
%TA.AperFunction,Profile*%
%ADD10C,0.150000*%
%TD*%
G04 APERTURE END LIST*
D10*
X247674723Y-120362663D02*
G75*
G03*
X245674248Y-118354762I-2000123J7763D01*
G01*
X267640571Y-131008791D02*
X249674700Y-131008791D01*
X149837924Y-132284664D02*
X161787281Y-145418393D01*
X165590575Y-82250775D02*
G75*
G03*
X167590575Y-80250791I25J1999975D01*
G01*
X149303132Y-84235641D02*
X149303132Y-86140641D01*
X149303132Y-92140641D02*
G75*
G03*
X145803132Y-92140641I-1750000J0D01*
G01*
X149303132Y-95310128D02*
X149303132Y-92140641D01*
X267640571Y-131008771D02*
G75*
G03*
X269640571Y-129008791I29J1999971D01*
G01*
X25465693Y-129008791D02*
X25465693Y-94373791D01*
X145803132Y-84235641D02*
X145803132Y-86140641D01*
X95135693Y-139486291D02*
X95135693Y-120365324D01*
X45431564Y-131008763D02*
G75*
G03*
X47431547Y-129000889I36J1999963D01*
G01*
X50762101Y-74165785D02*
X51521864Y-64516797D01*
X131295356Y-145977550D02*
G75*
G03*
X133318982Y-145418392I558444J1920350D01*
G01*
X205590571Y-53148805D02*
G75*
G03*
X204895866Y-53273323I-71J-1999795D01*
G01*
X95135676Y-120365324D02*
G75*
G03*
X93136176Y-118365324I-1999976J24D01*
G01*
X48768273Y-76008772D02*
G75*
G03*
X50762101Y-74165785I27J1999972D01*
G01*
X145268279Y-132284607D02*
G75*
G03*
X145803130Y-130908141I-1465279J1361507D01*
G01*
X108107644Y-62861004D02*
X126018193Y-64721291D01*
X269640571Y-94373791D02*
X269640571Y-129008791D01*
X116124363Y-141565835D02*
G75*
G03*
X115565907Y-141486291I-558363J-1919965D01*
G01*
X145803132Y-86140641D02*
G75*
G03*
X149303132Y-86140641I1750000J0D01*
G01*
X169088071Y-64721291D02*
X186998620Y-62861004D01*
X93136176Y-118365324D02*
X49432016Y-118354762D01*
X71515693Y-53148791D02*
X89515693Y-53148791D01*
X245674248Y-118354762D02*
X201970088Y-118365324D01*
X133318983Y-145418393D02*
X145268340Y-132284664D01*
X260753663Y-76611226D02*
G75*
G03*
X259590571Y-76008791I-1293063J-1072474D01*
G01*
X149303132Y-129430641D02*
G75*
G03*
X145803132Y-129430641I-1750000J0D01*
G01*
X151303075Y-82250791D02*
X165590575Y-82250791D01*
X127506623Y-66654760D02*
G75*
G03*
X126018193Y-64721292I-1999923J60D01*
G01*
X169088082Y-64721332D02*
G75*
G03*
X167599635Y-66654760I511418J-1933368D01*
G01*
X49432016Y-118354733D02*
G75*
G03*
X47431548Y-120362663I-316J-2000167D01*
G01*
X145803132Y-129430641D02*
X145803131Y-130908141D01*
X25774922Y-93256064D02*
G75*
G03*
X25465694Y-94373791I2660678J-1337736D01*
G01*
X243584449Y-64516793D02*
G75*
G03*
X242526008Y-62906037I-1993949J-157107D01*
G01*
X149303132Y-129430641D02*
X149303133Y-130908141D01*
X145803132Y-123430641D02*
G75*
G03*
X149303132Y-123430641I1750000J0D01*
G01*
X107505694Y-62603789D02*
G75*
G03*
X108107644Y-62861003I1390206J2420489D01*
G01*
X197970571Y-141486271D02*
G75*
G03*
X199970571Y-139486291I29J1999971D01*
G01*
X52580256Y-62906036D02*
X70580256Y-53381036D01*
X145803052Y-84235642D02*
G75*
G03*
X143803189Y-82250791I-1999852J-15058D01*
G01*
X179540357Y-141486288D02*
G75*
G03*
X178981903Y-141565841I43J-2000212D01*
G01*
X149303132Y-95310128D02*
X149303132Y-123430641D01*
X95135609Y-139486291D02*
G75*
G03*
X97135693Y-141486291I2000091J91D01*
G01*
X224525999Y-53381054D02*
G75*
G03*
X223590571Y-53148791I-935399J-1767446D01*
G01*
X161787263Y-145418409D02*
G75*
G03*
X163810897Y-145977512I1465137J1361209D01*
G01*
X151303075Y-82250775D02*
G75*
G03*
X149303132Y-84235641I25J-2000025D01*
G01*
X178981903Y-141565841D02*
X163810885Y-145977471D01*
X131295379Y-145977471D02*
X116124361Y-141565841D01*
X47431548Y-120362663D02*
X47431548Y-129000889D01*
X71515693Y-53148813D02*
G75*
G03*
X70580256Y-53381037I-93J-1999787D01*
G01*
X127515689Y-80250791D02*
X127506629Y-66654760D01*
X129515689Y-82250791D02*
X143803189Y-82250791D01*
X107505694Y-62603790D02*
X90210398Y-53273322D01*
X205590571Y-53148791D02*
X223590571Y-53148791D01*
X25774909Y-93256058D02*
X34352591Y-76611218D01*
X246337991Y-76008791D02*
X259590571Y-76008791D01*
X269640577Y-94373791D02*
G75*
G03*
X269331355Y-93256058I-2969977J-220009D01*
G01*
X199970571Y-120365324D02*
X199970571Y-139486291D01*
X247674725Y-129000889D02*
G75*
G03*
X249674700Y-131008791I1999975J-7911D01*
G01*
X197970571Y-141486291D02*
X179540357Y-141486291D01*
X35515693Y-76008791D02*
X48768273Y-76008791D01*
X244344088Y-74165791D02*
G75*
G03*
X246337991Y-76008791I1993912J157091D01*
G01*
X25465699Y-129008791D02*
G75*
G03*
X27465693Y-131008791I2000051J51D01*
G01*
X45431564Y-131008791D02*
X27465693Y-131008791D01*
X167599635Y-66654760D02*
X167590575Y-80250791D01*
X204895866Y-53273322D02*
X187600570Y-62603790D01*
X52580245Y-62906015D02*
G75*
G03*
X51521864Y-64516797I935355J-1767685D01*
G01*
X127515609Y-80250791D02*
G75*
G03*
X129515689Y-82250791I2000091J91D01*
G01*
X247674716Y-129000889D02*
X247674716Y-120362663D01*
X145803132Y-92140641D02*
X145803132Y-95310128D01*
X149303159Y-130908141D02*
G75*
G03*
X149837957Y-132284633I2000341J-14959D01*
G01*
X201970088Y-118365371D02*
G75*
G03*
X199970571Y-120365324I412J-1999929D01*
G01*
X186998617Y-62860992D02*
G75*
G03*
X187600570Y-62603789I-787817J2676792D01*
G01*
X260753673Y-76611218D02*
X269331355Y-93256058D01*
X35515695Y-76008823D02*
G75*
G03*
X34352592Y-76611218I129905J-1674877D01*
G01*
X224526008Y-53381036D02*
X242526008Y-62906036D01*
X90210393Y-53273336D02*
G75*
G03*
X89515693Y-53148791I-694693J-1875164D01*
G01*
X243584400Y-64516797D02*
X244344163Y-74165785D01*
X115565907Y-141486291D02*
X97135693Y-141486291D01*
X145803132Y-95310128D02*
X145803132Y-123430641D01*
M02*
