%TF.GenerationSoftware,KiCad,Pcbnew,7.0.9*%
%TF.CreationDate,2024-04-08T09:31:48+08:00*%
%TF.ProjectId,kai_simple_v3,6b61695f-7369-46d7-906c-655f76332e6b,rev?*%
%TF.SameCoordinates,Original*%
%TF.FileFunction,Drillmap*%
%TF.FilePolarity,Positive*%
%FSLAX45Y45*%
G04 Gerber Fmt 4.5, Leading zero omitted, Abs format (unit mm)*
G04 Created by KiCad (PCBNEW 7.0.9) date 2024-04-08 09:31:48*
%MOMM*%
%LPD*%
G01*
G04 APERTURE LIST*
%ADD10C,0.150000*%
%ADD11C,0.200000*%
%ADD12C,0.100000*%
%ADD13C,0.127000*%
%ADD14C,0.220000*%
G04 APERTURE END LIST*
D10*
X24767472Y-12036266D02*
G75*
G03*
X24567425Y-11835476I-200012J776D01*
G01*
X26764057Y-13100879D02*
X24967470Y-13100879D01*
X14983792Y-13228466D02*
X16178728Y-14541839D01*
X16559057Y-8225077D02*
G75*
G03*
X16759057Y-8025079I3J199998D01*
G01*
X14930313Y-8423564D02*
X14930313Y-8614064D01*
X14930313Y-9214064D02*
G75*
G03*
X14580313Y-9214064I-175000J0D01*
G01*
X14930313Y-9531013D02*
X14930313Y-9214064D01*
X26764057Y-13100877D02*
G75*
G03*
X26964057Y-12900879I3J199997D01*
G01*
X2546569Y-12900879D02*
X2546569Y-9437379D01*
X14580313Y-8423564D02*
X14580313Y-8614064D01*
X9513569Y-13948629D02*
X9513569Y-12036532D01*
X4543156Y-13100876D02*
G75*
G03*
X4743155Y-12900089I4J199996D01*
G01*
X5076210Y-7416578D02*
X5152186Y-6451680D01*
X13129536Y-14597755D02*
G75*
G03*
X13331898Y-14541839I55844J192035D01*
G01*
X20559057Y-5314881D02*
G75*
G03*
X20489587Y-5327332I-7J-199980D01*
G01*
X9513568Y-12036532D02*
G75*
G03*
X9313618Y-11836532I-199998J2D01*
G01*
X4876827Y-7600877D02*
G75*
G03*
X5076210Y-7416578I3J199997D01*
G01*
X14526828Y-13228461D02*
G75*
G03*
X14580313Y-13090814I-146528J136151D01*
G01*
X10810764Y-6286100D02*
X12601819Y-6472129D01*
X26964057Y-9437379D02*
X26964057Y-12900879D01*
X11612436Y-14156583D02*
G75*
G03*
X11556591Y-14148629I-55836J-191997D01*
G01*
X14580313Y-8614064D02*
G75*
G03*
X14930313Y-8614064I175000J0D01*
G01*
X16908807Y-6472129D02*
X18699862Y-6286100D01*
X9313618Y-11836532D02*
X4943202Y-11835476D01*
X7151569Y-5314879D02*
X8951569Y-5314879D01*
X24567425Y-11835476D02*
X20197009Y-11836532D01*
X13331898Y-14541839D02*
X14526834Y-13228466D01*
X26075366Y-7661123D02*
G75*
G03*
X25959057Y-7600879I-129306J-107247D01*
G01*
X14930313Y-12943064D02*
G75*
G03*
X14580313Y-12943064I-175000J0D01*
G01*
X15130307Y-8225079D02*
X16559057Y-8225079D01*
X12750662Y-6665476D02*
G75*
G03*
X12601819Y-6472129I-199992J6D01*
G01*
X16908808Y-6472133D02*
G75*
G03*
X16759963Y-6665476I51142J-193337D01*
G01*
X4943202Y-11835473D02*
G75*
G03*
X4743155Y-12036266I-32J-200017D01*
G01*
X14580313Y-12943064D02*
X14580313Y-13090814D01*
X2577492Y-9325606D02*
G75*
G03*
X2546569Y-9437379I266068J-133774D01*
G01*
X24358445Y-6451679D02*
G75*
G03*
X24252601Y-6290604I-199395J-15711D01*
G01*
X14930313Y-12943064D02*
X14930313Y-13090814D01*
X14580313Y-12343064D02*
G75*
G03*
X14930313Y-12343064I175000J0D01*
G01*
X10750569Y-6260379D02*
G75*
G03*
X10810764Y-6286100I139021J242049D01*
G01*
X19797057Y-14148627D02*
G75*
G03*
X19997057Y-13948629I3J199997D01*
G01*
X5258026Y-6290604D02*
X7058026Y-5338104D01*
X14580305Y-8423564D02*
G75*
G03*
X14380319Y-8225079I-199985J-1506D01*
G01*
X17954036Y-14148629D02*
G75*
G03*
X17898190Y-14156584I4J-200021D01*
G01*
X14930313Y-9531013D02*
X14930313Y-12343064D01*
X9513561Y-13948629D02*
G75*
G03*
X9713569Y-14148629I200009J9D01*
G01*
X22452600Y-5338105D02*
G75*
G03*
X22359057Y-5314879I-93540J-176745D01*
G01*
X16178726Y-14541841D02*
G75*
G03*
X16381090Y-14597751I146514J136121D01*
G01*
X15130307Y-8225077D02*
G75*
G03*
X14930313Y-8423564I3J-200003D01*
G01*
X17898190Y-14156584D02*
X16381088Y-14597747D01*
X13129538Y-14597747D02*
X11612436Y-14156584D01*
X4743155Y-12036266D02*
X4743155Y-12900089D01*
X7151569Y-5314881D02*
G75*
G03*
X7058026Y-5338104I-9J-199979D01*
G01*
X12751569Y-8025079D02*
X12750663Y-6665476D01*
X12951569Y-8225079D02*
X14380319Y-8225079D01*
X10750569Y-6260379D02*
X9021040Y-5327332D01*
X20559057Y-5314879D02*
X22359057Y-5314879D01*
X2577491Y-9325606D02*
X3435259Y-7661122D01*
X24633799Y-7600879D02*
X25959057Y-7600879D01*
X26964058Y-9437379D02*
G75*
G03*
X26933135Y-9325606I-296998J-22001D01*
G01*
X19997057Y-12036532D02*
X19997057Y-13948629D01*
X24767472Y-12900089D02*
G75*
G03*
X24967470Y-13100879I199998J-791D01*
G01*
X19797057Y-14148629D02*
X17954036Y-14148629D01*
X3551569Y-7600879D02*
X4876827Y-7600879D01*
X24434409Y-7416579D02*
G75*
G03*
X24633799Y-7600879I199391J15709D01*
G01*
X2546570Y-12900879D02*
G75*
G03*
X2746569Y-13100879I200005J5D01*
G01*
X4543156Y-13100879D02*
X2746569Y-13100879D01*
X16759963Y-6665476D02*
X16759057Y-8025079D01*
X20489587Y-5327332D02*
X18760057Y-6260379D01*
X5258025Y-6290601D02*
G75*
G03*
X5152186Y-6451680I93536J-176769D01*
G01*
X12751561Y-8025079D02*
G75*
G03*
X12951569Y-8225079I200009J9D01*
G01*
X24767472Y-12900089D02*
X24767472Y-12036266D01*
X14580313Y-9214064D02*
X14580313Y-9531013D01*
X14930316Y-13090814D02*
G75*
G03*
X14983796Y-13228463I200034J-1496D01*
G01*
X20197009Y-11836537D02*
G75*
G03*
X19997057Y-12036532I41J-199993D01*
G01*
X18699862Y-6286099D02*
G75*
G03*
X18760057Y-6260379I-78782J267679D01*
G01*
X26075367Y-7661122D02*
X26933135Y-9325606D01*
X3551569Y-7600882D02*
G75*
G03*
X3435259Y-7661122I12991J-167488D01*
G01*
X22452601Y-5338104D02*
X24252601Y-6290604D01*
X9021039Y-5327334D02*
G75*
G03*
X8951569Y-5314879I-69469J-187516D01*
G01*
X24358440Y-6451680D02*
X24434416Y-7416578D01*
X11556591Y-14148629D02*
X9713569Y-14148629D01*
X14580313Y-9531013D02*
X14580313Y-12343064D01*
D11*
D12*
X10398569Y-11769879D02*
X10473569Y-11844879D01*
X10473569Y-11769879D02*
X10398569Y-11844879D01*
X10398569Y-11969879D02*
X10473569Y-12044879D01*
X10473569Y-11969879D02*
X10398569Y-12044879D01*
X19037057Y-11769879D02*
X19112057Y-11844879D01*
X19112057Y-11769879D02*
X19037057Y-11844879D01*
X19037057Y-11969879D02*
X19112057Y-12044879D01*
X19112057Y-11969879D02*
X19037057Y-12044879D01*
X12871739Y-8483279D02*
G75*
G03*
X12871739Y-8483279I-40640J0D01*
G01*
X12873739Y-8737279D02*
G75*
G03*
X12873739Y-8737279I-40640J0D01*
G01*
X12873739Y-8991279D02*
G75*
G03*
X12873739Y-8991279I-40640J0D01*
G01*
X12873739Y-9245279D02*
G75*
G03*
X12873739Y-9245279I-40640J0D01*
G01*
X12873739Y-9499279D02*
G75*
G03*
X12873739Y-9499279I-40640J0D01*
G01*
X12873739Y-9753279D02*
G75*
G03*
X12873739Y-9753279I-40640J0D01*
G01*
X12873739Y-10007279D02*
G75*
G03*
X12873739Y-10007279I-40640J0D01*
G01*
X12873739Y-10261279D02*
G75*
G03*
X12873739Y-10261279I-40640J0D01*
G01*
X12873739Y-10515279D02*
G75*
G03*
X12873739Y-10515279I-40640J0D01*
G01*
X12873739Y-10769279D02*
G75*
G03*
X12873739Y-10769279I-40640J0D01*
G01*
X12873739Y-11023279D02*
G75*
G03*
X12873739Y-11023279I-40640J0D01*
G01*
X12873739Y-11277279D02*
G75*
G03*
X12873739Y-11277279I-40640J0D01*
G01*
X12873739Y-11531279D02*
G75*
G03*
X12873739Y-11531279I-40640J0D01*
G01*
X14395739Y-8483279D02*
G75*
G03*
X14395739Y-8483279I-40640J0D01*
G01*
X14395739Y-8737279D02*
G75*
G03*
X14395739Y-8737279I-40640J0D01*
G01*
X14395739Y-8991279D02*
G75*
G03*
X14395739Y-8991279I-40640J0D01*
G01*
X14395739Y-9245279D02*
G75*
G03*
X14395739Y-9245279I-40640J0D01*
G01*
X14395739Y-9499279D02*
G75*
G03*
X14395739Y-9499279I-40640J0D01*
G01*
X14395739Y-9753279D02*
G75*
G03*
X14395739Y-9753279I-40640J0D01*
G01*
X14395739Y-10007279D02*
G75*
G03*
X14395739Y-10007279I-40640J0D01*
G01*
X14395739Y-10261279D02*
G75*
G03*
X14395739Y-10261279I-40640J0D01*
G01*
X14395739Y-10515279D02*
G75*
G03*
X14395739Y-10515279I-40640J0D01*
G01*
X14395739Y-10769279D02*
G75*
G03*
X14395739Y-10769279I-40640J0D01*
G01*
X14395739Y-11023279D02*
G75*
G03*
X14395739Y-11023279I-40640J0D01*
G01*
X14395739Y-11277279D02*
G75*
G03*
X14395739Y-11277279I-40640J0D01*
G01*
X14395739Y-11531279D02*
G75*
G03*
X14395739Y-11531279I-40640J0D01*
G01*
X15194447Y-8483279D02*
G75*
G03*
X15194447Y-8483279I-40640J0D01*
G01*
X15196447Y-8737279D02*
G75*
G03*
X15196447Y-8737279I-40640J0D01*
G01*
X15196447Y-8991279D02*
G75*
G03*
X15196447Y-8991279I-40640J0D01*
G01*
X15196447Y-9245279D02*
G75*
G03*
X15196447Y-9245279I-40640J0D01*
G01*
X15196447Y-9499279D02*
G75*
G03*
X15196447Y-9499279I-40640J0D01*
G01*
X15196447Y-9753279D02*
G75*
G03*
X15196447Y-9753279I-40640J0D01*
G01*
X15196447Y-10007279D02*
G75*
G03*
X15196447Y-10007279I-40640J0D01*
G01*
X15196447Y-10261279D02*
G75*
G03*
X15196447Y-10261279I-40640J0D01*
G01*
X15196447Y-10515279D02*
G75*
G03*
X15196447Y-10515279I-40640J0D01*
G01*
X15196447Y-10769279D02*
G75*
G03*
X15196447Y-10769279I-40640J0D01*
G01*
X15196447Y-11023279D02*
G75*
G03*
X15196447Y-11023279I-40640J0D01*
G01*
X15196447Y-11277279D02*
G75*
G03*
X15196447Y-11277279I-40640J0D01*
G01*
X15196447Y-11531279D02*
G75*
G03*
X15196447Y-11531279I-40640J0D01*
G01*
X16718447Y-8483279D02*
G75*
G03*
X16718447Y-8483279I-40640J0D01*
G01*
X16718447Y-8737279D02*
G75*
G03*
X16718447Y-8737279I-40640J0D01*
G01*
X16718447Y-8991279D02*
G75*
G03*
X16718447Y-8991279I-40640J0D01*
G01*
X16718447Y-9245279D02*
G75*
G03*
X16718447Y-9245279I-40640J0D01*
G01*
X16718447Y-9499279D02*
G75*
G03*
X16718447Y-9499279I-40640J0D01*
G01*
X16718447Y-9753279D02*
G75*
G03*
X16718447Y-9753279I-40640J0D01*
G01*
X16718447Y-10007279D02*
G75*
G03*
X16718447Y-10007279I-40640J0D01*
G01*
X16718447Y-10261279D02*
G75*
G03*
X16718447Y-10261279I-40640J0D01*
G01*
X16718447Y-10515279D02*
G75*
G03*
X16718447Y-10515279I-40640J0D01*
G01*
X16718447Y-10769279D02*
G75*
G03*
X16718447Y-10769279I-40640J0D01*
G01*
X16718447Y-11023279D02*
G75*
G03*
X16718447Y-11023279I-40640J0D01*
G01*
X16718447Y-11277279D02*
G75*
G03*
X16718447Y-11277279I-40640J0D01*
G01*
X16718447Y-11531279D02*
G75*
G03*
X16718447Y-11531279I-40640J0D01*
G01*
X7851569Y-11148629D02*
X7851569Y-11238629D01*
X7806569Y-11193629D02*
X7896569Y-11193629D01*
X8051569Y-11148629D02*
X8051569Y-11238629D01*
X8006569Y-11193629D02*
X8096569Y-11193629D01*
X8251569Y-11148629D02*
X8251569Y-11238629D01*
X8206569Y-11193629D02*
X8296569Y-11193629D01*
X13250313Y-11762314D02*
X13250313Y-11852314D01*
X13205313Y-11807314D02*
X13295313Y-11807314D01*
X13270313Y-11762314D02*
X13230313Y-11762314D01*
X13230313Y-11762314D02*
G75*
G03*
X13230313Y-11852314I0J-45000D01*
G01*
X13230313Y-11852314D02*
X13270313Y-11852314D01*
X13270313Y-11852314D02*
G75*
G03*
X13270313Y-11762314I0J45000D01*
G01*
X13360313Y-12222314D02*
X13360313Y-12312314D01*
X13315313Y-12267314D02*
X13405313Y-12267314D01*
X13380313Y-12222314D02*
X13340313Y-12222314D01*
X13340313Y-12222314D02*
G75*
G03*
X13340313Y-12312314I0J-45000D01*
G01*
X13340313Y-12312314D02*
X13380313Y-12312314D01*
X13380313Y-12312314D02*
G75*
G03*
X13380313Y-12222314I0J45000D01*
G01*
X13760313Y-12222314D02*
X13760313Y-12312314D01*
X13715313Y-12267314D02*
X13805313Y-12267314D01*
X13780313Y-12222314D02*
X13740313Y-12222314D01*
X13740313Y-12222314D02*
G75*
G03*
X13740313Y-12312314I0J-45000D01*
G01*
X13740313Y-12312314D02*
X13780313Y-12312314D01*
X13780313Y-12312314D02*
G75*
G03*
X13780313Y-12222314I0J45000D01*
G01*
X14060313Y-12222314D02*
X14060313Y-12312314D01*
X14015313Y-12267314D02*
X14105313Y-12267314D01*
X14080313Y-12222314D02*
X14040313Y-12222314D01*
X14040313Y-12222314D02*
G75*
G03*
X14040313Y-12312314I0J-45000D01*
G01*
X14040313Y-12312314D02*
X14080313Y-12312314D01*
X14080313Y-12312314D02*
G75*
G03*
X14080313Y-12222314I0J45000D01*
G01*
X15450313Y-11762314D02*
X15450313Y-11852314D01*
X15405313Y-11807314D02*
X15495313Y-11807314D01*
X15430313Y-11852314D02*
X15470313Y-11852314D01*
X15470313Y-11852314D02*
G75*
G03*
X15470313Y-11762314I0J45000D01*
G01*
X15470313Y-11762314D02*
X15430313Y-11762314D01*
X15430313Y-11762314D02*
G75*
G03*
X15430313Y-11852314I0J-45000D01*
G01*
X15750313Y-11762314D02*
X15750313Y-11852314D01*
X15705313Y-11807314D02*
X15795313Y-11807314D01*
X15730313Y-11852314D02*
X15770313Y-11852314D01*
X15770313Y-11852314D02*
G75*
G03*
X15770313Y-11762314I0J45000D01*
G01*
X15770313Y-11762314D02*
X15730313Y-11762314D01*
X15730313Y-11762314D02*
G75*
G03*
X15730313Y-11852314I0J-45000D01*
G01*
X16150313Y-11762314D02*
X16150313Y-11852314D01*
X16105313Y-11807314D02*
X16195313Y-11807314D01*
X16130313Y-11852314D02*
X16170313Y-11852314D01*
X16170313Y-11852314D02*
G75*
G03*
X16170313Y-11762314I0J45000D01*
G01*
X16170313Y-11762314D02*
X16130313Y-11762314D01*
X16130313Y-11762314D02*
G75*
G03*
X16130313Y-11852314I0J-45000D01*
G01*
X16260313Y-12222314D02*
X16260313Y-12312314D01*
X16215313Y-12267314D02*
X16305313Y-12267314D01*
X16240313Y-12312314D02*
X16280313Y-12312314D01*
X16280313Y-12312314D02*
G75*
G03*
X16280313Y-12222314I0J45000D01*
G01*
X16280313Y-12222314D02*
X16240313Y-12222314D01*
X16240313Y-12222314D02*
G75*
G03*
X16240313Y-12312314I0J-45000D01*
G01*
X21259057Y-11148629D02*
X21259057Y-11238629D01*
X21214057Y-11193629D02*
X21304057Y-11193629D01*
X21459057Y-11148629D02*
X21459057Y-11238629D01*
X21414057Y-11193629D02*
X21504057Y-11193629D01*
X21659057Y-11148629D02*
X21659057Y-11238629D01*
X21614057Y-11193629D02*
X21704057Y-11193629D01*
D13*
X3191471Y-10775781D02*
X3191471Y-10685977D01*
X3101668Y-10685977D01*
X3101668Y-10775781D01*
X3191471Y-10775781D01*
X3191471Y-12475781D02*
X3191471Y-12385977D01*
X3101668Y-12385977D01*
X3101668Y-12475781D01*
X3191471Y-12475781D01*
X3691471Y-10985781D02*
X3691471Y-10895977D01*
X3601668Y-10895977D01*
X3601668Y-10985781D01*
X3691471Y-10985781D01*
X3691471Y-12685781D02*
X3691471Y-12595977D01*
X3601668Y-12595977D01*
X3601668Y-12685781D01*
X3691471Y-12685781D01*
X3996471Y-9075781D02*
X3996471Y-8985977D01*
X3906668Y-8985977D01*
X3906668Y-9075781D01*
X3996471Y-9075781D01*
X4496471Y-9285781D02*
X4496471Y-9195977D01*
X4406668Y-9195977D01*
X4406668Y-9285781D01*
X4496471Y-9285781D01*
X5796471Y-7742281D02*
X5796471Y-7652477D01*
X5706668Y-7652477D01*
X5706668Y-7742281D01*
X5796471Y-7742281D01*
X5796471Y-9442281D02*
X5796471Y-9352477D01*
X5706668Y-9352477D01*
X5706668Y-9442281D01*
X5796471Y-9442281D01*
X5796471Y-11142281D02*
X5796471Y-11052477D01*
X5706668Y-11052477D01*
X5706668Y-11142281D01*
X5796471Y-11142281D01*
X6296471Y-7952281D02*
X6296471Y-7862477D01*
X6206668Y-7862477D01*
X6206668Y-7952281D01*
X6296471Y-7952281D01*
X6296471Y-9652281D02*
X6296471Y-9562477D01*
X6206668Y-9562477D01*
X6206668Y-9652281D01*
X6296471Y-9652281D01*
X6296471Y-11352281D02*
X6296471Y-11262477D01*
X6206668Y-11262477D01*
X6206668Y-11352281D01*
X6296471Y-11352281D01*
X7596471Y-6789781D02*
X7596471Y-6699977D01*
X7506668Y-6699977D01*
X7506668Y-6789781D01*
X7596471Y-6789781D01*
X7596471Y-8489781D02*
X7596471Y-8399977D01*
X7506668Y-8399977D01*
X7506668Y-8489781D01*
X7596471Y-8489781D01*
X7596471Y-10189781D02*
X7596471Y-10099977D01*
X7506668Y-10099977D01*
X7506668Y-10189781D01*
X7596471Y-10189781D01*
X8096471Y-6999781D02*
X8096471Y-6909977D01*
X8006668Y-6909977D01*
X8006668Y-6999781D01*
X8096471Y-6999781D01*
X8096471Y-8699781D02*
X8096471Y-8609977D01*
X8006668Y-8609977D01*
X8006668Y-8699781D01*
X8096471Y-8699781D01*
X8096471Y-10399781D02*
X8096471Y-10309977D01*
X8006668Y-10309977D01*
X8006668Y-10399781D01*
X8096471Y-10399781D01*
X9396471Y-7742281D02*
X9396471Y-7652477D01*
X9306668Y-7652477D01*
X9306668Y-7742281D01*
X9396471Y-7742281D01*
X9396471Y-9442281D02*
X9396471Y-9352477D01*
X9306668Y-9352477D01*
X9306668Y-9442281D01*
X9396471Y-9442281D01*
X9396471Y-11142281D02*
X9396471Y-11052477D01*
X9306668Y-11052477D01*
X9306668Y-11142281D01*
X9396471Y-11142281D01*
X9896471Y-7952281D02*
X9896471Y-7862477D01*
X9806668Y-7862477D01*
X9806668Y-7952281D01*
X9896471Y-7952281D01*
X9896471Y-9652281D02*
X9896471Y-9562477D01*
X9806668Y-9562477D01*
X9806668Y-9652281D01*
X9896471Y-9652281D01*
X9896471Y-11352281D02*
X9896471Y-11262477D01*
X9806668Y-11262477D01*
X9806668Y-11352281D01*
X9896471Y-11352281D01*
X10158471Y-13523531D02*
X10158471Y-13433727D01*
X10068668Y-13433727D01*
X10068668Y-13523531D01*
X10158471Y-13523531D01*
X10658471Y-13733531D02*
X10658471Y-13643727D01*
X10568668Y-13643727D01*
X10568668Y-13733531D01*
X10658471Y-13733531D01*
X11196471Y-7932781D02*
X11196471Y-7842977D01*
X11106668Y-7842977D01*
X11106668Y-7932781D01*
X11196471Y-7932781D01*
X11196471Y-9632781D02*
X11196471Y-9542977D01*
X11106668Y-9542977D01*
X11106668Y-9632781D01*
X11196471Y-9632781D01*
X11196471Y-11332781D02*
X11196471Y-11242977D01*
X11106668Y-11242977D01*
X11106668Y-11332781D01*
X11196471Y-11332781D01*
X11696471Y-8142781D02*
X11696471Y-8052977D01*
X11606668Y-8052977D01*
X11606668Y-8142781D01*
X11696471Y-8142781D01*
X11696471Y-9842781D02*
X11696471Y-9752977D01*
X11606668Y-9752977D01*
X11606668Y-9842781D01*
X11696471Y-9842781D01*
X11696471Y-11542781D02*
X11696471Y-11452977D01*
X11606668Y-11452977D01*
X11606668Y-11542781D01*
X11696471Y-11542781D01*
X12012616Y-13584967D02*
X12012616Y-13495164D01*
X11922813Y-13495164D01*
X11922813Y-13584967D01*
X12012616Y-13584967D01*
X12441227Y-13917221D02*
X12441227Y-13827417D01*
X12351424Y-13827417D01*
X12351424Y-13917221D01*
X12441227Y-13917221D01*
X16621888Y-13843786D02*
X16621888Y-13753983D01*
X16532084Y-13753983D01*
X16532084Y-13843786D01*
X16621888Y-13843786D01*
X17159203Y-13917221D02*
X17159203Y-13827417D01*
X17069399Y-13827417D01*
X17069399Y-13917221D01*
X17159203Y-13917221D01*
X17403959Y-7932781D02*
X17403959Y-7842977D01*
X17314155Y-7842977D01*
X17314155Y-7932781D01*
X17403959Y-7932781D01*
X17403959Y-9632781D02*
X17403959Y-9542977D01*
X17314155Y-9542977D01*
X17314155Y-9632781D01*
X17403959Y-9632781D01*
X17403959Y-11332781D02*
X17403959Y-11242977D01*
X17314155Y-11242977D01*
X17314155Y-11332781D01*
X17403959Y-11332781D01*
X17903959Y-8142781D02*
X17903959Y-8052977D01*
X17814155Y-8052977D01*
X17814155Y-8142781D01*
X17903959Y-8142781D01*
X17903959Y-9842781D02*
X17903959Y-9752977D01*
X17814155Y-9752977D01*
X17814155Y-9842781D01*
X17903959Y-9842781D01*
X17903959Y-11542781D02*
X17903959Y-11452977D01*
X17814155Y-11452977D01*
X17814155Y-11542781D01*
X17903959Y-11542781D01*
X18441959Y-13523531D02*
X18441959Y-13433727D01*
X18352155Y-13433727D01*
X18352155Y-13523531D01*
X18441959Y-13523531D01*
X18941959Y-13733531D02*
X18941959Y-13643727D01*
X18852155Y-13643727D01*
X18852155Y-13733531D01*
X18941959Y-13733531D01*
X19203959Y-7742281D02*
X19203959Y-7652477D01*
X19114155Y-7652477D01*
X19114155Y-7742281D01*
X19203959Y-7742281D01*
X19203959Y-9442281D02*
X19203959Y-9352477D01*
X19114155Y-9352477D01*
X19114155Y-9442281D01*
X19203959Y-9442281D01*
X19203959Y-11142281D02*
X19203959Y-11052477D01*
X19114155Y-11052477D01*
X19114155Y-11142281D01*
X19203959Y-11142281D01*
X19703959Y-7952281D02*
X19703959Y-7862477D01*
X19614155Y-7862477D01*
X19614155Y-7952281D01*
X19703959Y-7952281D01*
X19703959Y-9652281D02*
X19703959Y-9562477D01*
X19614155Y-9562477D01*
X19614155Y-9652281D01*
X19703959Y-9652281D01*
X19703959Y-11352281D02*
X19703959Y-11262477D01*
X19614155Y-11262477D01*
X19614155Y-11352281D01*
X19703959Y-11352281D01*
X21003959Y-6789781D02*
X21003959Y-6699977D01*
X20914155Y-6699977D01*
X20914155Y-6789781D01*
X21003959Y-6789781D01*
X21003959Y-8489781D02*
X21003959Y-8399977D01*
X20914155Y-8399977D01*
X20914155Y-8489781D01*
X21003959Y-8489781D01*
X21003959Y-10189781D02*
X21003959Y-10099977D01*
X20914155Y-10099977D01*
X20914155Y-10189781D01*
X21003959Y-10189781D01*
X21503959Y-6999781D02*
X21503959Y-6909977D01*
X21414155Y-6909977D01*
X21414155Y-6999781D01*
X21503959Y-6999781D01*
X21503959Y-8699781D02*
X21503959Y-8609977D01*
X21414155Y-8609977D01*
X21414155Y-8699781D01*
X21503959Y-8699781D01*
X21503959Y-10399781D02*
X21503959Y-10309977D01*
X21414155Y-10309977D01*
X21414155Y-10399781D01*
X21503959Y-10399781D01*
X22803959Y-7742281D02*
X22803959Y-7652477D01*
X22714155Y-7652477D01*
X22714155Y-7742281D01*
X22803959Y-7742281D01*
X22803959Y-9442281D02*
X22803959Y-9352477D01*
X22714155Y-9352477D01*
X22714155Y-9442281D01*
X22803959Y-9442281D01*
X22803959Y-11142281D02*
X22803959Y-11052477D01*
X22714155Y-11052477D01*
X22714155Y-11142281D01*
X22803959Y-11142281D01*
X23303959Y-7952281D02*
X23303959Y-7862477D01*
X23214155Y-7862477D01*
X23214155Y-7952281D01*
X23303959Y-7952281D01*
X23303959Y-9652281D02*
X23303959Y-9562477D01*
X23214155Y-9562477D01*
X23214155Y-9652281D01*
X23303959Y-9652281D01*
X23303959Y-11352281D02*
X23303959Y-11262477D01*
X23214155Y-11262477D01*
X23214155Y-11352281D01*
X23303959Y-11352281D01*
X24603959Y-9075781D02*
X24603959Y-8985977D01*
X24514155Y-8985977D01*
X24514155Y-9075781D01*
X24603959Y-9075781D01*
X25103959Y-9285781D02*
X25103959Y-9195977D01*
X25014155Y-9195977D01*
X25014155Y-9285781D01*
X25103959Y-9285781D01*
X25408959Y-10775781D02*
X25408959Y-10685977D01*
X25319155Y-10685977D01*
X25319155Y-10775781D01*
X25408959Y-10775781D01*
X25408959Y-12475781D02*
X25408959Y-12385977D01*
X25319155Y-12385977D01*
X25319155Y-12475781D01*
X25408959Y-12475781D01*
X25908959Y-10985781D02*
X25908959Y-10895977D01*
X25819155Y-10895977D01*
X25819155Y-10985781D01*
X25908959Y-10985781D01*
X25908959Y-12685781D02*
X25908959Y-12595977D01*
X25819155Y-12595977D01*
X25819155Y-12685781D01*
X25908959Y-12685781D01*
D14*
X5237725Y-9956447D02*
X5347725Y-9846447D01*
X5237725Y-9736447D01*
X5127725Y-9846447D01*
X5237725Y-9956447D01*
X8957413Y-9131812D02*
X9067413Y-9021812D01*
X8957413Y-8911812D01*
X8847413Y-9021812D01*
X8957413Y-9131812D01*
X20553213Y-9131812D02*
X20663213Y-9021812D01*
X20553213Y-8911812D01*
X20443213Y-9021812D01*
X20553213Y-9131812D01*
X24272901Y-9956447D02*
X24382901Y-9846447D01*
X24272901Y-9736447D01*
X24162901Y-9846447D01*
X24272901Y-9956447D01*
D11*
X2799846Y-14924694D02*
X2799846Y-14724694D01*
X2799846Y-14724694D02*
X2847465Y-14724694D01*
X2847465Y-14724694D02*
X2876037Y-14734218D01*
X2876037Y-14734218D02*
X2895084Y-14753265D01*
X2895084Y-14753265D02*
X2904608Y-14772313D01*
X2904608Y-14772313D02*
X2914132Y-14810408D01*
X2914132Y-14810408D02*
X2914132Y-14838980D01*
X2914132Y-14838980D02*
X2904608Y-14877075D01*
X2904608Y-14877075D02*
X2895084Y-14896122D01*
X2895084Y-14896122D02*
X2876037Y-14915170D01*
X2876037Y-14915170D02*
X2847465Y-14924694D01*
X2847465Y-14924694D02*
X2799846Y-14924694D01*
X2999846Y-14924694D02*
X2999846Y-14791361D01*
X2999846Y-14829456D02*
X3009370Y-14810408D01*
X3009370Y-14810408D02*
X3018894Y-14800884D01*
X3018894Y-14800884D02*
X3037941Y-14791361D01*
X3037941Y-14791361D02*
X3056989Y-14791361D01*
X3123656Y-14924694D02*
X3123656Y-14791361D01*
X3123656Y-14724694D02*
X3114132Y-14734218D01*
X3114132Y-14734218D02*
X3123656Y-14743742D01*
X3123656Y-14743742D02*
X3133179Y-14734218D01*
X3133179Y-14734218D02*
X3123656Y-14724694D01*
X3123656Y-14724694D02*
X3123656Y-14743742D01*
X3247465Y-14924694D02*
X3228417Y-14915170D01*
X3228417Y-14915170D02*
X3218894Y-14896122D01*
X3218894Y-14896122D02*
X3218894Y-14724694D01*
X3352227Y-14924694D02*
X3333179Y-14915170D01*
X3333179Y-14915170D02*
X3323656Y-14896122D01*
X3323656Y-14896122D02*
X3323656Y-14724694D01*
X3580798Y-14924694D02*
X3580798Y-14724694D01*
X3580798Y-14724694D02*
X3647465Y-14867551D01*
X3647465Y-14867551D02*
X3714132Y-14724694D01*
X3714132Y-14724694D02*
X3714132Y-14924694D01*
X3895084Y-14924694D02*
X3895084Y-14819932D01*
X3895084Y-14819932D02*
X3885560Y-14800884D01*
X3885560Y-14800884D02*
X3866513Y-14791361D01*
X3866513Y-14791361D02*
X3828417Y-14791361D01*
X3828417Y-14791361D02*
X3809370Y-14800884D01*
X3895084Y-14915170D02*
X3876037Y-14924694D01*
X3876037Y-14924694D02*
X3828417Y-14924694D01*
X3828417Y-14924694D02*
X3809370Y-14915170D01*
X3809370Y-14915170D02*
X3799846Y-14896122D01*
X3799846Y-14896122D02*
X3799846Y-14877075D01*
X3799846Y-14877075D02*
X3809370Y-14858027D01*
X3809370Y-14858027D02*
X3828417Y-14848503D01*
X3828417Y-14848503D02*
X3876037Y-14848503D01*
X3876037Y-14848503D02*
X3895084Y-14838980D01*
X3990322Y-14791361D02*
X3990322Y-14991361D01*
X3990322Y-14800884D02*
X4009370Y-14791361D01*
X4009370Y-14791361D02*
X4047465Y-14791361D01*
X4047465Y-14791361D02*
X4066513Y-14800884D01*
X4066513Y-14800884D02*
X4076037Y-14810408D01*
X4076037Y-14810408D02*
X4085560Y-14829456D01*
X4085560Y-14829456D02*
X4085560Y-14886599D01*
X4085560Y-14886599D02*
X4076037Y-14905646D01*
X4076037Y-14905646D02*
X4066513Y-14915170D01*
X4066513Y-14915170D02*
X4047465Y-14924694D01*
X4047465Y-14924694D02*
X4009370Y-14924694D01*
X4009370Y-14924694D02*
X3990322Y-14915170D01*
X4171275Y-14905646D02*
X4180798Y-14915170D01*
X4180798Y-14915170D02*
X4171275Y-14924694D01*
X4171275Y-14924694D02*
X4161751Y-14915170D01*
X4161751Y-14915170D02*
X4171275Y-14905646D01*
X4171275Y-14905646D02*
X4171275Y-14924694D01*
X4171275Y-14800884D02*
X4180798Y-14810408D01*
X4180798Y-14810408D02*
X4171275Y-14819932D01*
X4171275Y-14819932D02*
X4161751Y-14810408D01*
X4161751Y-14810408D02*
X4171275Y-14800884D01*
X4171275Y-14800884D02*
X4171275Y-14819932D01*
D12*
X2464069Y-15215710D02*
X2539069Y-15290710D01*
X2539069Y-15215710D02*
X2464069Y-15290710D01*
D11*
X2837941Y-15144694D02*
X2856989Y-15144694D01*
X2856989Y-15144694D02*
X2876037Y-15154218D01*
X2876037Y-15154218D02*
X2885560Y-15163742D01*
X2885560Y-15163742D02*
X2895084Y-15182789D01*
X2895084Y-15182789D02*
X2904608Y-15220884D01*
X2904608Y-15220884D02*
X2904608Y-15268503D01*
X2904608Y-15268503D02*
X2895084Y-15306599D01*
X2895084Y-15306599D02*
X2885560Y-15325646D01*
X2885560Y-15325646D02*
X2876037Y-15335170D01*
X2876037Y-15335170D02*
X2856989Y-15344694D01*
X2856989Y-15344694D02*
X2837941Y-15344694D01*
X2837941Y-15344694D02*
X2818894Y-15335170D01*
X2818894Y-15335170D02*
X2809370Y-15325646D01*
X2809370Y-15325646D02*
X2799846Y-15306599D01*
X2799846Y-15306599D02*
X2790322Y-15268503D01*
X2790322Y-15268503D02*
X2790322Y-15220884D01*
X2790322Y-15220884D02*
X2799846Y-15182789D01*
X2799846Y-15182789D02*
X2809370Y-15163742D01*
X2809370Y-15163742D02*
X2818894Y-15154218D01*
X2818894Y-15154218D02*
X2837941Y-15144694D01*
X2990322Y-15325646D02*
X2999846Y-15335170D01*
X2999846Y-15335170D02*
X2990322Y-15344694D01*
X2990322Y-15344694D02*
X2980798Y-15335170D01*
X2980798Y-15335170D02*
X2990322Y-15325646D01*
X2990322Y-15325646D02*
X2990322Y-15344694D01*
X3066513Y-15144694D02*
X3199846Y-15144694D01*
X3199846Y-15144694D02*
X3114132Y-15344694D01*
X3371275Y-15144694D02*
X3276037Y-15144694D01*
X3276037Y-15144694D02*
X3266513Y-15239932D01*
X3266513Y-15239932D02*
X3276037Y-15230408D01*
X3276037Y-15230408D02*
X3295084Y-15220884D01*
X3295084Y-15220884D02*
X3342703Y-15220884D01*
X3342703Y-15220884D02*
X3361751Y-15230408D01*
X3361751Y-15230408D02*
X3371275Y-15239932D01*
X3371275Y-15239932D02*
X3380798Y-15258980D01*
X3380798Y-15258980D02*
X3380798Y-15306599D01*
X3380798Y-15306599D02*
X3371275Y-15325646D01*
X3371275Y-15325646D02*
X3361751Y-15335170D01*
X3361751Y-15335170D02*
X3342703Y-15344694D01*
X3342703Y-15344694D02*
X3295084Y-15344694D01*
X3295084Y-15344694D02*
X3276037Y-15335170D01*
X3276037Y-15335170D02*
X3266513Y-15325646D01*
X3504608Y-15144694D02*
X3523656Y-15144694D01*
X3523656Y-15144694D02*
X3542703Y-15154218D01*
X3542703Y-15154218D02*
X3552227Y-15163742D01*
X3552227Y-15163742D02*
X3561751Y-15182789D01*
X3561751Y-15182789D02*
X3571275Y-15220884D01*
X3571275Y-15220884D02*
X3571275Y-15268503D01*
X3571275Y-15268503D02*
X3561751Y-15306599D01*
X3561751Y-15306599D02*
X3552227Y-15325646D01*
X3552227Y-15325646D02*
X3542703Y-15335170D01*
X3542703Y-15335170D02*
X3523656Y-15344694D01*
X3523656Y-15344694D02*
X3504608Y-15344694D01*
X3504608Y-15344694D02*
X3485560Y-15335170D01*
X3485560Y-15335170D02*
X3476037Y-15325646D01*
X3476037Y-15325646D02*
X3466513Y-15306599D01*
X3466513Y-15306599D02*
X3456989Y-15268503D01*
X3456989Y-15268503D02*
X3456989Y-15220884D01*
X3456989Y-15220884D02*
X3466513Y-15182789D01*
X3466513Y-15182789D02*
X3476037Y-15163742D01*
X3476037Y-15163742D02*
X3485560Y-15154218D01*
X3485560Y-15154218D02*
X3504608Y-15144694D01*
X3656989Y-15344694D02*
X3656989Y-15211361D01*
X3656989Y-15230408D02*
X3666513Y-15220884D01*
X3666513Y-15220884D02*
X3685560Y-15211361D01*
X3685560Y-15211361D02*
X3714132Y-15211361D01*
X3714132Y-15211361D02*
X3733179Y-15220884D01*
X3733179Y-15220884D02*
X3742703Y-15239932D01*
X3742703Y-15239932D02*
X3742703Y-15344694D01*
X3742703Y-15239932D02*
X3752227Y-15220884D01*
X3752227Y-15220884D02*
X3771275Y-15211361D01*
X3771275Y-15211361D02*
X3799846Y-15211361D01*
X3799846Y-15211361D02*
X3818894Y-15220884D01*
X3818894Y-15220884D02*
X3828418Y-15239932D01*
X3828418Y-15239932D02*
X3828418Y-15344694D01*
X3923656Y-15344694D02*
X3923656Y-15211361D01*
X3923656Y-15230408D02*
X3933179Y-15220884D01*
X3933179Y-15220884D02*
X3952227Y-15211361D01*
X3952227Y-15211361D02*
X3980799Y-15211361D01*
X3980799Y-15211361D02*
X3999846Y-15220884D01*
X3999846Y-15220884D02*
X4009370Y-15239932D01*
X4009370Y-15239932D02*
X4009370Y-15344694D01*
X4009370Y-15239932D02*
X4018894Y-15220884D01*
X4018894Y-15220884D02*
X4037941Y-15211361D01*
X4037941Y-15211361D02*
X4066513Y-15211361D01*
X4066513Y-15211361D02*
X4085560Y-15220884D01*
X4085560Y-15220884D02*
X4095084Y-15239932D01*
X4095084Y-15239932D02*
X4095084Y-15344694D01*
X4485561Y-15135170D02*
X4314132Y-15392313D01*
X4742703Y-15144694D02*
X4761751Y-15144694D01*
X4761751Y-15144694D02*
X4780799Y-15154218D01*
X4780799Y-15154218D02*
X4790323Y-15163742D01*
X4790323Y-15163742D02*
X4799846Y-15182789D01*
X4799846Y-15182789D02*
X4809370Y-15220884D01*
X4809370Y-15220884D02*
X4809370Y-15268503D01*
X4809370Y-15268503D02*
X4799846Y-15306599D01*
X4799846Y-15306599D02*
X4790323Y-15325646D01*
X4790323Y-15325646D02*
X4780799Y-15335170D01*
X4780799Y-15335170D02*
X4761751Y-15344694D01*
X4761751Y-15344694D02*
X4742703Y-15344694D01*
X4742703Y-15344694D02*
X4723656Y-15335170D01*
X4723656Y-15335170D02*
X4714132Y-15325646D01*
X4714132Y-15325646D02*
X4704608Y-15306599D01*
X4704608Y-15306599D02*
X4695084Y-15268503D01*
X4695084Y-15268503D02*
X4695084Y-15220884D01*
X4695084Y-15220884D02*
X4704608Y-15182789D01*
X4704608Y-15182789D02*
X4714132Y-15163742D01*
X4714132Y-15163742D02*
X4723656Y-15154218D01*
X4723656Y-15154218D02*
X4742703Y-15144694D01*
X4895084Y-15325646D02*
X4904608Y-15335170D01*
X4904608Y-15335170D02*
X4895084Y-15344694D01*
X4895084Y-15344694D02*
X4885561Y-15335170D01*
X4885561Y-15335170D02*
X4895084Y-15325646D01*
X4895084Y-15325646D02*
X4895084Y-15344694D01*
X5028418Y-15144694D02*
X5047465Y-15144694D01*
X5047465Y-15144694D02*
X5066513Y-15154218D01*
X5066513Y-15154218D02*
X5076037Y-15163742D01*
X5076037Y-15163742D02*
X5085561Y-15182789D01*
X5085561Y-15182789D02*
X5095084Y-15220884D01*
X5095084Y-15220884D02*
X5095084Y-15268503D01*
X5095084Y-15268503D02*
X5085561Y-15306599D01*
X5085561Y-15306599D02*
X5076037Y-15325646D01*
X5076037Y-15325646D02*
X5066513Y-15335170D01*
X5066513Y-15335170D02*
X5047465Y-15344694D01*
X5047465Y-15344694D02*
X5028418Y-15344694D01*
X5028418Y-15344694D02*
X5009370Y-15335170D01*
X5009370Y-15335170D02*
X4999846Y-15325646D01*
X4999846Y-15325646D02*
X4990323Y-15306599D01*
X4990323Y-15306599D02*
X4980799Y-15268503D01*
X4980799Y-15268503D02*
X4980799Y-15220884D01*
X4980799Y-15220884D02*
X4990323Y-15182789D01*
X4990323Y-15182789D02*
X4999846Y-15163742D01*
X4999846Y-15163742D02*
X5009370Y-15154218D01*
X5009370Y-15154218D02*
X5028418Y-15144694D01*
X5171275Y-15163742D02*
X5180799Y-15154218D01*
X5180799Y-15154218D02*
X5199846Y-15144694D01*
X5199846Y-15144694D02*
X5247465Y-15144694D01*
X5247465Y-15144694D02*
X5266513Y-15154218D01*
X5266513Y-15154218D02*
X5276037Y-15163742D01*
X5276037Y-15163742D02*
X5285561Y-15182789D01*
X5285561Y-15182789D02*
X5285561Y-15201837D01*
X5285561Y-15201837D02*
X5276037Y-15230408D01*
X5276037Y-15230408D02*
X5161751Y-15344694D01*
X5161751Y-15344694D02*
X5285561Y-15344694D01*
X5380799Y-15344694D02*
X5418894Y-15344694D01*
X5418894Y-15344694D02*
X5437942Y-15335170D01*
X5437942Y-15335170D02*
X5447465Y-15325646D01*
X5447465Y-15325646D02*
X5466513Y-15297075D01*
X5466513Y-15297075D02*
X5476037Y-15258980D01*
X5476037Y-15258980D02*
X5476037Y-15182789D01*
X5476037Y-15182789D02*
X5466513Y-15163742D01*
X5466513Y-15163742D02*
X5456989Y-15154218D01*
X5456989Y-15154218D02*
X5437942Y-15144694D01*
X5437942Y-15144694D02*
X5399846Y-15144694D01*
X5399846Y-15144694D02*
X5380799Y-15154218D01*
X5380799Y-15154218D02*
X5371275Y-15163742D01*
X5371275Y-15163742D02*
X5361751Y-15182789D01*
X5361751Y-15182789D02*
X5361751Y-15230408D01*
X5361751Y-15230408D02*
X5371275Y-15249456D01*
X5371275Y-15249456D02*
X5380799Y-15258980D01*
X5380799Y-15258980D02*
X5399846Y-15268503D01*
X5399846Y-15268503D02*
X5437942Y-15268503D01*
X5437942Y-15268503D02*
X5456989Y-15258980D01*
X5456989Y-15258980D02*
X5466513Y-15249456D01*
X5466513Y-15249456D02*
X5476037Y-15230408D01*
X5656989Y-15144694D02*
X5561751Y-15144694D01*
X5561751Y-15144694D02*
X5552227Y-15239932D01*
X5552227Y-15239932D02*
X5561751Y-15230408D01*
X5561751Y-15230408D02*
X5580799Y-15220884D01*
X5580799Y-15220884D02*
X5628418Y-15220884D01*
X5628418Y-15220884D02*
X5647465Y-15230408D01*
X5647465Y-15230408D02*
X5656989Y-15239932D01*
X5656989Y-15239932D02*
X5666513Y-15258980D01*
X5666513Y-15258980D02*
X5666513Y-15306599D01*
X5666513Y-15306599D02*
X5656989Y-15325646D01*
X5656989Y-15325646D02*
X5647465Y-15335170D01*
X5647465Y-15335170D02*
X5628418Y-15344694D01*
X5628418Y-15344694D02*
X5580799Y-15344694D01*
X5580799Y-15344694D02*
X5561751Y-15335170D01*
X5561751Y-15335170D02*
X5552227Y-15325646D01*
X5742703Y-15144694D02*
X5742703Y-15182789D01*
X5818894Y-15144694D02*
X5818894Y-15182789D01*
X6114132Y-15420884D02*
X6104608Y-15411361D01*
X6104608Y-15411361D02*
X6085561Y-15382789D01*
X6085561Y-15382789D02*
X6076037Y-15363742D01*
X6076037Y-15363742D02*
X6066513Y-15335170D01*
X6066513Y-15335170D02*
X6056989Y-15287551D01*
X6056989Y-15287551D02*
X6056989Y-15249456D01*
X6056989Y-15249456D02*
X6066513Y-15201837D01*
X6066513Y-15201837D02*
X6076037Y-15173265D01*
X6076037Y-15173265D02*
X6085561Y-15154218D01*
X6085561Y-15154218D02*
X6104608Y-15125646D01*
X6104608Y-15125646D02*
X6114132Y-15116122D01*
X6276037Y-15211361D02*
X6276037Y-15344694D01*
X6228418Y-15135170D02*
X6180799Y-15278027D01*
X6180799Y-15278027D02*
X6304608Y-15278027D01*
X6533180Y-15344694D02*
X6533180Y-15144694D01*
X6618894Y-15344694D02*
X6618894Y-15239932D01*
X6618894Y-15239932D02*
X6609370Y-15220884D01*
X6609370Y-15220884D02*
X6590323Y-15211361D01*
X6590323Y-15211361D02*
X6561751Y-15211361D01*
X6561751Y-15211361D02*
X6542704Y-15220884D01*
X6542704Y-15220884D02*
X6533180Y-15230408D01*
X6742704Y-15344694D02*
X6723656Y-15335170D01*
X6723656Y-15335170D02*
X6714132Y-15325646D01*
X6714132Y-15325646D02*
X6704608Y-15306599D01*
X6704608Y-15306599D02*
X6704608Y-15249456D01*
X6704608Y-15249456D02*
X6714132Y-15230408D01*
X6714132Y-15230408D02*
X6723656Y-15220884D01*
X6723656Y-15220884D02*
X6742704Y-15211361D01*
X6742704Y-15211361D02*
X6771275Y-15211361D01*
X6771275Y-15211361D02*
X6790323Y-15220884D01*
X6790323Y-15220884D02*
X6799846Y-15230408D01*
X6799846Y-15230408D02*
X6809370Y-15249456D01*
X6809370Y-15249456D02*
X6809370Y-15306599D01*
X6809370Y-15306599D02*
X6799846Y-15325646D01*
X6799846Y-15325646D02*
X6790323Y-15335170D01*
X6790323Y-15335170D02*
X6771275Y-15344694D01*
X6771275Y-15344694D02*
X6742704Y-15344694D01*
X6923656Y-15344694D02*
X6904608Y-15335170D01*
X6904608Y-15335170D02*
X6895085Y-15316122D01*
X6895085Y-15316122D02*
X6895085Y-15144694D01*
X7076037Y-15335170D02*
X7056989Y-15344694D01*
X7056989Y-15344694D02*
X7018894Y-15344694D01*
X7018894Y-15344694D02*
X6999846Y-15335170D01*
X6999846Y-15335170D02*
X6990323Y-15316122D01*
X6990323Y-15316122D02*
X6990323Y-15239932D01*
X6990323Y-15239932D02*
X6999846Y-15220884D01*
X6999846Y-15220884D02*
X7018894Y-15211361D01*
X7018894Y-15211361D02*
X7056989Y-15211361D01*
X7056989Y-15211361D02*
X7076037Y-15220884D01*
X7076037Y-15220884D02*
X7085561Y-15239932D01*
X7085561Y-15239932D02*
X7085561Y-15258980D01*
X7085561Y-15258980D02*
X6990323Y-15278027D01*
X7161751Y-15335170D02*
X7180799Y-15344694D01*
X7180799Y-15344694D02*
X7218894Y-15344694D01*
X7218894Y-15344694D02*
X7237942Y-15335170D01*
X7237942Y-15335170D02*
X7247466Y-15316122D01*
X7247466Y-15316122D02*
X7247466Y-15306599D01*
X7247466Y-15306599D02*
X7237942Y-15287551D01*
X7237942Y-15287551D02*
X7218894Y-15278027D01*
X7218894Y-15278027D02*
X7190323Y-15278027D01*
X7190323Y-15278027D02*
X7171275Y-15268503D01*
X7171275Y-15268503D02*
X7161751Y-15249456D01*
X7161751Y-15249456D02*
X7161751Y-15239932D01*
X7161751Y-15239932D02*
X7171275Y-15220884D01*
X7171275Y-15220884D02*
X7190323Y-15211361D01*
X7190323Y-15211361D02*
X7218894Y-15211361D01*
X7218894Y-15211361D02*
X7237942Y-15220884D01*
X7314132Y-15420884D02*
X7323656Y-15411361D01*
X7323656Y-15411361D02*
X7342704Y-15382789D01*
X7342704Y-15382789D02*
X7352227Y-15363742D01*
X7352227Y-15363742D02*
X7361751Y-15335170D01*
X7361751Y-15335170D02*
X7371275Y-15287551D01*
X7371275Y-15287551D02*
X7371275Y-15249456D01*
X7371275Y-15249456D02*
X7361751Y-15201837D01*
X7361751Y-15201837D02*
X7352227Y-15173265D01*
X7352227Y-15173265D02*
X7342704Y-15154218D01*
X7342704Y-15154218D02*
X7323656Y-15125646D01*
X7323656Y-15125646D02*
X7314132Y-15116122D01*
D12*
X2539069Y-15517210D02*
G75*
G03*
X2539069Y-15517210I-40640J0D01*
G01*
D11*
X2837941Y-15408694D02*
X2856989Y-15408694D01*
X2856989Y-15408694D02*
X2876037Y-15418218D01*
X2876037Y-15418218D02*
X2885560Y-15427742D01*
X2885560Y-15427742D02*
X2895084Y-15446789D01*
X2895084Y-15446789D02*
X2904608Y-15484884D01*
X2904608Y-15484884D02*
X2904608Y-15532503D01*
X2904608Y-15532503D02*
X2895084Y-15570599D01*
X2895084Y-15570599D02*
X2885560Y-15589646D01*
X2885560Y-15589646D02*
X2876037Y-15599170D01*
X2876037Y-15599170D02*
X2856989Y-15608694D01*
X2856989Y-15608694D02*
X2837941Y-15608694D01*
X2837941Y-15608694D02*
X2818894Y-15599170D01*
X2818894Y-15599170D02*
X2809370Y-15589646D01*
X2809370Y-15589646D02*
X2799846Y-15570599D01*
X2799846Y-15570599D02*
X2790322Y-15532503D01*
X2790322Y-15532503D02*
X2790322Y-15484884D01*
X2790322Y-15484884D02*
X2799846Y-15446789D01*
X2799846Y-15446789D02*
X2809370Y-15427742D01*
X2809370Y-15427742D02*
X2818894Y-15418218D01*
X2818894Y-15418218D02*
X2837941Y-15408694D01*
X2990322Y-15589646D02*
X2999846Y-15599170D01*
X2999846Y-15599170D02*
X2990322Y-15608694D01*
X2990322Y-15608694D02*
X2980798Y-15599170D01*
X2980798Y-15599170D02*
X2990322Y-15589646D01*
X2990322Y-15589646D02*
X2990322Y-15608694D01*
X3114132Y-15494408D02*
X3095084Y-15484884D01*
X3095084Y-15484884D02*
X3085560Y-15475361D01*
X3085560Y-15475361D02*
X3076037Y-15456313D01*
X3076037Y-15456313D02*
X3076037Y-15446789D01*
X3076037Y-15446789D02*
X3085560Y-15427742D01*
X3085560Y-15427742D02*
X3095084Y-15418218D01*
X3095084Y-15418218D02*
X3114132Y-15408694D01*
X3114132Y-15408694D02*
X3152227Y-15408694D01*
X3152227Y-15408694D02*
X3171275Y-15418218D01*
X3171275Y-15418218D02*
X3180798Y-15427742D01*
X3180798Y-15427742D02*
X3190322Y-15446789D01*
X3190322Y-15446789D02*
X3190322Y-15456313D01*
X3190322Y-15456313D02*
X3180798Y-15475361D01*
X3180798Y-15475361D02*
X3171275Y-15484884D01*
X3171275Y-15484884D02*
X3152227Y-15494408D01*
X3152227Y-15494408D02*
X3114132Y-15494408D01*
X3114132Y-15494408D02*
X3095084Y-15503932D01*
X3095084Y-15503932D02*
X3085560Y-15513456D01*
X3085560Y-15513456D02*
X3076037Y-15532503D01*
X3076037Y-15532503D02*
X3076037Y-15570599D01*
X3076037Y-15570599D02*
X3085560Y-15589646D01*
X3085560Y-15589646D02*
X3095084Y-15599170D01*
X3095084Y-15599170D02*
X3114132Y-15608694D01*
X3114132Y-15608694D02*
X3152227Y-15608694D01*
X3152227Y-15608694D02*
X3171275Y-15599170D01*
X3171275Y-15599170D02*
X3180798Y-15589646D01*
X3180798Y-15589646D02*
X3190322Y-15570599D01*
X3190322Y-15570599D02*
X3190322Y-15532503D01*
X3190322Y-15532503D02*
X3180798Y-15513456D01*
X3180798Y-15513456D02*
X3171275Y-15503932D01*
X3171275Y-15503932D02*
X3152227Y-15494408D01*
X3380798Y-15608694D02*
X3266513Y-15608694D01*
X3323656Y-15608694D02*
X3323656Y-15408694D01*
X3323656Y-15408694D02*
X3304608Y-15437265D01*
X3304608Y-15437265D02*
X3285560Y-15456313D01*
X3285560Y-15456313D02*
X3266513Y-15465837D01*
X3447465Y-15408694D02*
X3571275Y-15408694D01*
X3571275Y-15408694D02*
X3504608Y-15484884D01*
X3504608Y-15484884D02*
X3533179Y-15484884D01*
X3533179Y-15484884D02*
X3552227Y-15494408D01*
X3552227Y-15494408D02*
X3561751Y-15503932D01*
X3561751Y-15503932D02*
X3571275Y-15522980D01*
X3571275Y-15522980D02*
X3571275Y-15570599D01*
X3571275Y-15570599D02*
X3561751Y-15589646D01*
X3561751Y-15589646D02*
X3552227Y-15599170D01*
X3552227Y-15599170D02*
X3533179Y-15608694D01*
X3533179Y-15608694D02*
X3476037Y-15608694D01*
X3476037Y-15608694D02*
X3456989Y-15599170D01*
X3456989Y-15599170D02*
X3447465Y-15589646D01*
X3656989Y-15608694D02*
X3656989Y-15475361D01*
X3656989Y-15494408D02*
X3666513Y-15484884D01*
X3666513Y-15484884D02*
X3685560Y-15475361D01*
X3685560Y-15475361D02*
X3714132Y-15475361D01*
X3714132Y-15475361D02*
X3733179Y-15484884D01*
X3733179Y-15484884D02*
X3742703Y-15503932D01*
X3742703Y-15503932D02*
X3742703Y-15608694D01*
X3742703Y-15503932D02*
X3752227Y-15484884D01*
X3752227Y-15484884D02*
X3771275Y-15475361D01*
X3771275Y-15475361D02*
X3799846Y-15475361D01*
X3799846Y-15475361D02*
X3818894Y-15484884D01*
X3818894Y-15484884D02*
X3828418Y-15503932D01*
X3828418Y-15503932D02*
X3828418Y-15608694D01*
X3923656Y-15608694D02*
X3923656Y-15475361D01*
X3923656Y-15494408D02*
X3933179Y-15484884D01*
X3933179Y-15484884D02*
X3952227Y-15475361D01*
X3952227Y-15475361D02*
X3980799Y-15475361D01*
X3980799Y-15475361D02*
X3999846Y-15484884D01*
X3999846Y-15484884D02*
X4009370Y-15503932D01*
X4009370Y-15503932D02*
X4009370Y-15608694D01*
X4009370Y-15503932D02*
X4018894Y-15484884D01*
X4018894Y-15484884D02*
X4037941Y-15475361D01*
X4037941Y-15475361D02*
X4066513Y-15475361D01*
X4066513Y-15475361D02*
X4085560Y-15484884D01*
X4085560Y-15484884D02*
X4095084Y-15503932D01*
X4095084Y-15503932D02*
X4095084Y-15608694D01*
X4485561Y-15399170D02*
X4314132Y-15656313D01*
X4742703Y-15408694D02*
X4761751Y-15408694D01*
X4761751Y-15408694D02*
X4780799Y-15418218D01*
X4780799Y-15418218D02*
X4790323Y-15427742D01*
X4790323Y-15427742D02*
X4799846Y-15446789D01*
X4799846Y-15446789D02*
X4809370Y-15484884D01*
X4809370Y-15484884D02*
X4809370Y-15532503D01*
X4809370Y-15532503D02*
X4799846Y-15570599D01*
X4799846Y-15570599D02*
X4790323Y-15589646D01*
X4790323Y-15589646D02*
X4780799Y-15599170D01*
X4780799Y-15599170D02*
X4761751Y-15608694D01*
X4761751Y-15608694D02*
X4742703Y-15608694D01*
X4742703Y-15608694D02*
X4723656Y-15599170D01*
X4723656Y-15599170D02*
X4714132Y-15589646D01*
X4714132Y-15589646D02*
X4704608Y-15570599D01*
X4704608Y-15570599D02*
X4695084Y-15532503D01*
X4695084Y-15532503D02*
X4695084Y-15484884D01*
X4695084Y-15484884D02*
X4704608Y-15446789D01*
X4704608Y-15446789D02*
X4714132Y-15427742D01*
X4714132Y-15427742D02*
X4723656Y-15418218D01*
X4723656Y-15418218D02*
X4742703Y-15408694D01*
X4895084Y-15589646D02*
X4904608Y-15599170D01*
X4904608Y-15599170D02*
X4895084Y-15608694D01*
X4895084Y-15608694D02*
X4885561Y-15599170D01*
X4885561Y-15599170D02*
X4895084Y-15589646D01*
X4895084Y-15589646D02*
X4895084Y-15608694D01*
X5028418Y-15408694D02*
X5047465Y-15408694D01*
X5047465Y-15408694D02*
X5066513Y-15418218D01*
X5066513Y-15418218D02*
X5076037Y-15427742D01*
X5076037Y-15427742D02*
X5085561Y-15446789D01*
X5085561Y-15446789D02*
X5095084Y-15484884D01*
X5095084Y-15484884D02*
X5095084Y-15532503D01*
X5095084Y-15532503D02*
X5085561Y-15570599D01*
X5085561Y-15570599D02*
X5076037Y-15589646D01*
X5076037Y-15589646D02*
X5066513Y-15599170D01*
X5066513Y-15599170D02*
X5047465Y-15608694D01*
X5047465Y-15608694D02*
X5028418Y-15608694D01*
X5028418Y-15608694D02*
X5009370Y-15599170D01*
X5009370Y-15599170D02*
X4999846Y-15589646D01*
X4999846Y-15589646D02*
X4990323Y-15570599D01*
X4990323Y-15570599D02*
X4980799Y-15532503D01*
X4980799Y-15532503D02*
X4980799Y-15484884D01*
X4980799Y-15484884D02*
X4990323Y-15446789D01*
X4990323Y-15446789D02*
X4999846Y-15427742D01*
X4999846Y-15427742D02*
X5009370Y-15418218D01*
X5009370Y-15418218D02*
X5028418Y-15408694D01*
X5161751Y-15408694D02*
X5285561Y-15408694D01*
X5285561Y-15408694D02*
X5218894Y-15484884D01*
X5218894Y-15484884D02*
X5247465Y-15484884D01*
X5247465Y-15484884D02*
X5266513Y-15494408D01*
X5266513Y-15494408D02*
X5276037Y-15503932D01*
X5276037Y-15503932D02*
X5285561Y-15522980D01*
X5285561Y-15522980D02*
X5285561Y-15570599D01*
X5285561Y-15570599D02*
X5276037Y-15589646D01*
X5276037Y-15589646D02*
X5266513Y-15599170D01*
X5266513Y-15599170D02*
X5247465Y-15608694D01*
X5247465Y-15608694D02*
X5190323Y-15608694D01*
X5190323Y-15608694D02*
X5171275Y-15599170D01*
X5171275Y-15599170D02*
X5161751Y-15589646D01*
X5361751Y-15427742D02*
X5371275Y-15418218D01*
X5371275Y-15418218D02*
X5390323Y-15408694D01*
X5390323Y-15408694D02*
X5437942Y-15408694D01*
X5437942Y-15408694D02*
X5456989Y-15418218D01*
X5456989Y-15418218D02*
X5466513Y-15427742D01*
X5466513Y-15427742D02*
X5476037Y-15446789D01*
X5476037Y-15446789D02*
X5476037Y-15465837D01*
X5476037Y-15465837D02*
X5466513Y-15494408D01*
X5466513Y-15494408D02*
X5352227Y-15608694D01*
X5352227Y-15608694D02*
X5476037Y-15608694D01*
X5599846Y-15408694D02*
X5618894Y-15408694D01*
X5618894Y-15408694D02*
X5637942Y-15418218D01*
X5637942Y-15418218D02*
X5647465Y-15427742D01*
X5647465Y-15427742D02*
X5656989Y-15446789D01*
X5656989Y-15446789D02*
X5666513Y-15484884D01*
X5666513Y-15484884D02*
X5666513Y-15532503D01*
X5666513Y-15532503D02*
X5656989Y-15570599D01*
X5656989Y-15570599D02*
X5647465Y-15589646D01*
X5647465Y-15589646D02*
X5637942Y-15599170D01*
X5637942Y-15599170D02*
X5618894Y-15608694D01*
X5618894Y-15608694D02*
X5599846Y-15608694D01*
X5599846Y-15608694D02*
X5580799Y-15599170D01*
X5580799Y-15599170D02*
X5571275Y-15589646D01*
X5571275Y-15589646D02*
X5561751Y-15570599D01*
X5561751Y-15570599D02*
X5552227Y-15532503D01*
X5552227Y-15532503D02*
X5552227Y-15484884D01*
X5552227Y-15484884D02*
X5561751Y-15446789D01*
X5561751Y-15446789D02*
X5571275Y-15427742D01*
X5571275Y-15427742D02*
X5580799Y-15418218D01*
X5580799Y-15418218D02*
X5599846Y-15408694D01*
X5742703Y-15408694D02*
X5742703Y-15446789D01*
X5818894Y-15408694D02*
X5818894Y-15446789D01*
X6114132Y-15684884D02*
X6104608Y-15675361D01*
X6104608Y-15675361D02*
X6085561Y-15646789D01*
X6085561Y-15646789D02*
X6076037Y-15627742D01*
X6076037Y-15627742D02*
X6066513Y-15599170D01*
X6066513Y-15599170D02*
X6056989Y-15551551D01*
X6056989Y-15551551D02*
X6056989Y-15513456D01*
X6056989Y-15513456D02*
X6066513Y-15465837D01*
X6066513Y-15465837D02*
X6076037Y-15437265D01*
X6076037Y-15437265D02*
X6085561Y-15418218D01*
X6085561Y-15418218D02*
X6104608Y-15389646D01*
X6104608Y-15389646D02*
X6114132Y-15380122D01*
X6285561Y-15408694D02*
X6190323Y-15408694D01*
X6190323Y-15408694D02*
X6180799Y-15503932D01*
X6180799Y-15503932D02*
X6190323Y-15494408D01*
X6190323Y-15494408D02*
X6209370Y-15484884D01*
X6209370Y-15484884D02*
X6256989Y-15484884D01*
X6256989Y-15484884D02*
X6276037Y-15494408D01*
X6276037Y-15494408D02*
X6285561Y-15503932D01*
X6285561Y-15503932D02*
X6295084Y-15522980D01*
X6295084Y-15522980D02*
X6295084Y-15570599D01*
X6295084Y-15570599D02*
X6285561Y-15589646D01*
X6285561Y-15589646D02*
X6276037Y-15599170D01*
X6276037Y-15599170D02*
X6256989Y-15608694D01*
X6256989Y-15608694D02*
X6209370Y-15608694D01*
X6209370Y-15608694D02*
X6190323Y-15599170D01*
X6190323Y-15599170D02*
X6180799Y-15589646D01*
X6371275Y-15427742D02*
X6380799Y-15418218D01*
X6380799Y-15418218D02*
X6399846Y-15408694D01*
X6399846Y-15408694D02*
X6447465Y-15408694D01*
X6447465Y-15408694D02*
X6466513Y-15418218D01*
X6466513Y-15418218D02*
X6476037Y-15427742D01*
X6476037Y-15427742D02*
X6485561Y-15446789D01*
X6485561Y-15446789D02*
X6485561Y-15465837D01*
X6485561Y-15465837D02*
X6476037Y-15494408D01*
X6476037Y-15494408D02*
X6361751Y-15608694D01*
X6361751Y-15608694D02*
X6485561Y-15608694D01*
X6723656Y-15608694D02*
X6723656Y-15408694D01*
X6809370Y-15608694D02*
X6809370Y-15503932D01*
X6809370Y-15503932D02*
X6799846Y-15484884D01*
X6799846Y-15484884D02*
X6780799Y-15475361D01*
X6780799Y-15475361D02*
X6752227Y-15475361D01*
X6752227Y-15475361D02*
X6733180Y-15484884D01*
X6733180Y-15484884D02*
X6723656Y-15494408D01*
X6933180Y-15608694D02*
X6914132Y-15599170D01*
X6914132Y-15599170D02*
X6904608Y-15589646D01*
X6904608Y-15589646D02*
X6895085Y-15570599D01*
X6895085Y-15570599D02*
X6895085Y-15513456D01*
X6895085Y-15513456D02*
X6904608Y-15494408D01*
X6904608Y-15494408D02*
X6914132Y-15484884D01*
X6914132Y-15484884D02*
X6933180Y-15475361D01*
X6933180Y-15475361D02*
X6961751Y-15475361D01*
X6961751Y-15475361D02*
X6980799Y-15484884D01*
X6980799Y-15484884D02*
X6990323Y-15494408D01*
X6990323Y-15494408D02*
X6999846Y-15513456D01*
X6999846Y-15513456D02*
X6999846Y-15570599D01*
X6999846Y-15570599D02*
X6990323Y-15589646D01*
X6990323Y-15589646D02*
X6980799Y-15599170D01*
X6980799Y-15599170D02*
X6961751Y-15608694D01*
X6961751Y-15608694D02*
X6933180Y-15608694D01*
X7114132Y-15608694D02*
X7095085Y-15599170D01*
X7095085Y-15599170D02*
X7085561Y-15580122D01*
X7085561Y-15580122D02*
X7085561Y-15408694D01*
X7266513Y-15599170D02*
X7247466Y-15608694D01*
X7247466Y-15608694D02*
X7209370Y-15608694D01*
X7209370Y-15608694D02*
X7190323Y-15599170D01*
X7190323Y-15599170D02*
X7180799Y-15580122D01*
X7180799Y-15580122D02*
X7180799Y-15503932D01*
X7180799Y-15503932D02*
X7190323Y-15484884D01*
X7190323Y-15484884D02*
X7209370Y-15475361D01*
X7209370Y-15475361D02*
X7247466Y-15475361D01*
X7247466Y-15475361D02*
X7266513Y-15484884D01*
X7266513Y-15484884D02*
X7276037Y-15503932D01*
X7276037Y-15503932D02*
X7276037Y-15522980D01*
X7276037Y-15522980D02*
X7180799Y-15542027D01*
X7352227Y-15599170D02*
X7371275Y-15608694D01*
X7371275Y-15608694D02*
X7409370Y-15608694D01*
X7409370Y-15608694D02*
X7428418Y-15599170D01*
X7428418Y-15599170D02*
X7437942Y-15580122D01*
X7437942Y-15580122D02*
X7437942Y-15570599D01*
X7437942Y-15570599D02*
X7428418Y-15551551D01*
X7428418Y-15551551D02*
X7409370Y-15542027D01*
X7409370Y-15542027D02*
X7380799Y-15542027D01*
X7380799Y-15542027D02*
X7361751Y-15532503D01*
X7361751Y-15532503D02*
X7352227Y-15513456D01*
X7352227Y-15513456D02*
X7352227Y-15503932D01*
X7352227Y-15503932D02*
X7361751Y-15484884D01*
X7361751Y-15484884D02*
X7380799Y-15475361D01*
X7380799Y-15475361D02*
X7409370Y-15475361D01*
X7409370Y-15475361D02*
X7428418Y-15484884D01*
X7504608Y-15684884D02*
X7514132Y-15675361D01*
X7514132Y-15675361D02*
X7533180Y-15646789D01*
X7533180Y-15646789D02*
X7542704Y-15627742D01*
X7542704Y-15627742D02*
X7552227Y-15599170D01*
X7552227Y-15599170D02*
X7561751Y-15551551D01*
X7561751Y-15551551D02*
X7561751Y-15513456D01*
X7561751Y-15513456D02*
X7552227Y-15465837D01*
X7552227Y-15465837D02*
X7542704Y-15437265D01*
X7542704Y-15437265D02*
X7533180Y-15418218D01*
X7533180Y-15418218D02*
X7514132Y-15389646D01*
X7514132Y-15389646D02*
X7504608Y-15380122D01*
D12*
X2494069Y-15736210D02*
X2494069Y-15826210D01*
X2449069Y-15781210D02*
X2539069Y-15781210D01*
D11*
X2837941Y-15672694D02*
X2856989Y-15672694D01*
X2856989Y-15672694D02*
X2876037Y-15682218D01*
X2876037Y-15682218D02*
X2885560Y-15691742D01*
X2885560Y-15691742D02*
X2895084Y-15710789D01*
X2895084Y-15710789D02*
X2904608Y-15748884D01*
X2904608Y-15748884D02*
X2904608Y-15796503D01*
X2904608Y-15796503D02*
X2895084Y-15834599D01*
X2895084Y-15834599D02*
X2885560Y-15853646D01*
X2885560Y-15853646D02*
X2876037Y-15863170D01*
X2876037Y-15863170D02*
X2856989Y-15872694D01*
X2856989Y-15872694D02*
X2837941Y-15872694D01*
X2837941Y-15872694D02*
X2818894Y-15863170D01*
X2818894Y-15863170D02*
X2809370Y-15853646D01*
X2809370Y-15853646D02*
X2799846Y-15834599D01*
X2799846Y-15834599D02*
X2790322Y-15796503D01*
X2790322Y-15796503D02*
X2790322Y-15748884D01*
X2790322Y-15748884D02*
X2799846Y-15710789D01*
X2799846Y-15710789D02*
X2809370Y-15691742D01*
X2809370Y-15691742D02*
X2818894Y-15682218D01*
X2818894Y-15682218D02*
X2837941Y-15672694D01*
X2990322Y-15853646D02*
X2999846Y-15863170D01*
X2999846Y-15863170D02*
X2990322Y-15872694D01*
X2990322Y-15872694D02*
X2980798Y-15863170D01*
X2980798Y-15863170D02*
X2990322Y-15853646D01*
X2990322Y-15853646D02*
X2990322Y-15872694D01*
X3095084Y-15872694D02*
X3133179Y-15872694D01*
X3133179Y-15872694D02*
X3152227Y-15863170D01*
X3152227Y-15863170D02*
X3161751Y-15853646D01*
X3161751Y-15853646D02*
X3180798Y-15825075D01*
X3180798Y-15825075D02*
X3190322Y-15786980D01*
X3190322Y-15786980D02*
X3190322Y-15710789D01*
X3190322Y-15710789D02*
X3180798Y-15691742D01*
X3180798Y-15691742D02*
X3171275Y-15682218D01*
X3171275Y-15682218D02*
X3152227Y-15672694D01*
X3152227Y-15672694D02*
X3114132Y-15672694D01*
X3114132Y-15672694D02*
X3095084Y-15682218D01*
X3095084Y-15682218D02*
X3085560Y-15691742D01*
X3085560Y-15691742D02*
X3076037Y-15710789D01*
X3076037Y-15710789D02*
X3076037Y-15758408D01*
X3076037Y-15758408D02*
X3085560Y-15777456D01*
X3085560Y-15777456D02*
X3095084Y-15786980D01*
X3095084Y-15786980D02*
X3114132Y-15796503D01*
X3114132Y-15796503D02*
X3152227Y-15796503D01*
X3152227Y-15796503D02*
X3171275Y-15786980D01*
X3171275Y-15786980D02*
X3180798Y-15777456D01*
X3180798Y-15777456D02*
X3190322Y-15758408D01*
X3314132Y-15672694D02*
X3333179Y-15672694D01*
X3333179Y-15672694D02*
X3352227Y-15682218D01*
X3352227Y-15682218D02*
X3361751Y-15691742D01*
X3361751Y-15691742D02*
X3371275Y-15710789D01*
X3371275Y-15710789D02*
X3380798Y-15748884D01*
X3380798Y-15748884D02*
X3380798Y-15796503D01*
X3380798Y-15796503D02*
X3371275Y-15834599D01*
X3371275Y-15834599D02*
X3361751Y-15853646D01*
X3361751Y-15853646D02*
X3352227Y-15863170D01*
X3352227Y-15863170D02*
X3333179Y-15872694D01*
X3333179Y-15872694D02*
X3314132Y-15872694D01*
X3314132Y-15872694D02*
X3295084Y-15863170D01*
X3295084Y-15863170D02*
X3285560Y-15853646D01*
X3285560Y-15853646D02*
X3276037Y-15834599D01*
X3276037Y-15834599D02*
X3266513Y-15796503D01*
X3266513Y-15796503D02*
X3266513Y-15748884D01*
X3266513Y-15748884D02*
X3276037Y-15710789D01*
X3276037Y-15710789D02*
X3285560Y-15691742D01*
X3285560Y-15691742D02*
X3295084Y-15682218D01*
X3295084Y-15682218D02*
X3314132Y-15672694D01*
X3504608Y-15672694D02*
X3523656Y-15672694D01*
X3523656Y-15672694D02*
X3542703Y-15682218D01*
X3542703Y-15682218D02*
X3552227Y-15691742D01*
X3552227Y-15691742D02*
X3561751Y-15710789D01*
X3561751Y-15710789D02*
X3571275Y-15748884D01*
X3571275Y-15748884D02*
X3571275Y-15796503D01*
X3571275Y-15796503D02*
X3561751Y-15834599D01*
X3561751Y-15834599D02*
X3552227Y-15853646D01*
X3552227Y-15853646D02*
X3542703Y-15863170D01*
X3542703Y-15863170D02*
X3523656Y-15872694D01*
X3523656Y-15872694D02*
X3504608Y-15872694D01*
X3504608Y-15872694D02*
X3485560Y-15863170D01*
X3485560Y-15863170D02*
X3476037Y-15853646D01*
X3476037Y-15853646D02*
X3466513Y-15834599D01*
X3466513Y-15834599D02*
X3456989Y-15796503D01*
X3456989Y-15796503D02*
X3456989Y-15748884D01*
X3456989Y-15748884D02*
X3466513Y-15710789D01*
X3466513Y-15710789D02*
X3476037Y-15691742D01*
X3476037Y-15691742D02*
X3485560Y-15682218D01*
X3485560Y-15682218D02*
X3504608Y-15672694D01*
X3656989Y-15872694D02*
X3656989Y-15739361D01*
X3656989Y-15758408D02*
X3666513Y-15748884D01*
X3666513Y-15748884D02*
X3685560Y-15739361D01*
X3685560Y-15739361D02*
X3714132Y-15739361D01*
X3714132Y-15739361D02*
X3733179Y-15748884D01*
X3733179Y-15748884D02*
X3742703Y-15767932D01*
X3742703Y-15767932D02*
X3742703Y-15872694D01*
X3742703Y-15767932D02*
X3752227Y-15748884D01*
X3752227Y-15748884D02*
X3771275Y-15739361D01*
X3771275Y-15739361D02*
X3799846Y-15739361D01*
X3799846Y-15739361D02*
X3818894Y-15748884D01*
X3818894Y-15748884D02*
X3828418Y-15767932D01*
X3828418Y-15767932D02*
X3828418Y-15872694D01*
X3923656Y-15872694D02*
X3923656Y-15739361D01*
X3923656Y-15758408D02*
X3933179Y-15748884D01*
X3933179Y-15748884D02*
X3952227Y-15739361D01*
X3952227Y-15739361D02*
X3980799Y-15739361D01*
X3980799Y-15739361D02*
X3999846Y-15748884D01*
X3999846Y-15748884D02*
X4009370Y-15767932D01*
X4009370Y-15767932D02*
X4009370Y-15872694D01*
X4009370Y-15767932D02*
X4018894Y-15748884D01*
X4018894Y-15748884D02*
X4037941Y-15739361D01*
X4037941Y-15739361D02*
X4066513Y-15739361D01*
X4066513Y-15739361D02*
X4085560Y-15748884D01*
X4085560Y-15748884D02*
X4095084Y-15767932D01*
X4095084Y-15767932D02*
X4095084Y-15872694D01*
X4485561Y-15663170D02*
X4314132Y-15920313D01*
X4742703Y-15672694D02*
X4761751Y-15672694D01*
X4761751Y-15672694D02*
X4780799Y-15682218D01*
X4780799Y-15682218D02*
X4790323Y-15691742D01*
X4790323Y-15691742D02*
X4799846Y-15710789D01*
X4799846Y-15710789D02*
X4809370Y-15748884D01*
X4809370Y-15748884D02*
X4809370Y-15796503D01*
X4809370Y-15796503D02*
X4799846Y-15834599D01*
X4799846Y-15834599D02*
X4790323Y-15853646D01*
X4790323Y-15853646D02*
X4780799Y-15863170D01*
X4780799Y-15863170D02*
X4761751Y-15872694D01*
X4761751Y-15872694D02*
X4742703Y-15872694D01*
X4742703Y-15872694D02*
X4723656Y-15863170D01*
X4723656Y-15863170D02*
X4714132Y-15853646D01*
X4714132Y-15853646D02*
X4704608Y-15834599D01*
X4704608Y-15834599D02*
X4695084Y-15796503D01*
X4695084Y-15796503D02*
X4695084Y-15748884D01*
X4695084Y-15748884D02*
X4704608Y-15710789D01*
X4704608Y-15710789D02*
X4714132Y-15691742D01*
X4714132Y-15691742D02*
X4723656Y-15682218D01*
X4723656Y-15682218D02*
X4742703Y-15672694D01*
X4895084Y-15853646D02*
X4904608Y-15863170D01*
X4904608Y-15863170D02*
X4895084Y-15872694D01*
X4895084Y-15872694D02*
X4885561Y-15863170D01*
X4885561Y-15863170D02*
X4895084Y-15853646D01*
X4895084Y-15853646D02*
X4895084Y-15872694D01*
X5028418Y-15672694D02*
X5047465Y-15672694D01*
X5047465Y-15672694D02*
X5066513Y-15682218D01*
X5066513Y-15682218D02*
X5076037Y-15691742D01*
X5076037Y-15691742D02*
X5085561Y-15710789D01*
X5085561Y-15710789D02*
X5095084Y-15748884D01*
X5095084Y-15748884D02*
X5095084Y-15796503D01*
X5095084Y-15796503D02*
X5085561Y-15834599D01*
X5085561Y-15834599D02*
X5076037Y-15853646D01*
X5076037Y-15853646D02*
X5066513Y-15863170D01*
X5066513Y-15863170D02*
X5047465Y-15872694D01*
X5047465Y-15872694D02*
X5028418Y-15872694D01*
X5028418Y-15872694D02*
X5009370Y-15863170D01*
X5009370Y-15863170D02*
X4999846Y-15853646D01*
X4999846Y-15853646D02*
X4990323Y-15834599D01*
X4990323Y-15834599D02*
X4980799Y-15796503D01*
X4980799Y-15796503D02*
X4980799Y-15748884D01*
X4980799Y-15748884D02*
X4990323Y-15710789D01*
X4990323Y-15710789D02*
X4999846Y-15691742D01*
X4999846Y-15691742D02*
X5009370Y-15682218D01*
X5009370Y-15682218D02*
X5028418Y-15672694D01*
X5161751Y-15672694D02*
X5285561Y-15672694D01*
X5285561Y-15672694D02*
X5218894Y-15748884D01*
X5218894Y-15748884D02*
X5247465Y-15748884D01*
X5247465Y-15748884D02*
X5266513Y-15758408D01*
X5266513Y-15758408D02*
X5276037Y-15767932D01*
X5276037Y-15767932D02*
X5285561Y-15786980D01*
X5285561Y-15786980D02*
X5285561Y-15834599D01*
X5285561Y-15834599D02*
X5276037Y-15853646D01*
X5276037Y-15853646D02*
X5266513Y-15863170D01*
X5266513Y-15863170D02*
X5247465Y-15872694D01*
X5247465Y-15872694D02*
X5190323Y-15872694D01*
X5190323Y-15872694D02*
X5171275Y-15863170D01*
X5171275Y-15863170D02*
X5161751Y-15853646D01*
X5466513Y-15672694D02*
X5371275Y-15672694D01*
X5371275Y-15672694D02*
X5361751Y-15767932D01*
X5361751Y-15767932D02*
X5371275Y-15758408D01*
X5371275Y-15758408D02*
X5390323Y-15748884D01*
X5390323Y-15748884D02*
X5437942Y-15748884D01*
X5437942Y-15748884D02*
X5456989Y-15758408D01*
X5456989Y-15758408D02*
X5466513Y-15767932D01*
X5466513Y-15767932D02*
X5476037Y-15786980D01*
X5476037Y-15786980D02*
X5476037Y-15834599D01*
X5476037Y-15834599D02*
X5466513Y-15853646D01*
X5466513Y-15853646D02*
X5456989Y-15863170D01*
X5456989Y-15863170D02*
X5437942Y-15872694D01*
X5437942Y-15872694D02*
X5390323Y-15872694D01*
X5390323Y-15872694D02*
X5371275Y-15863170D01*
X5371275Y-15863170D02*
X5361751Y-15853646D01*
X5647465Y-15739361D02*
X5647465Y-15872694D01*
X5599846Y-15663170D02*
X5552227Y-15806027D01*
X5552227Y-15806027D02*
X5676037Y-15806027D01*
X5742703Y-15672694D02*
X5742703Y-15710789D01*
X5818894Y-15672694D02*
X5818894Y-15710789D01*
X6114132Y-15948884D02*
X6104608Y-15939361D01*
X6104608Y-15939361D02*
X6085561Y-15910789D01*
X6085561Y-15910789D02*
X6076037Y-15891742D01*
X6076037Y-15891742D02*
X6066513Y-15863170D01*
X6066513Y-15863170D02*
X6056989Y-15815551D01*
X6056989Y-15815551D02*
X6056989Y-15777456D01*
X6056989Y-15777456D02*
X6066513Y-15729837D01*
X6066513Y-15729837D02*
X6076037Y-15701265D01*
X6076037Y-15701265D02*
X6085561Y-15682218D01*
X6085561Y-15682218D02*
X6104608Y-15653646D01*
X6104608Y-15653646D02*
X6114132Y-15644122D01*
X6276037Y-15672694D02*
X6237942Y-15672694D01*
X6237942Y-15672694D02*
X6218894Y-15682218D01*
X6218894Y-15682218D02*
X6209370Y-15691742D01*
X6209370Y-15691742D02*
X6190323Y-15720313D01*
X6190323Y-15720313D02*
X6180799Y-15758408D01*
X6180799Y-15758408D02*
X6180799Y-15834599D01*
X6180799Y-15834599D02*
X6190323Y-15853646D01*
X6190323Y-15853646D02*
X6199846Y-15863170D01*
X6199846Y-15863170D02*
X6218894Y-15872694D01*
X6218894Y-15872694D02*
X6256989Y-15872694D01*
X6256989Y-15872694D02*
X6276037Y-15863170D01*
X6276037Y-15863170D02*
X6285561Y-15853646D01*
X6285561Y-15853646D02*
X6295084Y-15834599D01*
X6295084Y-15834599D02*
X6295084Y-15786980D01*
X6295084Y-15786980D02*
X6285561Y-15767932D01*
X6285561Y-15767932D02*
X6276037Y-15758408D01*
X6276037Y-15758408D02*
X6256989Y-15748884D01*
X6256989Y-15748884D02*
X6218894Y-15748884D01*
X6218894Y-15748884D02*
X6199846Y-15758408D01*
X6199846Y-15758408D02*
X6190323Y-15767932D01*
X6190323Y-15767932D02*
X6180799Y-15786980D01*
X6533180Y-15872694D02*
X6533180Y-15672694D01*
X6618894Y-15872694D02*
X6618894Y-15767932D01*
X6618894Y-15767932D02*
X6609370Y-15748884D01*
X6609370Y-15748884D02*
X6590323Y-15739361D01*
X6590323Y-15739361D02*
X6561751Y-15739361D01*
X6561751Y-15739361D02*
X6542704Y-15748884D01*
X6542704Y-15748884D02*
X6533180Y-15758408D01*
X6742704Y-15872694D02*
X6723656Y-15863170D01*
X6723656Y-15863170D02*
X6714132Y-15853646D01*
X6714132Y-15853646D02*
X6704608Y-15834599D01*
X6704608Y-15834599D02*
X6704608Y-15777456D01*
X6704608Y-15777456D02*
X6714132Y-15758408D01*
X6714132Y-15758408D02*
X6723656Y-15748884D01*
X6723656Y-15748884D02*
X6742704Y-15739361D01*
X6742704Y-15739361D02*
X6771275Y-15739361D01*
X6771275Y-15739361D02*
X6790323Y-15748884D01*
X6790323Y-15748884D02*
X6799846Y-15758408D01*
X6799846Y-15758408D02*
X6809370Y-15777456D01*
X6809370Y-15777456D02*
X6809370Y-15834599D01*
X6809370Y-15834599D02*
X6799846Y-15853646D01*
X6799846Y-15853646D02*
X6790323Y-15863170D01*
X6790323Y-15863170D02*
X6771275Y-15872694D01*
X6771275Y-15872694D02*
X6742704Y-15872694D01*
X6923656Y-15872694D02*
X6904608Y-15863170D01*
X6904608Y-15863170D02*
X6895085Y-15844122D01*
X6895085Y-15844122D02*
X6895085Y-15672694D01*
X7076037Y-15863170D02*
X7056989Y-15872694D01*
X7056989Y-15872694D02*
X7018894Y-15872694D01*
X7018894Y-15872694D02*
X6999846Y-15863170D01*
X6999846Y-15863170D02*
X6990323Y-15844122D01*
X6990323Y-15844122D02*
X6990323Y-15767932D01*
X6990323Y-15767932D02*
X6999846Y-15748884D01*
X6999846Y-15748884D02*
X7018894Y-15739361D01*
X7018894Y-15739361D02*
X7056989Y-15739361D01*
X7056989Y-15739361D02*
X7076037Y-15748884D01*
X7076037Y-15748884D02*
X7085561Y-15767932D01*
X7085561Y-15767932D02*
X7085561Y-15786980D01*
X7085561Y-15786980D02*
X6990323Y-15806027D01*
X7161751Y-15863170D02*
X7180799Y-15872694D01*
X7180799Y-15872694D02*
X7218894Y-15872694D01*
X7218894Y-15872694D02*
X7237942Y-15863170D01*
X7237942Y-15863170D02*
X7247466Y-15844122D01*
X7247466Y-15844122D02*
X7247466Y-15834599D01*
X7247466Y-15834599D02*
X7237942Y-15815551D01*
X7237942Y-15815551D02*
X7218894Y-15806027D01*
X7218894Y-15806027D02*
X7190323Y-15806027D01*
X7190323Y-15806027D02*
X7171275Y-15796503D01*
X7171275Y-15796503D02*
X7161751Y-15777456D01*
X7161751Y-15777456D02*
X7161751Y-15767932D01*
X7161751Y-15767932D02*
X7171275Y-15748884D01*
X7171275Y-15748884D02*
X7190323Y-15739361D01*
X7190323Y-15739361D02*
X7218894Y-15739361D01*
X7218894Y-15739361D02*
X7237942Y-15748884D01*
X7485561Y-15796503D02*
X7637942Y-15796503D01*
X7561751Y-15872694D02*
X7561751Y-15720313D01*
X7914132Y-15758408D02*
X7895085Y-15748884D01*
X7895085Y-15748884D02*
X7885561Y-15739361D01*
X7885561Y-15739361D02*
X7876037Y-15720313D01*
X7876037Y-15720313D02*
X7876037Y-15710789D01*
X7876037Y-15710789D02*
X7885561Y-15691742D01*
X7885561Y-15691742D02*
X7895085Y-15682218D01*
X7895085Y-15682218D02*
X7914132Y-15672694D01*
X7914132Y-15672694D02*
X7952228Y-15672694D01*
X7952228Y-15672694D02*
X7971275Y-15682218D01*
X7971275Y-15682218D02*
X7980799Y-15691742D01*
X7980799Y-15691742D02*
X7990323Y-15710789D01*
X7990323Y-15710789D02*
X7990323Y-15720313D01*
X7990323Y-15720313D02*
X7980799Y-15739361D01*
X7980799Y-15739361D02*
X7971275Y-15748884D01*
X7971275Y-15748884D02*
X7952228Y-15758408D01*
X7952228Y-15758408D02*
X7914132Y-15758408D01*
X7914132Y-15758408D02*
X7895085Y-15767932D01*
X7895085Y-15767932D02*
X7885561Y-15777456D01*
X7885561Y-15777456D02*
X7876037Y-15796503D01*
X7876037Y-15796503D02*
X7876037Y-15834599D01*
X7876037Y-15834599D02*
X7885561Y-15853646D01*
X7885561Y-15853646D02*
X7895085Y-15863170D01*
X7895085Y-15863170D02*
X7914132Y-15872694D01*
X7914132Y-15872694D02*
X7952228Y-15872694D01*
X7952228Y-15872694D02*
X7971275Y-15863170D01*
X7971275Y-15863170D02*
X7980799Y-15853646D01*
X7980799Y-15853646D02*
X7990323Y-15834599D01*
X7990323Y-15834599D02*
X7990323Y-15796503D01*
X7990323Y-15796503D02*
X7980799Y-15777456D01*
X7980799Y-15777456D02*
X7971275Y-15767932D01*
X7971275Y-15767932D02*
X7952228Y-15758408D01*
X8218894Y-15863170D02*
X8237942Y-15872694D01*
X8237942Y-15872694D02*
X8276037Y-15872694D01*
X8276037Y-15872694D02*
X8295085Y-15863170D01*
X8295085Y-15863170D02*
X8304609Y-15844122D01*
X8304609Y-15844122D02*
X8304609Y-15834599D01*
X8304609Y-15834599D02*
X8295085Y-15815551D01*
X8295085Y-15815551D02*
X8276037Y-15806027D01*
X8276037Y-15806027D02*
X8247466Y-15806027D01*
X8247466Y-15806027D02*
X8228418Y-15796503D01*
X8228418Y-15796503D02*
X8218894Y-15777456D01*
X8218894Y-15777456D02*
X8218894Y-15767932D01*
X8218894Y-15767932D02*
X8228418Y-15748884D01*
X8228418Y-15748884D02*
X8247466Y-15739361D01*
X8247466Y-15739361D02*
X8276037Y-15739361D01*
X8276037Y-15739361D02*
X8295085Y-15748884D01*
X8418894Y-15872694D02*
X8399847Y-15863170D01*
X8399847Y-15863170D02*
X8390323Y-15844122D01*
X8390323Y-15844122D02*
X8390323Y-15672694D01*
X8523656Y-15872694D02*
X8504609Y-15863170D01*
X8504609Y-15863170D02*
X8495085Y-15853646D01*
X8495085Y-15853646D02*
X8485561Y-15834599D01*
X8485561Y-15834599D02*
X8485561Y-15777456D01*
X8485561Y-15777456D02*
X8495085Y-15758408D01*
X8495085Y-15758408D02*
X8504609Y-15748884D01*
X8504609Y-15748884D02*
X8523656Y-15739361D01*
X8523656Y-15739361D02*
X8552228Y-15739361D01*
X8552228Y-15739361D02*
X8571275Y-15748884D01*
X8571275Y-15748884D02*
X8580799Y-15758408D01*
X8580799Y-15758408D02*
X8590323Y-15777456D01*
X8590323Y-15777456D02*
X8590323Y-15834599D01*
X8590323Y-15834599D02*
X8580799Y-15853646D01*
X8580799Y-15853646D02*
X8571275Y-15863170D01*
X8571275Y-15863170D02*
X8552228Y-15872694D01*
X8552228Y-15872694D02*
X8523656Y-15872694D01*
X8647466Y-15739361D02*
X8723656Y-15739361D01*
X8676037Y-15672694D02*
X8676037Y-15844122D01*
X8676037Y-15844122D02*
X8685561Y-15863170D01*
X8685561Y-15863170D02*
X8704609Y-15872694D01*
X8704609Y-15872694D02*
X8723656Y-15872694D01*
X8780799Y-15863170D02*
X8799847Y-15872694D01*
X8799847Y-15872694D02*
X8837942Y-15872694D01*
X8837942Y-15872694D02*
X8856990Y-15863170D01*
X8856990Y-15863170D02*
X8866513Y-15844122D01*
X8866513Y-15844122D02*
X8866513Y-15834599D01*
X8866513Y-15834599D02*
X8856990Y-15815551D01*
X8856990Y-15815551D02*
X8837942Y-15806027D01*
X8837942Y-15806027D02*
X8809371Y-15806027D01*
X8809371Y-15806027D02*
X8790323Y-15796503D01*
X8790323Y-15796503D02*
X8780799Y-15777456D01*
X8780799Y-15777456D02*
X8780799Y-15767932D01*
X8780799Y-15767932D02*
X8790323Y-15748884D01*
X8790323Y-15748884D02*
X8809371Y-15739361D01*
X8809371Y-15739361D02*
X8837942Y-15739361D01*
X8837942Y-15739361D02*
X8856990Y-15748884D01*
X8933180Y-15948884D02*
X8942704Y-15939361D01*
X8942704Y-15939361D02*
X8961752Y-15910789D01*
X8961752Y-15910789D02*
X8971275Y-15891742D01*
X8971275Y-15891742D02*
X8980799Y-15863170D01*
X8980799Y-15863170D02*
X8990323Y-15815551D01*
X8990323Y-15815551D02*
X8990323Y-15777456D01*
X8990323Y-15777456D02*
X8980799Y-15729837D01*
X8980799Y-15729837D02*
X8971275Y-15701265D01*
X8971275Y-15701265D02*
X8961752Y-15682218D01*
X8961752Y-15682218D02*
X8942704Y-15653646D01*
X8942704Y-15653646D02*
X8933180Y-15644122D01*
D13*
X2520471Y-16090112D02*
X2520471Y-16000308D01*
X2430668Y-16000308D01*
X2430668Y-16090112D01*
X2520471Y-16090112D01*
D11*
X2904608Y-16136694D02*
X2790322Y-16136694D01*
X2847465Y-16136694D02*
X2847465Y-15936694D01*
X2847465Y-15936694D02*
X2828417Y-15965265D01*
X2828417Y-15965265D02*
X2809370Y-15984313D01*
X2809370Y-15984313D02*
X2790322Y-15993837D01*
X2990322Y-16117646D02*
X2999846Y-16127170D01*
X2999846Y-16127170D02*
X2990322Y-16136694D01*
X2990322Y-16136694D02*
X2980798Y-16127170D01*
X2980798Y-16127170D02*
X2990322Y-16117646D01*
X2990322Y-16117646D02*
X2990322Y-16136694D01*
X3076037Y-15955742D02*
X3085560Y-15946218D01*
X3085560Y-15946218D02*
X3104608Y-15936694D01*
X3104608Y-15936694D02*
X3152227Y-15936694D01*
X3152227Y-15936694D02*
X3171275Y-15946218D01*
X3171275Y-15946218D02*
X3180798Y-15955742D01*
X3180798Y-15955742D02*
X3190322Y-15974789D01*
X3190322Y-15974789D02*
X3190322Y-15993837D01*
X3190322Y-15993837D02*
X3180798Y-16022408D01*
X3180798Y-16022408D02*
X3066513Y-16136694D01*
X3066513Y-16136694D02*
X3190322Y-16136694D01*
X3256989Y-15936694D02*
X3390322Y-15936694D01*
X3390322Y-15936694D02*
X3304608Y-16136694D01*
X3504608Y-15936694D02*
X3523656Y-15936694D01*
X3523656Y-15936694D02*
X3542703Y-15946218D01*
X3542703Y-15946218D02*
X3552227Y-15955742D01*
X3552227Y-15955742D02*
X3561751Y-15974789D01*
X3561751Y-15974789D02*
X3571275Y-16012884D01*
X3571275Y-16012884D02*
X3571275Y-16060503D01*
X3571275Y-16060503D02*
X3561751Y-16098599D01*
X3561751Y-16098599D02*
X3552227Y-16117646D01*
X3552227Y-16117646D02*
X3542703Y-16127170D01*
X3542703Y-16127170D02*
X3523656Y-16136694D01*
X3523656Y-16136694D02*
X3504608Y-16136694D01*
X3504608Y-16136694D02*
X3485560Y-16127170D01*
X3485560Y-16127170D02*
X3476037Y-16117646D01*
X3476037Y-16117646D02*
X3466513Y-16098599D01*
X3466513Y-16098599D02*
X3456989Y-16060503D01*
X3456989Y-16060503D02*
X3456989Y-16012884D01*
X3456989Y-16012884D02*
X3466513Y-15974789D01*
X3466513Y-15974789D02*
X3476037Y-15955742D01*
X3476037Y-15955742D02*
X3485560Y-15946218D01*
X3485560Y-15946218D02*
X3504608Y-15936694D01*
X3656989Y-16136694D02*
X3656989Y-16003361D01*
X3656989Y-16022408D02*
X3666513Y-16012884D01*
X3666513Y-16012884D02*
X3685560Y-16003361D01*
X3685560Y-16003361D02*
X3714132Y-16003361D01*
X3714132Y-16003361D02*
X3733179Y-16012884D01*
X3733179Y-16012884D02*
X3742703Y-16031932D01*
X3742703Y-16031932D02*
X3742703Y-16136694D01*
X3742703Y-16031932D02*
X3752227Y-16012884D01*
X3752227Y-16012884D02*
X3771275Y-16003361D01*
X3771275Y-16003361D02*
X3799846Y-16003361D01*
X3799846Y-16003361D02*
X3818894Y-16012884D01*
X3818894Y-16012884D02*
X3828418Y-16031932D01*
X3828418Y-16031932D02*
X3828418Y-16136694D01*
X3923656Y-16136694D02*
X3923656Y-16003361D01*
X3923656Y-16022408D02*
X3933179Y-16012884D01*
X3933179Y-16012884D02*
X3952227Y-16003361D01*
X3952227Y-16003361D02*
X3980799Y-16003361D01*
X3980799Y-16003361D02*
X3999846Y-16012884D01*
X3999846Y-16012884D02*
X4009370Y-16031932D01*
X4009370Y-16031932D02*
X4009370Y-16136694D01*
X4009370Y-16031932D02*
X4018894Y-16012884D01*
X4018894Y-16012884D02*
X4037941Y-16003361D01*
X4037941Y-16003361D02*
X4066513Y-16003361D01*
X4066513Y-16003361D02*
X4085560Y-16012884D01*
X4085560Y-16012884D02*
X4095084Y-16031932D01*
X4095084Y-16031932D02*
X4095084Y-16136694D01*
X4485561Y-15927170D02*
X4314132Y-16184313D01*
X4742703Y-15936694D02*
X4761751Y-15936694D01*
X4761751Y-15936694D02*
X4780799Y-15946218D01*
X4780799Y-15946218D02*
X4790323Y-15955742D01*
X4790323Y-15955742D02*
X4799846Y-15974789D01*
X4799846Y-15974789D02*
X4809370Y-16012884D01*
X4809370Y-16012884D02*
X4809370Y-16060503D01*
X4809370Y-16060503D02*
X4799846Y-16098599D01*
X4799846Y-16098599D02*
X4790323Y-16117646D01*
X4790323Y-16117646D02*
X4780799Y-16127170D01*
X4780799Y-16127170D02*
X4761751Y-16136694D01*
X4761751Y-16136694D02*
X4742703Y-16136694D01*
X4742703Y-16136694D02*
X4723656Y-16127170D01*
X4723656Y-16127170D02*
X4714132Y-16117646D01*
X4714132Y-16117646D02*
X4704608Y-16098599D01*
X4704608Y-16098599D02*
X4695084Y-16060503D01*
X4695084Y-16060503D02*
X4695084Y-16012884D01*
X4695084Y-16012884D02*
X4704608Y-15974789D01*
X4704608Y-15974789D02*
X4714132Y-15955742D01*
X4714132Y-15955742D02*
X4723656Y-15946218D01*
X4723656Y-15946218D02*
X4742703Y-15936694D01*
X4895084Y-16117646D02*
X4904608Y-16127170D01*
X4904608Y-16127170D02*
X4895084Y-16136694D01*
X4895084Y-16136694D02*
X4885561Y-16127170D01*
X4885561Y-16127170D02*
X4895084Y-16117646D01*
X4895084Y-16117646D02*
X4895084Y-16136694D01*
X5028418Y-15936694D02*
X5047465Y-15936694D01*
X5047465Y-15936694D02*
X5066513Y-15946218D01*
X5066513Y-15946218D02*
X5076037Y-15955742D01*
X5076037Y-15955742D02*
X5085561Y-15974789D01*
X5085561Y-15974789D02*
X5095084Y-16012884D01*
X5095084Y-16012884D02*
X5095084Y-16060503D01*
X5095084Y-16060503D02*
X5085561Y-16098599D01*
X5085561Y-16098599D02*
X5076037Y-16117646D01*
X5076037Y-16117646D02*
X5066513Y-16127170D01*
X5066513Y-16127170D02*
X5047465Y-16136694D01*
X5047465Y-16136694D02*
X5028418Y-16136694D01*
X5028418Y-16136694D02*
X5009370Y-16127170D01*
X5009370Y-16127170D02*
X4999846Y-16117646D01*
X4999846Y-16117646D02*
X4990323Y-16098599D01*
X4990323Y-16098599D02*
X4980799Y-16060503D01*
X4980799Y-16060503D02*
X4980799Y-16012884D01*
X4980799Y-16012884D02*
X4990323Y-15974789D01*
X4990323Y-15974789D02*
X4999846Y-15955742D01*
X4999846Y-15955742D02*
X5009370Y-15946218D01*
X5009370Y-15946218D02*
X5028418Y-15936694D01*
X5276037Y-15936694D02*
X5180799Y-15936694D01*
X5180799Y-15936694D02*
X5171275Y-16031932D01*
X5171275Y-16031932D02*
X5180799Y-16022408D01*
X5180799Y-16022408D02*
X5199846Y-16012884D01*
X5199846Y-16012884D02*
X5247465Y-16012884D01*
X5247465Y-16012884D02*
X5266513Y-16022408D01*
X5266513Y-16022408D02*
X5276037Y-16031932D01*
X5276037Y-16031932D02*
X5285561Y-16050980D01*
X5285561Y-16050980D02*
X5285561Y-16098599D01*
X5285561Y-16098599D02*
X5276037Y-16117646D01*
X5276037Y-16117646D02*
X5266513Y-16127170D01*
X5266513Y-16127170D02*
X5247465Y-16136694D01*
X5247465Y-16136694D02*
X5199846Y-16136694D01*
X5199846Y-16136694D02*
X5180799Y-16127170D01*
X5180799Y-16127170D02*
X5171275Y-16117646D01*
X5409370Y-15936694D02*
X5428418Y-15936694D01*
X5428418Y-15936694D02*
X5447465Y-15946218D01*
X5447465Y-15946218D02*
X5456989Y-15955742D01*
X5456989Y-15955742D02*
X5466513Y-15974789D01*
X5466513Y-15974789D02*
X5476037Y-16012884D01*
X5476037Y-16012884D02*
X5476037Y-16060503D01*
X5476037Y-16060503D02*
X5466513Y-16098599D01*
X5466513Y-16098599D02*
X5456989Y-16117646D01*
X5456989Y-16117646D02*
X5447465Y-16127170D01*
X5447465Y-16127170D02*
X5428418Y-16136694D01*
X5428418Y-16136694D02*
X5409370Y-16136694D01*
X5409370Y-16136694D02*
X5390323Y-16127170D01*
X5390323Y-16127170D02*
X5380799Y-16117646D01*
X5380799Y-16117646D02*
X5371275Y-16098599D01*
X5371275Y-16098599D02*
X5361751Y-16060503D01*
X5361751Y-16060503D02*
X5361751Y-16012884D01*
X5361751Y-16012884D02*
X5371275Y-15974789D01*
X5371275Y-15974789D02*
X5380799Y-15955742D01*
X5380799Y-15955742D02*
X5390323Y-15946218D01*
X5390323Y-15946218D02*
X5409370Y-15936694D01*
X5599846Y-15936694D02*
X5618894Y-15936694D01*
X5618894Y-15936694D02*
X5637942Y-15946218D01*
X5637942Y-15946218D02*
X5647465Y-15955742D01*
X5647465Y-15955742D02*
X5656989Y-15974789D01*
X5656989Y-15974789D02*
X5666513Y-16012884D01*
X5666513Y-16012884D02*
X5666513Y-16060503D01*
X5666513Y-16060503D02*
X5656989Y-16098599D01*
X5656989Y-16098599D02*
X5647465Y-16117646D01*
X5647465Y-16117646D02*
X5637942Y-16127170D01*
X5637942Y-16127170D02*
X5618894Y-16136694D01*
X5618894Y-16136694D02*
X5599846Y-16136694D01*
X5599846Y-16136694D02*
X5580799Y-16127170D01*
X5580799Y-16127170D02*
X5571275Y-16117646D01*
X5571275Y-16117646D02*
X5561751Y-16098599D01*
X5561751Y-16098599D02*
X5552227Y-16060503D01*
X5552227Y-16060503D02*
X5552227Y-16012884D01*
X5552227Y-16012884D02*
X5561751Y-15974789D01*
X5561751Y-15974789D02*
X5571275Y-15955742D01*
X5571275Y-15955742D02*
X5580799Y-15946218D01*
X5580799Y-15946218D02*
X5599846Y-15936694D01*
X5742703Y-15936694D02*
X5742703Y-15974789D01*
X5818894Y-15936694D02*
X5818894Y-15974789D01*
X6114132Y-16212884D02*
X6104608Y-16203361D01*
X6104608Y-16203361D02*
X6085561Y-16174789D01*
X6085561Y-16174789D02*
X6076037Y-16155742D01*
X6076037Y-16155742D02*
X6066513Y-16127170D01*
X6066513Y-16127170D02*
X6056989Y-16079551D01*
X6056989Y-16079551D02*
X6056989Y-16041456D01*
X6056989Y-16041456D02*
X6066513Y-15993837D01*
X6066513Y-15993837D02*
X6076037Y-15965265D01*
X6076037Y-15965265D02*
X6085561Y-15946218D01*
X6085561Y-15946218D02*
X6104608Y-15917646D01*
X6104608Y-15917646D02*
X6114132Y-15908122D01*
X6276037Y-15936694D02*
X6237942Y-15936694D01*
X6237942Y-15936694D02*
X6218894Y-15946218D01*
X6218894Y-15946218D02*
X6209370Y-15955742D01*
X6209370Y-15955742D02*
X6190323Y-15984313D01*
X6190323Y-15984313D02*
X6180799Y-16022408D01*
X6180799Y-16022408D02*
X6180799Y-16098599D01*
X6180799Y-16098599D02*
X6190323Y-16117646D01*
X6190323Y-16117646D02*
X6199846Y-16127170D01*
X6199846Y-16127170D02*
X6218894Y-16136694D01*
X6218894Y-16136694D02*
X6256989Y-16136694D01*
X6256989Y-16136694D02*
X6276037Y-16127170D01*
X6276037Y-16127170D02*
X6285561Y-16117646D01*
X6285561Y-16117646D02*
X6295084Y-16098599D01*
X6295084Y-16098599D02*
X6295084Y-16050980D01*
X6295084Y-16050980D02*
X6285561Y-16031932D01*
X6285561Y-16031932D02*
X6276037Y-16022408D01*
X6276037Y-16022408D02*
X6256989Y-16012884D01*
X6256989Y-16012884D02*
X6218894Y-16012884D01*
X6218894Y-16012884D02*
X6199846Y-16022408D01*
X6199846Y-16022408D02*
X6190323Y-16031932D01*
X6190323Y-16031932D02*
X6180799Y-16050980D01*
X6409370Y-16022408D02*
X6390323Y-16012884D01*
X6390323Y-16012884D02*
X6380799Y-16003361D01*
X6380799Y-16003361D02*
X6371275Y-15984313D01*
X6371275Y-15984313D02*
X6371275Y-15974789D01*
X6371275Y-15974789D02*
X6380799Y-15955742D01*
X6380799Y-15955742D02*
X6390323Y-15946218D01*
X6390323Y-15946218D02*
X6409370Y-15936694D01*
X6409370Y-15936694D02*
X6447465Y-15936694D01*
X6447465Y-15936694D02*
X6466513Y-15946218D01*
X6466513Y-15946218D02*
X6476037Y-15955742D01*
X6476037Y-15955742D02*
X6485561Y-15974789D01*
X6485561Y-15974789D02*
X6485561Y-15984313D01*
X6485561Y-15984313D02*
X6476037Y-16003361D01*
X6476037Y-16003361D02*
X6466513Y-16012884D01*
X6466513Y-16012884D02*
X6447465Y-16022408D01*
X6447465Y-16022408D02*
X6409370Y-16022408D01*
X6409370Y-16022408D02*
X6390323Y-16031932D01*
X6390323Y-16031932D02*
X6380799Y-16041456D01*
X6380799Y-16041456D02*
X6371275Y-16060503D01*
X6371275Y-16060503D02*
X6371275Y-16098599D01*
X6371275Y-16098599D02*
X6380799Y-16117646D01*
X6380799Y-16117646D02*
X6390323Y-16127170D01*
X6390323Y-16127170D02*
X6409370Y-16136694D01*
X6409370Y-16136694D02*
X6447465Y-16136694D01*
X6447465Y-16136694D02*
X6466513Y-16127170D01*
X6466513Y-16127170D02*
X6476037Y-16117646D01*
X6476037Y-16117646D02*
X6485561Y-16098599D01*
X6485561Y-16098599D02*
X6485561Y-16060503D01*
X6485561Y-16060503D02*
X6476037Y-16041456D01*
X6476037Y-16041456D02*
X6466513Y-16031932D01*
X6466513Y-16031932D02*
X6447465Y-16022408D01*
X6723656Y-16136694D02*
X6723656Y-15936694D01*
X6809370Y-16136694D02*
X6809370Y-16031932D01*
X6809370Y-16031932D02*
X6799846Y-16012884D01*
X6799846Y-16012884D02*
X6780799Y-16003361D01*
X6780799Y-16003361D02*
X6752227Y-16003361D01*
X6752227Y-16003361D02*
X6733180Y-16012884D01*
X6733180Y-16012884D02*
X6723656Y-16022408D01*
X6933180Y-16136694D02*
X6914132Y-16127170D01*
X6914132Y-16127170D02*
X6904608Y-16117646D01*
X6904608Y-16117646D02*
X6895085Y-16098599D01*
X6895085Y-16098599D02*
X6895085Y-16041456D01*
X6895085Y-16041456D02*
X6904608Y-16022408D01*
X6904608Y-16022408D02*
X6914132Y-16012884D01*
X6914132Y-16012884D02*
X6933180Y-16003361D01*
X6933180Y-16003361D02*
X6961751Y-16003361D01*
X6961751Y-16003361D02*
X6980799Y-16012884D01*
X6980799Y-16012884D02*
X6990323Y-16022408D01*
X6990323Y-16022408D02*
X6999846Y-16041456D01*
X6999846Y-16041456D02*
X6999846Y-16098599D01*
X6999846Y-16098599D02*
X6990323Y-16117646D01*
X6990323Y-16117646D02*
X6980799Y-16127170D01*
X6980799Y-16127170D02*
X6961751Y-16136694D01*
X6961751Y-16136694D02*
X6933180Y-16136694D01*
X7114132Y-16136694D02*
X7095085Y-16127170D01*
X7095085Y-16127170D02*
X7085561Y-16108122D01*
X7085561Y-16108122D02*
X7085561Y-15936694D01*
X7266513Y-16127170D02*
X7247466Y-16136694D01*
X7247466Y-16136694D02*
X7209370Y-16136694D01*
X7209370Y-16136694D02*
X7190323Y-16127170D01*
X7190323Y-16127170D02*
X7180799Y-16108122D01*
X7180799Y-16108122D02*
X7180799Y-16031932D01*
X7180799Y-16031932D02*
X7190323Y-16012884D01*
X7190323Y-16012884D02*
X7209370Y-16003361D01*
X7209370Y-16003361D02*
X7247466Y-16003361D01*
X7247466Y-16003361D02*
X7266513Y-16012884D01*
X7266513Y-16012884D02*
X7276037Y-16031932D01*
X7276037Y-16031932D02*
X7276037Y-16050980D01*
X7276037Y-16050980D02*
X7180799Y-16070027D01*
X7352227Y-16127170D02*
X7371275Y-16136694D01*
X7371275Y-16136694D02*
X7409370Y-16136694D01*
X7409370Y-16136694D02*
X7428418Y-16127170D01*
X7428418Y-16127170D02*
X7437942Y-16108122D01*
X7437942Y-16108122D02*
X7437942Y-16098599D01*
X7437942Y-16098599D02*
X7428418Y-16079551D01*
X7428418Y-16079551D02*
X7409370Y-16070027D01*
X7409370Y-16070027D02*
X7380799Y-16070027D01*
X7380799Y-16070027D02*
X7361751Y-16060503D01*
X7361751Y-16060503D02*
X7352227Y-16041456D01*
X7352227Y-16041456D02*
X7352227Y-16031932D01*
X7352227Y-16031932D02*
X7361751Y-16012884D01*
X7361751Y-16012884D02*
X7380799Y-16003361D01*
X7380799Y-16003361D02*
X7409370Y-16003361D01*
X7409370Y-16003361D02*
X7428418Y-16012884D01*
X7504608Y-16212884D02*
X7514132Y-16203361D01*
X7514132Y-16203361D02*
X7533180Y-16174789D01*
X7533180Y-16174789D02*
X7542704Y-16155742D01*
X7542704Y-16155742D02*
X7552227Y-16127170D01*
X7552227Y-16127170D02*
X7561751Y-16079551D01*
X7561751Y-16079551D02*
X7561751Y-16041456D01*
X7561751Y-16041456D02*
X7552227Y-15993837D01*
X7552227Y-15993837D02*
X7542704Y-15965265D01*
X7542704Y-15965265D02*
X7533180Y-15946218D01*
X7533180Y-15946218D02*
X7514132Y-15917646D01*
X7514132Y-15917646D02*
X7504608Y-15908122D01*
X2439069Y-16409210D02*
X2539069Y-16309210D01*
X2439069Y-16209210D01*
X2339069Y-16309210D01*
X2439069Y-16409210D01*
X2790322Y-16219742D02*
X2799846Y-16210218D01*
X2799846Y-16210218D02*
X2818894Y-16200694D01*
X2818894Y-16200694D02*
X2866513Y-16200694D01*
X2866513Y-16200694D02*
X2885560Y-16210218D01*
X2885560Y-16210218D02*
X2895084Y-16219742D01*
X2895084Y-16219742D02*
X2904608Y-16238789D01*
X2904608Y-16238789D02*
X2904608Y-16257837D01*
X2904608Y-16257837D02*
X2895084Y-16286408D01*
X2895084Y-16286408D02*
X2780799Y-16400694D01*
X2780799Y-16400694D02*
X2904608Y-16400694D01*
X2990322Y-16381646D02*
X2999846Y-16391170D01*
X2999846Y-16391170D02*
X2990322Y-16400694D01*
X2990322Y-16400694D02*
X2980798Y-16391170D01*
X2980798Y-16391170D02*
X2990322Y-16381646D01*
X2990322Y-16381646D02*
X2990322Y-16400694D01*
X3076037Y-16219742D02*
X3085560Y-16210218D01*
X3085560Y-16210218D02*
X3104608Y-16200694D01*
X3104608Y-16200694D02*
X3152227Y-16200694D01*
X3152227Y-16200694D02*
X3171275Y-16210218D01*
X3171275Y-16210218D02*
X3180798Y-16219742D01*
X3180798Y-16219742D02*
X3190322Y-16238789D01*
X3190322Y-16238789D02*
X3190322Y-16257837D01*
X3190322Y-16257837D02*
X3180798Y-16286408D01*
X3180798Y-16286408D02*
X3066513Y-16400694D01*
X3066513Y-16400694D02*
X3190322Y-16400694D01*
X3314132Y-16200694D02*
X3333179Y-16200694D01*
X3333179Y-16200694D02*
X3352227Y-16210218D01*
X3352227Y-16210218D02*
X3361751Y-16219742D01*
X3361751Y-16219742D02*
X3371275Y-16238789D01*
X3371275Y-16238789D02*
X3380798Y-16276884D01*
X3380798Y-16276884D02*
X3380798Y-16324503D01*
X3380798Y-16324503D02*
X3371275Y-16362599D01*
X3371275Y-16362599D02*
X3361751Y-16381646D01*
X3361751Y-16381646D02*
X3352227Y-16391170D01*
X3352227Y-16391170D02*
X3333179Y-16400694D01*
X3333179Y-16400694D02*
X3314132Y-16400694D01*
X3314132Y-16400694D02*
X3295084Y-16391170D01*
X3295084Y-16391170D02*
X3285560Y-16381646D01*
X3285560Y-16381646D02*
X3276037Y-16362599D01*
X3276037Y-16362599D02*
X3266513Y-16324503D01*
X3266513Y-16324503D02*
X3266513Y-16276884D01*
X3266513Y-16276884D02*
X3276037Y-16238789D01*
X3276037Y-16238789D02*
X3285560Y-16219742D01*
X3285560Y-16219742D02*
X3295084Y-16210218D01*
X3295084Y-16210218D02*
X3314132Y-16200694D01*
X3504608Y-16200694D02*
X3523656Y-16200694D01*
X3523656Y-16200694D02*
X3542703Y-16210218D01*
X3542703Y-16210218D02*
X3552227Y-16219742D01*
X3552227Y-16219742D02*
X3561751Y-16238789D01*
X3561751Y-16238789D02*
X3571275Y-16276884D01*
X3571275Y-16276884D02*
X3571275Y-16324503D01*
X3571275Y-16324503D02*
X3561751Y-16362599D01*
X3561751Y-16362599D02*
X3552227Y-16381646D01*
X3552227Y-16381646D02*
X3542703Y-16391170D01*
X3542703Y-16391170D02*
X3523656Y-16400694D01*
X3523656Y-16400694D02*
X3504608Y-16400694D01*
X3504608Y-16400694D02*
X3485560Y-16391170D01*
X3485560Y-16391170D02*
X3476037Y-16381646D01*
X3476037Y-16381646D02*
X3466513Y-16362599D01*
X3466513Y-16362599D02*
X3456989Y-16324503D01*
X3456989Y-16324503D02*
X3456989Y-16276884D01*
X3456989Y-16276884D02*
X3466513Y-16238789D01*
X3466513Y-16238789D02*
X3476037Y-16219742D01*
X3476037Y-16219742D02*
X3485560Y-16210218D01*
X3485560Y-16210218D02*
X3504608Y-16200694D01*
X3656989Y-16400694D02*
X3656989Y-16267361D01*
X3656989Y-16286408D02*
X3666513Y-16276884D01*
X3666513Y-16276884D02*
X3685560Y-16267361D01*
X3685560Y-16267361D02*
X3714132Y-16267361D01*
X3714132Y-16267361D02*
X3733179Y-16276884D01*
X3733179Y-16276884D02*
X3742703Y-16295932D01*
X3742703Y-16295932D02*
X3742703Y-16400694D01*
X3742703Y-16295932D02*
X3752227Y-16276884D01*
X3752227Y-16276884D02*
X3771275Y-16267361D01*
X3771275Y-16267361D02*
X3799846Y-16267361D01*
X3799846Y-16267361D02*
X3818894Y-16276884D01*
X3818894Y-16276884D02*
X3828418Y-16295932D01*
X3828418Y-16295932D02*
X3828418Y-16400694D01*
X3923656Y-16400694D02*
X3923656Y-16267361D01*
X3923656Y-16286408D02*
X3933179Y-16276884D01*
X3933179Y-16276884D02*
X3952227Y-16267361D01*
X3952227Y-16267361D02*
X3980799Y-16267361D01*
X3980799Y-16267361D02*
X3999846Y-16276884D01*
X3999846Y-16276884D02*
X4009370Y-16295932D01*
X4009370Y-16295932D02*
X4009370Y-16400694D01*
X4009370Y-16295932D02*
X4018894Y-16276884D01*
X4018894Y-16276884D02*
X4037941Y-16267361D01*
X4037941Y-16267361D02*
X4066513Y-16267361D01*
X4066513Y-16267361D02*
X4085560Y-16276884D01*
X4085560Y-16276884D02*
X4095084Y-16295932D01*
X4095084Y-16295932D02*
X4095084Y-16400694D01*
X4485561Y-16191170D02*
X4314132Y-16448313D01*
X4742703Y-16200694D02*
X4761751Y-16200694D01*
X4761751Y-16200694D02*
X4780799Y-16210218D01*
X4780799Y-16210218D02*
X4790323Y-16219742D01*
X4790323Y-16219742D02*
X4799846Y-16238789D01*
X4799846Y-16238789D02*
X4809370Y-16276884D01*
X4809370Y-16276884D02*
X4809370Y-16324503D01*
X4809370Y-16324503D02*
X4799846Y-16362599D01*
X4799846Y-16362599D02*
X4790323Y-16381646D01*
X4790323Y-16381646D02*
X4780799Y-16391170D01*
X4780799Y-16391170D02*
X4761751Y-16400694D01*
X4761751Y-16400694D02*
X4742703Y-16400694D01*
X4742703Y-16400694D02*
X4723656Y-16391170D01*
X4723656Y-16391170D02*
X4714132Y-16381646D01*
X4714132Y-16381646D02*
X4704608Y-16362599D01*
X4704608Y-16362599D02*
X4695084Y-16324503D01*
X4695084Y-16324503D02*
X4695084Y-16276884D01*
X4695084Y-16276884D02*
X4704608Y-16238789D01*
X4704608Y-16238789D02*
X4714132Y-16219742D01*
X4714132Y-16219742D02*
X4723656Y-16210218D01*
X4723656Y-16210218D02*
X4742703Y-16200694D01*
X4895084Y-16381646D02*
X4904608Y-16391170D01*
X4904608Y-16391170D02*
X4895084Y-16400694D01*
X4895084Y-16400694D02*
X4885561Y-16391170D01*
X4885561Y-16391170D02*
X4895084Y-16381646D01*
X4895084Y-16381646D02*
X4895084Y-16400694D01*
X5028418Y-16200694D02*
X5047465Y-16200694D01*
X5047465Y-16200694D02*
X5066513Y-16210218D01*
X5066513Y-16210218D02*
X5076037Y-16219742D01*
X5076037Y-16219742D02*
X5085561Y-16238789D01*
X5085561Y-16238789D02*
X5095084Y-16276884D01*
X5095084Y-16276884D02*
X5095084Y-16324503D01*
X5095084Y-16324503D02*
X5085561Y-16362599D01*
X5085561Y-16362599D02*
X5076037Y-16381646D01*
X5076037Y-16381646D02*
X5066513Y-16391170D01*
X5066513Y-16391170D02*
X5047465Y-16400694D01*
X5047465Y-16400694D02*
X5028418Y-16400694D01*
X5028418Y-16400694D02*
X5009370Y-16391170D01*
X5009370Y-16391170D02*
X4999846Y-16381646D01*
X4999846Y-16381646D02*
X4990323Y-16362599D01*
X4990323Y-16362599D02*
X4980799Y-16324503D01*
X4980799Y-16324503D02*
X4980799Y-16276884D01*
X4980799Y-16276884D02*
X4990323Y-16238789D01*
X4990323Y-16238789D02*
X4999846Y-16219742D01*
X4999846Y-16219742D02*
X5009370Y-16210218D01*
X5009370Y-16210218D02*
X5028418Y-16200694D01*
X5209370Y-16286408D02*
X5190323Y-16276884D01*
X5190323Y-16276884D02*
X5180799Y-16267361D01*
X5180799Y-16267361D02*
X5171275Y-16248313D01*
X5171275Y-16248313D02*
X5171275Y-16238789D01*
X5171275Y-16238789D02*
X5180799Y-16219742D01*
X5180799Y-16219742D02*
X5190323Y-16210218D01*
X5190323Y-16210218D02*
X5209370Y-16200694D01*
X5209370Y-16200694D02*
X5247465Y-16200694D01*
X5247465Y-16200694D02*
X5266513Y-16210218D01*
X5266513Y-16210218D02*
X5276037Y-16219742D01*
X5276037Y-16219742D02*
X5285561Y-16238789D01*
X5285561Y-16238789D02*
X5285561Y-16248313D01*
X5285561Y-16248313D02*
X5276037Y-16267361D01*
X5276037Y-16267361D02*
X5266513Y-16276884D01*
X5266513Y-16276884D02*
X5247465Y-16286408D01*
X5247465Y-16286408D02*
X5209370Y-16286408D01*
X5209370Y-16286408D02*
X5190323Y-16295932D01*
X5190323Y-16295932D02*
X5180799Y-16305456D01*
X5180799Y-16305456D02*
X5171275Y-16324503D01*
X5171275Y-16324503D02*
X5171275Y-16362599D01*
X5171275Y-16362599D02*
X5180799Y-16381646D01*
X5180799Y-16381646D02*
X5190323Y-16391170D01*
X5190323Y-16391170D02*
X5209370Y-16400694D01*
X5209370Y-16400694D02*
X5247465Y-16400694D01*
X5247465Y-16400694D02*
X5266513Y-16391170D01*
X5266513Y-16391170D02*
X5276037Y-16381646D01*
X5276037Y-16381646D02*
X5285561Y-16362599D01*
X5285561Y-16362599D02*
X5285561Y-16324503D01*
X5285561Y-16324503D02*
X5276037Y-16305456D01*
X5276037Y-16305456D02*
X5266513Y-16295932D01*
X5266513Y-16295932D02*
X5247465Y-16286408D01*
X5456989Y-16200694D02*
X5418894Y-16200694D01*
X5418894Y-16200694D02*
X5399846Y-16210218D01*
X5399846Y-16210218D02*
X5390323Y-16219742D01*
X5390323Y-16219742D02*
X5371275Y-16248313D01*
X5371275Y-16248313D02*
X5361751Y-16286408D01*
X5361751Y-16286408D02*
X5361751Y-16362599D01*
X5361751Y-16362599D02*
X5371275Y-16381646D01*
X5371275Y-16381646D02*
X5380799Y-16391170D01*
X5380799Y-16391170D02*
X5399846Y-16400694D01*
X5399846Y-16400694D02*
X5437942Y-16400694D01*
X5437942Y-16400694D02*
X5456989Y-16391170D01*
X5456989Y-16391170D02*
X5466513Y-16381646D01*
X5466513Y-16381646D02*
X5476037Y-16362599D01*
X5476037Y-16362599D02*
X5476037Y-16314980D01*
X5476037Y-16314980D02*
X5466513Y-16295932D01*
X5466513Y-16295932D02*
X5456989Y-16286408D01*
X5456989Y-16286408D02*
X5437942Y-16276884D01*
X5437942Y-16276884D02*
X5399846Y-16276884D01*
X5399846Y-16276884D02*
X5380799Y-16286408D01*
X5380799Y-16286408D02*
X5371275Y-16295932D01*
X5371275Y-16295932D02*
X5361751Y-16314980D01*
X5647465Y-16200694D02*
X5609370Y-16200694D01*
X5609370Y-16200694D02*
X5590323Y-16210218D01*
X5590323Y-16210218D02*
X5580799Y-16219742D01*
X5580799Y-16219742D02*
X5561751Y-16248313D01*
X5561751Y-16248313D02*
X5552227Y-16286408D01*
X5552227Y-16286408D02*
X5552227Y-16362599D01*
X5552227Y-16362599D02*
X5561751Y-16381646D01*
X5561751Y-16381646D02*
X5571275Y-16391170D01*
X5571275Y-16391170D02*
X5590323Y-16400694D01*
X5590323Y-16400694D02*
X5628418Y-16400694D01*
X5628418Y-16400694D02*
X5647465Y-16391170D01*
X5647465Y-16391170D02*
X5656989Y-16381646D01*
X5656989Y-16381646D02*
X5666513Y-16362599D01*
X5666513Y-16362599D02*
X5666513Y-16314980D01*
X5666513Y-16314980D02*
X5656989Y-16295932D01*
X5656989Y-16295932D02*
X5647465Y-16286408D01*
X5647465Y-16286408D02*
X5628418Y-16276884D01*
X5628418Y-16276884D02*
X5590323Y-16276884D01*
X5590323Y-16276884D02*
X5571275Y-16286408D01*
X5571275Y-16286408D02*
X5561751Y-16295932D01*
X5561751Y-16295932D02*
X5552227Y-16314980D01*
X5742703Y-16200694D02*
X5742703Y-16238789D01*
X5818894Y-16200694D02*
X5818894Y-16238789D01*
X6114132Y-16476884D02*
X6104608Y-16467361D01*
X6104608Y-16467361D02*
X6085561Y-16438789D01*
X6085561Y-16438789D02*
X6076037Y-16419742D01*
X6076037Y-16419742D02*
X6066513Y-16391170D01*
X6066513Y-16391170D02*
X6056989Y-16343551D01*
X6056989Y-16343551D02*
X6056989Y-16305456D01*
X6056989Y-16305456D02*
X6066513Y-16257837D01*
X6066513Y-16257837D02*
X6076037Y-16229265D01*
X6076037Y-16229265D02*
X6085561Y-16210218D01*
X6085561Y-16210218D02*
X6104608Y-16181646D01*
X6104608Y-16181646D02*
X6114132Y-16172122D01*
X6276037Y-16267361D02*
X6276037Y-16400694D01*
X6228418Y-16191170D02*
X6180799Y-16334027D01*
X6180799Y-16334027D02*
X6304608Y-16334027D01*
X6533180Y-16400694D02*
X6533180Y-16200694D01*
X6618894Y-16400694D02*
X6618894Y-16295932D01*
X6618894Y-16295932D02*
X6609370Y-16276884D01*
X6609370Y-16276884D02*
X6590323Y-16267361D01*
X6590323Y-16267361D02*
X6561751Y-16267361D01*
X6561751Y-16267361D02*
X6542704Y-16276884D01*
X6542704Y-16276884D02*
X6533180Y-16286408D01*
X6742704Y-16400694D02*
X6723656Y-16391170D01*
X6723656Y-16391170D02*
X6714132Y-16381646D01*
X6714132Y-16381646D02*
X6704608Y-16362599D01*
X6704608Y-16362599D02*
X6704608Y-16305456D01*
X6704608Y-16305456D02*
X6714132Y-16286408D01*
X6714132Y-16286408D02*
X6723656Y-16276884D01*
X6723656Y-16276884D02*
X6742704Y-16267361D01*
X6742704Y-16267361D02*
X6771275Y-16267361D01*
X6771275Y-16267361D02*
X6790323Y-16276884D01*
X6790323Y-16276884D02*
X6799846Y-16286408D01*
X6799846Y-16286408D02*
X6809370Y-16305456D01*
X6809370Y-16305456D02*
X6809370Y-16362599D01*
X6809370Y-16362599D02*
X6799846Y-16381646D01*
X6799846Y-16381646D02*
X6790323Y-16391170D01*
X6790323Y-16391170D02*
X6771275Y-16400694D01*
X6771275Y-16400694D02*
X6742704Y-16400694D01*
X6923656Y-16400694D02*
X6904608Y-16391170D01*
X6904608Y-16391170D02*
X6895085Y-16372122D01*
X6895085Y-16372122D02*
X6895085Y-16200694D01*
X7076037Y-16391170D02*
X7056989Y-16400694D01*
X7056989Y-16400694D02*
X7018894Y-16400694D01*
X7018894Y-16400694D02*
X6999846Y-16391170D01*
X6999846Y-16391170D02*
X6990323Y-16372122D01*
X6990323Y-16372122D02*
X6990323Y-16295932D01*
X6990323Y-16295932D02*
X6999846Y-16276884D01*
X6999846Y-16276884D02*
X7018894Y-16267361D01*
X7018894Y-16267361D02*
X7056989Y-16267361D01*
X7056989Y-16267361D02*
X7076037Y-16276884D01*
X7076037Y-16276884D02*
X7085561Y-16295932D01*
X7085561Y-16295932D02*
X7085561Y-16314980D01*
X7085561Y-16314980D02*
X6990323Y-16334027D01*
X7161751Y-16391170D02*
X7180799Y-16400694D01*
X7180799Y-16400694D02*
X7218894Y-16400694D01*
X7218894Y-16400694D02*
X7237942Y-16391170D01*
X7237942Y-16391170D02*
X7247466Y-16372122D01*
X7247466Y-16372122D02*
X7247466Y-16362599D01*
X7247466Y-16362599D02*
X7237942Y-16343551D01*
X7237942Y-16343551D02*
X7218894Y-16334027D01*
X7218894Y-16334027D02*
X7190323Y-16334027D01*
X7190323Y-16334027D02*
X7171275Y-16324503D01*
X7171275Y-16324503D02*
X7161751Y-16305456D01*
X7161751Y-16305456D02*
X7161751Y-16295932D01*
X7161751Y-16295932D02*
X7171275Y-16276884D01*
X7171275Y-16276884D02*
X7190323Y-16267361D01*
X7190323Y-16267361D02*
X7218894Y-16267361D01*
X7218894Y-16267361D02*
X7237942Y-16276884D01*
X7314132Y-16476884D02*
X7323656Y-16467361D01*
X7323656Y-16467361D02*
X7342704Y-16438789D01*
X7342704Y-16438789D02*
X7352227Y-16419742D01*
X7352227Y-16419742D02*
X7361751Y-16391170D01*
X7361751Y-16391170D02*
X7371275Y-16343551D01*
X7371275Y-16343551D02*
X7371275Y-16305456D01*
X7371275Y-16305456D02*
X7361751Y-16257837D01*
X7361751Y-16257837D02*
X7352227Y-16229265D01*
X7352227Y-16229265D02*
X7342704Y-16210218D01*
X7342704Y-16210218D02*
X7323656Y-16181646D01*
X7323656Y-16181646D02*
X7314132Y-16172122D01*
M02*
